<?xml version="1.0" encoding="utf-8"?>
<!-- Generator: Adobe Illustrator 23.0.0, SVG Export Plug-In . SVG Version: 6.00 Build 0)  -->
<svg version="1.1" id="Layer_1" xmlns="http://www.w3.org/2000/svg" xmlns:xlink="http://www.w3.org/1999/xlink" x="0px" y="0px"
	 viewBox="0 0 512 512" style="enable-background:new 0 0 512 512;" xml:space="preserve">
<style type="text/css">
	.st0{fill:#EA5C2B;}
</style>
<g>
	<g>
		<path class="st0" d="M257.5,17.8c32,0,63.1,6.3,92.3,18.6c28.2,11.9,53.6,29,75.4,50.8c21.8,21.8,38.9,47.2,50.8,75.4
			c12.4,29.2,18.6,60.3,18.6,92.3s-6.3,63.1-18.6,92.3c-11.9,28.2-29,53.6-50.8,75.4c-21.8,21.8-47.2,38.9-75.4,50.8
			c-29.2,12.4-60.3,18.6-92.3,18.6s-63.1-6.3-92.3-18.6c-28.2-11.9-53.6-29-75.4-50.8C68,400.9,50.9,375.6,39,347.3
			C26.6,318.1,20.3,287,20.3,255s6.3-63.1,18.6-92.3c11.9-28.2,29-53.6,50.8-75.4c21.8-21.8,47.2-38.9,75.4-50.8
			C194.4,24.1,225.5,17.8,257.5,17.8 M257.5,5.3C119.6,5.3,7.8,117.1,7.8,255s111.8,249.7,249.7,249.7S507.2,392.9,507.2,255
			S395.4,5.3,257.5,5.3L257.5,5.3z"/>
	</g>
	<g>
		<g>
			<path class="st0" d="M200.9,144.4c-2.6,0-4.7,2.1-4.7,4.7v56.5c0,2.6,2.1,4.7,4.7,4.7s4.7-2.1,4.7-4.7v-56.5
				C205.6,146.5,203.5,144.4,200.9,144.4L200.9,144.4z"/>
		</g>
	</g>
	<g>
		<g>
			<path class="st0" d="M257.5,102c-2.6,0-4.7,2.1-4.7,4.7v98.9c0,2.6,2.1,4.7,4.7,4.7c2.6,0,4.7-2.1,4.7-4.7v-98.9
				C262.2,104.1,260.1,102,257.5,102L257.5,102z"/>
		</g>
	</g>
	<g>
		<g>
			<path class="st0" d="M314,130.2c-2.6,0-4.7,2.1-4.7,4.7v70.6c0,2.6,2.1,4.7,4.7,4.7c2.6,0,4.7-2.1,4.7-4.7v-70.6
				C318.7,132.3,316.6,130.2,314,130.2L314,130.2z"/>
		</g>
	</g>
	<path class="st0" d="M445.6,229.2l-0.4,5C437.8,331.7,355.4,408,257.5,408S77.1,331.7,69.8,234.1l-0.4-5H445.6z"/>
</g>
</svg>
