<?xml version="1.0" encoding="utf-8"?>
<!-- Generator: Adobe Illustrator 23.0.0, SVG Export Plug-In . SVG Version: 6.00 Build 0)  -->
<svg version="1.1" id="Layer_1" xmlns="http://www.w3.org/2000/svg" xmlns:xlink="http://www.w3.org/1999/xlink" x="0px" y="0px"
	 viewBox="0 0 512 512" style="enable-background:new 0 0 512 512;" xml:space="preserve">
<style type="text/css">
	.st0{fill:#EA5C2B;}
</style>
<g>
	<g>
		<path class="st0" d="M256.5,17.5c32.2,0,63.4,6.3,92.8,18.7c28.4,12,53.9,29.2,75.8,51.1c21.9,21.9,39.1,47.4,51.1,75.8
			c12.4,29.4,18.7,60.6,18.7,92.8s-6.3,63.4-18.7,92.8c-12,28.4-29.2,53.9-51.1,75.8c-21.9,21.9-47.4,39.1-75.8,51.1
			c-29.4,12.4-60.6,18.7-92.8,18.7c-32.2,0-63.4-6.3-92.8-18.7c-28.4-12-53.9-29.2-75.8-51.1c-21.9-21.9-39.1-47.4-51.1-75.8
			C24.3,319.4,18,288.2,18,256s6.3-63.4,18.7-92.8c12-28.4,29.2-53.9,51.1-75.8c21.9-21.9,47.4-39.1,75.8-51.1
			C193.1,23.8,224.3,17.5,256.5,17.5 M256.5,5C117.9,5,5.5,117.4,5.5,256s112.4,251,251,251s251-112.4,251-251S395.1,5,256.5,5
			L256.5,5z"/>
	</g>
	<g>
		<g>
			<path class="st0" d="M301.2,278.2l-14.9-64.3h-59.6l-14.9,64.3H83.2v5c0,35.4,29,64.4,64.4,64.4h47.9L176,431.7h161l-19.6-84.1
				h47.9c17.2,0,33.5-6.8,45.4-18.8c12.2-12.2,19-28.4,19-45.6v-5H301.2z M234.6,223.9h43.8l12.7,54.3h-69.2L234.6,223.9z
				 M236.7,421.8c0-18.8,9-34.6,19.8-34.6c10.7,0,19.7,15.8,19.7,34.6H236.7z M324.5,421.8h-38.3c0-25-13.1-44.6-29.6-44.6
				c-16.7,0-29.7,19.6-29.7,44.6h-38.3l17.3-74.2h101.3L324.5,421.8z"/>
		</g>
		<g>
			<path class="st0" d="M197.1,154.5c0,16.4,16.9,25.2,17.1,25.4c2.5,1.3,3.5,4.1,2.3,6.7c-0.9,1.8-2.6,2.8-4.4,2.8
				c-0.8,0-1.5-0.3-2.3-0.6c-0.9-0.4-22.6-11.4-22.6-34.1c0-12.4,9.5-18.8,17.1-23.8c7.9-5.3,12.7-8.8,12.7-15.7
				c0-16.4-16.9-25.2-17.1-25.2c-2.4-1.3-3.4-4.3-2.1-6.7c1.1-2.5,4.1-3.4,6.5-2.3c1,0.5,22.6,11.5,22.6,34.1
				c0,12.6-9.4,18.8-17.1,24C202,144,197.1,147.7,197.1,154.5z"/>
		</g>
		<g>
			<path class="st0" d="M246.6,154.5c0,16.4,16.8,25.2,17.1,25.4c2.4,1.3,3.4,4.1,2.1,6.7c-0.9,1.8-2.6,2.8-4.4,2.8
				c-0.8,0-1.5-0.3-2.3-0.6c-0.9-0.4-22.5-11.4-22.5-34.1c0-12.4,9.4-18.8,17.1-23.8c7.8-5.3,12.6-8.8,12.6-15.7
				c0-16.4-16.8-25.2-17.1-25.2c-2.4-1.3-3.4-4.3-2.1-6.7c1.3-2.5,4.3-3.4,6.7-2.3c0.9,0.5,22.5,11.5,22.5,34.1
				c0,12.6-9.4,18.8-17.1,24C251.4,144,246.6,147.7,246.6,154.5z"/>
		</g>
		<g>
			<path class="st0" d="M306,154.5c0,16.4,16.9,25.2,17.1,25.4c2.4,1.3,3.4,4.1,2.1,6.7c-0.9,1.8-2.5,2.8-4.4,2.8
				c-0.8,0-1.5-0.3-2.1-0.6c-1-0.4-22.6-11.4-22.6-34.1c0-12.4,9.4-18.8,17.1-23.8c7.8-5.3,12.7-8.8,12.7-15.7
				c0-16.4-16.9-25.2-17.1-25.2c-2.5-1.3-3.5-4.3-2.3-6.7c1.3-2.5,4.3-3.4,6.7-2.3c0.9,0.5,22.6,11.5,22.6,34.1
				c0,12.6-9.5,18.8-17.1,24C310.8,144,306,147.7,306,154.5z"/>
		</g>
	</g>
</g>
</svg>
