<?xml version="1.0" encoding="utf-8"?>
<!-- Generator: Adobe Illustrator 23.0.0, SVG Export Plug-In . SVG Version: 6.00 Build 0)  -->
<svg version="1.1" id="Layer_1" xmlns="http://www.w3.org/2000/svg" xmlns:xlink="http://www.w3.org/1999/xlink" x="0px" y="0px"
	 viewBox="0 0 512 512" style="enable-background:new 0 0 512 512;" xml:space="preserve">
<style type="text/css">
	.st0{fill:#E95D29;}
</style>
<g>
	<g>
		<path class="st0" d="M257.5,19.5c32.1,0,63.2,6.3,92.4,18.7c28.3,12,53.7,29.1,75.5,50.9c21.8,21.8,38.9,47.2,50.9,75.5
			c12.4,29.3,18.7,60.4,18.7,92.4s-6.3,63.2-18.7,92.4c-12,28.3-29.1,53.7-50.9,75.5c-21.8,21.8-47.2,38.9-75.5,50.9
			c-29.3,12.4-60.4,18.7-92.4,18.7s-63.2-6.3-92.4-18.7c-28.3-12-53.7-29.1-75.5-50.9c-21.8-21.8-38.9-47.2-50.9-75.5
			C26.3,320.2,20,289.1,20,257s6.3-63.2,18.7-92.4c12-28.3,29.1-53.7,50.9-75.5c21.8-21.8,47.2-38.9,75.5-50.9
			C194.3,25.8,225.4,19.5,257.5,19.5 M257.5,7C119.4,7,7.5,118.9,7.5,257s111.9,250,250,250s250-111.9,250-250S395.6,7,257.5,7
			L257.5,7z"/>
	</g>
	<g>
		<g>
			<g>
				<g>
					<path class="st0" d="M342.3,357.9c15.3,0,27.7-10.2,27.7-22.6v-37.5c0-12.5-12.4-22.6-27.7-22.6H331V268h6.1v-16.8h7.3v-20h-11
						v-45.9h7.3c8,0,14.6-6.6,14.6-14.6c0-3.9-1.6-7.7-4.3-10.4c-2.7-2.7-6.4-4.3-10.3-4.3h-7.3v-12.1h4.9v-19.4h-5.1
						c-1.2-5.6-6-9.8-11.9-9.8H190c-5.9,0-10.8,4.2-11.9,9.8H173v19.4h4.9v12.1h-7.3c-3.9,0-7.6,1.6-10.3,4.3s-4.3,6.5-4.3,10.4
						c0,8,6.6,14.6,14.6,14.6h7.3v45.9h-11v20h7.3V268h6.1v102.1H145v14.6h14.1l33.7,14.4l122.4,0.2l37-14.6h14.1v-14.6H331v-12.1
						H342.3z M342.3,280.1c12.6,0,22.8,8,22.8,17.8v37.5c0,9.8-10.2,17.8-22.8,17.8H331v-7c13.8-1.4,24.3-10.9,24.3-22.4v-14.2
						c0-11.5-10.5-21.1-24.3-22.4v-7H342.3z M331,341.2V292c11.1,1.3,19.5,8.6,19.5,17.5v14.2C350.6,332.6,342.2,339.9,331,341.2z
						 M340.8,160.9c2.6,0,5.1,1,6.9,2.8c1.8,1.8,2.8,4.3,2.8,6.9c0,5.4-4.4,9.7-9.8,9.7h-7.3v-19.4H340.8z M190,119.6h131.4
						c3.1,0,5.9,2,6.8,4.9H183.1C184.1,121.6,186.9,119.6,190,119.6z M177.9,129.3h155.6v9.8H177.9V129.3z M328.6,143.9v87.3H182.7
						v-87.3H328.6z M170.5,180.4c-5.4,0-9.7-4.3-9.7-9.7c0-2.6,1-5.1,2.8-6.9c1.8-1.8,4.3-2.8,6.9-2.8h7.3v19.4H170.5z M171.8,246.3
						v-10.2h167.8v10.2H171.8z M314.3,394.4H194.3l-22.8-9.7H339L314.3,394.4z M361.5,375v4.9H149.9V375H361.5z M326.2,331.2v38.9
						H185.1v-38.9H326.2z M185.1,326.3V268h141.1v58.3H185.1z M179.1,263.1v-11.9h153.2v11.9H179.1z"/>
				</g>
			</g>
			<g>
				<g>
					<path class="st0" d="M203.6,366.4c-0.6,0-1.2-0.2-1.7-0.7c-1-1-1-2.5,0-3.4l26.8-26.8c1-1,2.5-1,3.4,0c1,1,1,2.5,0,3.4
						l-26.8,26.8C204.8,366.2,204.2,366.4,203.6,366.4z"/>
				</g>
			</g>
			<g>
				<g>
					<path class="st0" d="M219.5,366.4c-0.6,0-1.2-0.2-1.7-0.7c-1-1-1-2.5,0-3.4l26.8-26.8c1-1,2.5-1,3.4,0c1,1,1,2.5,0,3.4
						l-26.8,26.8C220.8,366.2,220.2,366.4,219.5,366.4z"/>
				</g>
			</g>
			<g>
				<g>
					<path class="st0" d="M235.5,366.4c-0.6,0-1.2-0.2-1.7-0.7c-1-1-1-2.5,0-3.4l26.8-26.8c1-1,2.5-1,3.4,0c1,1,1,2.5,0,3.4
						l-26.8,26.8C236.8,366.2,236.1,366.4,235.5,366.4z"/>
				</g>
			</g>
			<g>
				<g>
					<path class="st0" d="M251.5,366.4c-0.6,0-1.2-0.2-1.7-0.7c-1-1-1-2.5,0-3.4l26.8-26.8c1-1,2.5-1,3.4,0c1,1,1,2.5,0,3.4
						l-26.8,26.8C252.7,366.2,252.1,366.4,251.5,366.4z"/>
				</g>
			</g>
			<g>
				<g>
					<path class="st0" d="M267.5,366.4c-0.6,0-1.2-0.2-1.7-0.7c-1-1-1-2.5,0-3.4l26.8-26.8c1-1,2.5-1,3.4,0c1,1,1,2.5,0,3.4
						l-26.8,26.8C268.7,366.2,268.1,366.4,267.5,366.4z"/>
				</g>
			</g>
			<g>
				<g>
					<path class="st0" d="M283.5,366.4c-0.6,0-1.2-0.2-1.7-0.7c-1-1-1-2.5,0-3.4l26.8-26.8c1-1,2.5-1,3.4,0c1,1,1,2.5,0,3.4
						l-26.8,26.8C284.7,366.2,284.1,366.4,283.5,366.4z"/>
				</g>
			</g>
			<g>
				<g>
					<path class="st0" d="M305.5,361.6c-0.6,0-1.2-0.2-1.7-0.7c-1-1-1-2.5,0-3.4l14.6-14.6c1-1,2.5-1,3.4,0c1,1,1,2.5,0,3.4
						l-14.6,14.6C306.8,361.3,306.2,361.6,305.5,361.6z"/>
				</g>
			</g>
			<g>
				<g>
					<path class="st0" d="M193.7,356.7c-0.6,0-1.2-0.2-1.7-0.7c-1-1-1-2.5,0-3.4l14.6-14.6c1-1,2.5-1,3.4,0c1,1,1,2.5,0,3.4
						L195.4,356C194.9,356.5,194.3,356.7,193.7,356.7z"/>
				</g>
			</g>
		</g>
		<g>
			<g>
				<g>
					<path class="st0" d="M342.3,275.2H331V268h6.1v-16.9h7.4v-20h-11v-45.9h7.3c8,0,14.6-6.6,14.6-14.6c0-3.7-1.6-7.6-4.3-10.3
						c-2.7-2.7-6.5-4.4-10.4-4.4h-7.3v-12.1h4.9v-19.4h-5.1c-1.1-5.6-6-9.7-11.9-9.7H190c-5.9,0-10.8,4.1-12,9.7h-5v19.4h4.9V156
						h-7.4c-3.9,0-7.5,1.6-10.3,4.4c-2.8,2.6-4.3,6.5-4.3,10.3c0,8,6.5,14.6,14.5,14.6h7.4v45.9h-11v20h7.4V268h6v102.1H145v14.6
						h14.1l33.8,14.4l122.4,0.1l37-14.5h14.1v-14.6H331V358h11.3c15.4,0,27.7-10.2,27.7-22.6v-37.5
						C370,285.4,357.6,275.2,342.3,275.2z M340.8,160.9c2.7,0,5.1,1.1,7,2.9c1.7,1.8,2.7,4.4,2.7,6.9c0,5.4-4.4,9.8-9.7,9.8h-7.3
						v-19.5H340.8z M190,119.6h131.4c3.1,0,5.9,2,6.9,4.9H183.1C184.1,121.6,186.9,119.6,190,119.6z M177.9,129.2h155.6v9.8H177.9
						V129.2z M328.6,143.9v87.2H182.8v-87.2H328.6z M170.5,180.4c-5.3,0-9.6-4.4-9.6-9.8c0-2.5,1-5.1,2.7-6.9
						c1.9-1.8,4.3-2.9,6.9-2.9h7.4v19.5H170.5z M171.8,246.3v-10.1h167.9v10.1H171.8z M179.1,263.1v-12h153.1v12H179.1z
						 M350.5,309.5v14.1c0,9-8.4,16.3-19.5,17.6V292c10,1.1,17.9,7.3,19.3,15C350.4,307.7,350.5,308.6,350.5,309.5z M185.1,268
						h141.1v58.2H185.1V268z M326.3,331.1v39H185.1v-39H326.3z M314.3,394.4h-120l-22.8-9.6H339L314.3,394.4z M361.5,375v4.9H149.9
						V375H361.5z M365.1,335.4c0,9.8-10.2,17.8-22.9,17.8H331v-7c13.9-1.4,24.4-11,24.4-22.5v-14.1c0-0.9,0-1.6-0.3-2.5
						c-1.2-10.4-11.2-18.8-24.1-19.9v-7h11.3c12.6,0,22.9,8,22.9,17.7V335.4z"/>
				</g>
			</g>
		</g>
		<rect x="185.1" y="331.1" class="st0" width="141.1" height="39"/>
	</g>
</g>
</svg>
