<?xml version="1.0" encoding="utf-8"?>
<!-- Generator: Adobe Illustrator 23.0.0, SVG Export Plug-In . SVG Version: 6.00 Build 0)  -->
<svg version="1.1" id="Layer_1" xmlns="http://www.w3.org/2000/svg" xmlns:xlink="http://www.w3.org/1999/xlink" x="0px" y="0px"
	 viewBox="0 0 512 512" style="enable-background:new 0 0 512 512;" xml:space="preserve">
<style type="text/css">
	.st0{fill:#EA5C2B;}
</style>
<g>
	<g>
		<path class="st0" d="M241.5-1.7c32.2,0,63.4,6.3,92.8,18.7c28.4,12,53.9,29.2,75.8,51.1c21.9,21.9,39.1,47.4,51.1,75.8
			c12.4,29.4,18.7,60.6,18.7,92.8s-6.3,63.4-18.7,92.8c-12,28.4-29.2,53.9-51.1,75.8c-21.9,21.9-47.4,39.1-75.8,51.1
			c-29.4,12.4-60.6,18.7-92.8,18.7s-63.4-6.3-92.8-18.7c-28.4-12-53.9-29.2-75.8-51.1C51,383.5,33.8,358,21.8,329.6
			C9.3,300.2,3,268.9,3,236.7s6.3-63.4,18.7-92.8C33.8,115.5,51,90,72.9,68.1C94.8,46.2,120.3,29,148.7,17
			C178.1,4.6,209.3-1.7,241.5-1.7 M241.5-14.3c-138.6,0-251,112.4-251,251s112.4,251,251,251s251-112.4,251-251
			S380.1-14.3,241.5-14.3L241.5-14.3z"/>
	</g>
	<path class="st0" d="M402.5,170.3c-26-35-89.1-57.6-160.9-57.6c-74.1,0-139.9,24.7-163.5,61.3c-6.1,9.3-9.1,19.1-9.1,29.1
		c0,3.6,0.4,7.1,1.2,10.5c-0.1,1.2-0.1,2.5-0.1,3.7c0,17.9,3.9,35.4,11.5,51.9l0.1,0.2c5.5,11.8,12.8,22.9,21.8,33.1l0.7,0.7
		c32.6,36.5,82.5,57.4,136.8,57.4c82.3,0,153-49.1,168.1-116.8v-0.1c1.9-8.5,2.9-17.2,2.9-25.9c1.5-4.8,2.2-9.7,2.2-14.7
		C414.1,191.9,410.2,180.8,402.5,170.3z M108.5,258.3c-0.3-0.2-0.7-0.5-1-0.7c-0.9-0.6-1.9-1.3-2.9-1.9c-0.6-0.4-1.2-0.9-1.9-1.3
		c-0.4-0.3-0.8-0.5-1.3-0.9c-1.3-1-2.6-2-3.9-3.1c-0.7-0.5-1.3-1-1.9-1.6c-0.5-0.4-0.9-0.8-1.3-1.2c-0.5-0.4-0.9-0.9-1.4-1.3
		c-0.8-0.7-1.5-1.4-2.3-2.1l-1.7-1.7c0.1-0.2,0.3-0.4,0.4-0.6c0.3-0.5,0.6-1,0.9-1.5c0.1-0.2,0.3-0.4,0.4-0.6
		c0.3-0.5,0.7-1.1,1.1-1.6c0.1-0.2,0.3-0.4,0.5-0.6c0.4-0.6,0.9-1.1,1.4-1.7c0.5-0.7,1.1-1.3,1.7-1.9c0.1-0.1,0.3-0.3,0.4-0.4
		c0.5-0.5,0.9-1,1.5-1.5c0.6-0.6,1.2-1.1,1.9-1.7c0.5-0.5,0.9-0.9,1.5-1.3c0.9-0.7,1.9-1.5,2.9-2.1c0.8-0.5,1.6-1.1,2.4-1.5
		c0.8-0.5,1.6-1,2.4-1.4c0.9-0.5,1.7-0.9,2.5-1.3c0.9-0.5,1.7-0.8,2.7-1.1c0.9-0.4,1.8-0.7,2.7-1c0.9-0.3,1.9-0.6,2.8-0.9
		c0.9-0.3,1.9-0.5,2.8-0.7c0.9-0.2,1.7-0.4,2.6-0.5c0.1,0,0.2,0,0.3-0.1c4.6-0.7,9.5-0.9,14-0.5c0.3,0.1,0.6,0.1,0.9,0.1
		c0.2,0,0.5,0.1,0.7,0.1c4.9,0.5,9.5,1.8,14.1,3.6c1,0.4,2.1,0.9,3.1,1.4c1.2,0.6,2.4,1.2,3.6,1.9h0.1c1.1,0.7,2.1,1.3,3.1,2.1
		c1,0.7,2,1.4,2.9,2.2c3.8,3.1,7.1,6.7,9.7,10.6c0.4,0.7,0.9,1.3,1.2,2c0.8,1.4,1.5,2.8,2.2,4.3c0.3,0.6,0.5,1.1,0.8,1.7v0.1
		c0,0.1-0.1,0.1-0.1,0.1c0,0.1,0,0.1,0,0.1c-0.1,0.2-0.1,0.3-0.1,0.5c-0.1,0-0.1,0.1-0.1,0.1c0,0.1,0,0.1,0,0.1v0.1
		c-0.4,1.6-0.7,3.3-0.9,4.9c-0.3,1.7-0.4,3.5-0.4,5.3c0,0.8,0.1,1.5,0.1,2.3c0.1,0.6,0.1,1.2,0.2,1.7c0.1,1.3,0.3,2.5,0.5,3.8
		c0.1,0.3,0.1,0.7,0.2,1c0.1,0.4,0.2,0.8,0.3,1.2c0.1,0.6,0.3,1.3,0.5,1.9c0.2,0.6,0.4,1.2,0.6,1.8c0,0.1,0.1,0.3,0.1,0.4
		c0.1,0.4,0.3,0.9,0.5,1.3c-0.3,1.3-0.8,2.7-1.3,4.1c-0.3,0.9-0.7,1.7-1.1,2.6c-0.2,0.5-0.5,0.9-0.7,1.3c-0.4,0.9-0.9,1.7-1.4,2.5
		c-1.4-0.3-2.9-0.6-4.3-0.9l-5-1.2c-5.9-1.4-11.5-3-16.9-4.7c-0.4-0.1-0.7-0.3-1.1-0.4c-0.3-0.1-0.7-0.2-1.1-0.3
		c-0.7-0.3-1.5-0.5-2.2-0.7l-4-1.4c-0.9-0.3-1.7-0.7-2.7-1l-1.3-0.5l-0.3-0.1c-1.1-0.4-2.3-0.9-3.5-1.3c-1.3-0.5-2.5-1.1-3.8-1.6
		c-0.8-0.4-1.7-0.8-2.5-1.1c-1.1-0.5-2.3-1.1-3.4-1.6c-1.1-0.5-2.3-1.1-3.5-1.7c-1.4-0.7-2.9-1.5-4.3-2.3c-1.3-0.7-2.5-1.4-3.8-2.1
		c-0.7-0.4-1.3-0.8-2.1-1.2c-0.1-0.1-0.2-0.1-0.3-0.2c-0.6-0.3-1.1-0.7-1.7-1.1C109.8,259.1,109.2,258.7,108.5,258.3z M391.8,193.1
		c0,0.4,0,0.8-0.1,1.2c0,0.7-0.1,1.5-0.3,2.1c-0.1,0.6-0.2,1.2-0.4,1.7v0.1c-0.2,0.6-0.4,1.3-0.7,1.9c-0.1,0.1-0.1,0.1-0.1,0.2
		c-0.1,0.1-0.2,0.3-0.3,0.5c0,0.1-0.1,0.1-0.1,0.2c-0.1,0.3-0.3,0.6-0.5,0.9c-0.1,0.3-0.3,0.6-0.5,0.9c-0.1,0.3-0.3,0.7-0.5,0.9
		c0,0.1-0.1,0.1-0.1,0.1c-0.1,0.3-0.3,0.5-0.5,0.7c-0.2,0.3-0.4,0.5-0.7,0.9c-0.2,0.3-0.5,0.6-0.7,0.9c-0.3,0.3-0.6,0.7-0.9,1.1
		c-0.5,0.5-1,0.9-1.5,1.5c-0.6,0.5-1.1,1-1.7,1.5c-0.6,0.5-1.1,0.9-1.7,1.3c-0.2,0.1-0.4,0.3-0.6,0.5c-0.5,0.3-0.9,0.6-1.4,0.9
		c-0.3,0.3-0.7,0.5-1.1,0.7c-0.7,0.4-1.3,0.7-1.9,1.1c-0.7,0.4-1.3,0.7-2.1,1.1c-0.9,0.4-1.7,0.8-2.6,1.1c-1.8,0.7-3.6,1.4-5.6,2.1
		h-0.1c-0.3-0.3-0.5-0.5-0.8-0.7c-0.3-0.3-0.7-0.5-1.1-0.8c-0.7-0.5-1.5-1.1-2.3-1.6c-0.1-0.1-0.2-0.2-0.3-0.3
		c-0.8-0.5-1.7-1.1-2.5-1.5c-0.9-0.5-1.9-1-2.8-1.5c-0.7-0.4-1.5-0.8-2.3-1.1c-0.3-0.1-0.5-0.2-0.8-0.3c-0.3-0.1-0.6-0.3-0.9-0.3
		c-0.5-0.3-0.9-0.5-1.5-0.6c-0.3-0.1-0.6-0.3-0.9-0.3c-0.7-0.3-1.4-0.5-2.1-0.7c-0.1-0.1-0.2-0.1-0.3-0.1c-0.5-0.1-1.1-0.3-1.7-0.5
		c0.9-2.5,1.5-5,1.8-7.6c0.1-0.6,0.1-1.3,0.2-1.9c0.1-0.5,0.1-0.9,0.1-1.3c0.1-0.9,0.1-1.7,0.1-2.5c0-0.8-0.1-1.5-0.1-2.3
		c-0.1-1.3-0.2-2.7-0.5-4.1c0-0.3-0.1-0.5-0.1-0.7v-0.2c-0.1-0.4-0.1-0.8-0.2-1.2c-0.1-0.7-0.3-1.3-0.5-2c-0.2-0.7-0.4-1.3-0.6-2
		c-0.3-0.9-0.6-1.8-0.9-2.6c-0.2-0.6-0.5-1.3-0.7-1.8c-0.5-1.1-1.1-2.3-1.7-3.4c-0.7-1.2-1.4-2.5-2.2-3.7c-0.6-0.9-1.2-1.7-1.9-2.5
		c-0.5-0.7-1-1.3-1.5-1.9c-0.7-0.8-1.4-1.6-2.2-2.3v-0.1h0.3c0.1,0,0.1,0,0.1,0c0.7-0.1,1.3-0.2,2-0.2c0.7-0.1,1.5-0.1,2.2-0.2
		c1.7-0.1,3.4-0.1,5.1-0.1c7.1,0,13.8,0.9,20.1,2.6C380.8,171.5,391.8,181.9,391.8,193.1z M250.9,200.7c-0.1-0.6-0.1-1.2-0.3-1.8
		c-0.1-0.6-0.1-1.2-0.3-1.7c-0.1-0.5-0.2-1.1-0.3-1.6c-0.1-0.5-0.3-1-0.3-1.5c-0.1-0.5-0.3-0.9-0.5-1.4c-0.1-0.5-0.3-0.9-0.5-1.5
		c-0.2-0.6-0.4-1.3-0.7-1.9c-0.3-0.7-0.5-1.3-0.9-1.9c-0.2-0.5-0.4-0.9-0.7-1.3c-0.2-0.5-0.4-0.9-0.7-1.3c-0.5-0.9-1-1.7-1.5-2.6
		c0.2-0.5,0.4-1.1,0.7-1.7c0.2-0.5,0.4-1.1,0.7-1.7c0.3-0.6,0.5-1.2,0.9-1.7c0-0.1,0.1-0.1,0.1-0.1c0-0.1,0-0.1,0.1-0.1
		c0.1-0.5,0.4-0.9,0.7-1.3c0.3-0.6,0.6-1.1,0.9-1.6c0.3-0.5,0.6-1,0.9-1.5c0.3-0.5,0.7-1,1.1-1.5c0.3-0.5,0.7-0.9,1.1-1.3
		c0.1-0.1,0.2-0.3,0.3-0.4c0.3-0.3,0.5-0.7,0.9-1.1c0.5-0.5,0.9-1.1,1.4-1.5c0.3-0.4,0.7-0.7,1.1-1.1c0.4-0.4,0.9-0.9,1.3-1.3
		c0.5-0.4,0.9-0.9,1.4-1.2l1.4-1.2c0.5-0.3,1-0.7,1.5-1.1c0.5-0.4,1-0.7,1.5-1.1c0.5-0.4,1.1-0.7,1.6-1c0.5-0.3,1.1-0.7,1.6-1
		c1.1-0.6,2.2-1.2,3.4-1.7c0.5-0.3,1.1-0.5,1.7-0.8c0.6-0.3,1.2-0.5,1.8-0.7c0.6-0.3,1.2-0.5,1.8-0.7c1.3-0.4,2.5-0.8,3.8-1.1
		c0.6-0.2,1.3-0.3,1.9-0.5c0.6-0.1,1.3-0.3,1.9-0.4c1.3-0.3,2.6-0.5,3.9-0.7c0.7-0.1,1.4-0.1,2.1-0.2c0.5-0.1,0.9-0.1,1.4-0.1h0.1
		c0.6-0.1,1.2-0.1,1.7-0.1v-0.1h0.8l1.5-0.1c14.1,0,27.7,5.1,37.4,14.1c9,8.3,14,19.2,14,30.7c0,1.2-0.1,2.4-0.1,3.5
		c-0.1,0.6-0.1,1.1-0.2,1.7c-0.1,1.1-0.3,2.1-0.6,3.2c-0.1,0.4-0.1,0.8-0.3,1.2c-0.1,0.6-0.3,1.1-0.5,1.7c-0.1,0.5-0.3,0.9-0.4,1.3
		c0,0.1,0,0.1-0.1,0.2c-0.1-0.1-0.1-0.1-0.3-0.1c-0.4-0.1-0.9-0.2-1.3-0.3c-0.5-0.1-1-0.2-1.5-0.3c-1-0.1-2.1-0.3-3.1-0.5
		c-0.9-0.1-1.7-0.2-2.6-0.3c-0.9-0.1-1.7-0.1-2.6-0.1c-0.7,0-1.5-0.1-2.2-0.1c-8.3,0-16.3,1.7-23.6,4.9c-2.1,0.9-4.3,2-6.2,3.2
		c-0.6,0.4-1.2,0.7-1.8,1.1c-0.7,0.4-1.3,0.9-1.9,1.3c-0.4,0.3-0.8,0.6-1.3,0.9c-0.5,0.4-1.1,0.9-1.7,1.3c-1.1,0.9-2.1,1.8-3.1,2.7
		c-0.3,0.3-0.5,0.5-0.8,0.9c-0.5,0.6-1.1,1.1-1.6,1.7c-0.1,0.1-0.1,0.1-0.1,0.1c-0.3,0.4-0.7,0.7-1,1.1c-0.6,0.7-1.2,1.5-1.7,2.3
		c-0.6,0.7-1.1,1.5-1.6,2.3c-0.4,0.6-0.7,1.1-1.1,1.7c-0.1-0.1-0.3-0.3-0.5-0.5c-0.5-0.6-0.9-1.2-1.5-1.8c0-0.1-0.1-0.1-0.1-0.1
		c-0.4-0.5-0.9-0.9-1.3-1.4c-0.1-0.1-0.2-0.3-0.3-0.3c-0.3-0.3-0.6-0.7-0.9-0.9c-0.7-0.8-1.5-1.5-2.3-2.2c-0.5-0.5-1.1-0.9-1.7-1.3
		c-0.4-0.3-0.7-0.6-1.1-0.9c-0.1-0.1-0.3-0.1-0.3-0.2c-0.5-0.4-1-0.7-1.5-1.1c-1.3-0.9-2.7-1.7-4.1-2.5c-0.6-0.3-1.1-0.7-1.7-0.9
		c-0.1-0.1-0.1-0.1-0.2-0.1c-0.3-0.1-0.7-0.3-1.1-0.5c-1.1-0.5-2.1-1.1-3.2-1.5c-0.5-0.2-0.9-0.4-1.4-0.6c-1.2-0.5-2.4-0.9-3.7-1.3
		c-0.7-0.3-1.5-0.5-2.2-0.7c-0.6-0.2-1.2-0.3-1.7-0.5c-0.3-0.1-0.6-0.1-0.9-0.2c0.1-0.3,0.1-0.7,0.2-1c0.1-0.7,0.3-1.5,0.3-2.1
		c0.3-1.7,0.4-3.5,0.4-5.3v-1.8C250.9,201.9,250.9,201.3,250.9,200.7z M167.9,227.1c-0.5-0.5-1.1-0.9-1.7-1.3
		c-0.4-0.3-0.7-0.6-1.1-0.8c-0.4-0.3-0.9-0.6-1.3-0.9c-0.7-0.4-1.3-0.8-1.9-1.2c-0.1-0.1-0.2-0.1-0.3-0.1c-1-0.6-2.1-1.1-3.1-1.7
		c-1.1-0.5-2.1-1-3.3-1.5c-1.1-0.5-2.2-0.9-3.4-1.3c-0.5-0.1-0.9-0.3-1.5-0.5c-1.2-0.4-2.5-0.7-3.7-1c-0.5-0.1-1.1-0.3-1.7-0.3
		c-0.6-0.1-1.2-0.3-1.8-0.3c-0.5-0.1-1.1-0.2-1.7-0.3c-0.1,0-0.1,0-0.1,0c-0.1-0.3-0.2-0.5-0.3-0.9c-0.2-0.5-0.3-1-0.5-1.5
		c-0.3-1.1-0.5-2.3-0.7-3.4c-0.1-0.5-0.1-1-0.2-1.5c-0.2-1.5-0.3-3-0.3-4.5c0-21,18.1-39.3,43.1-43.7c0.1-0.1,0.3-0.1,0.5-0.1
		c2.5-0.4,4.9-0.7,7.2-0.8c0.3-0.1,0.6-0.1,0.9-0.1c1-0.1,2.1-0.1,3.1-0.1c18.7,0,35.9,7.7,45.9,20.3c0.8,1,1.5,2.1,2.3,3.1
		c1.5,2.3,2.7,4.6,3.7,7c1.9,4.6,2.9,9.4,2.9,14.3c0,1.7-0.1,3.4-0.4,5c-0.1,0.9-0.3,1.9-0.5,2.9c-0.9-0.2-1.9-0.3-2.8-0.5
		c-3.2-0.5-6.5-0.8-9.7-0.8c-0.9,0-1.8,0.1-2.7,0.1c-1.3,0-2.7,0.1-4.1,0.3c-0.4,0-0.7,0.1-1.1,0.1c-1,0.1-2,0.3-3,0.5
		c-0.8,0.1-1.7,0.3-2.5,0.5c-0.3,0.1-0.5,0.1-0.8,0.1c-0.1,0.1-0.3,0.1-0.5,0.1c-0.5,0.1-1,0.3-1.5,0.4c-0.3,0-0.5,0.1-0.7,0.2
		c-0.9,0.2-1.8,0.5-2.7,0.8c-0.6,0.2-1.3,0.4-1.9,0.6c-0.9,0.3-1.8,0.7-2.7,1.1c-0.5,0.2-1,0.4-1.5,0.7c-0.7,0.3-1.3,0.6-1.9,0.9
		c-0.7,0.3-1.4,0.6-2,1c-0.6,0.3-1.1,0.6-1.7,0.9c-1.1,0.6-2.1,1.3-3.1,1.9c-0.6,0.4-1.2,0.8-1.8,1.3c-0.4,0.3-0.8,0.6-1.2,0.9
		c-0.7,0.5-1.5,1.1-2.1,1.7c-0.9,0.8-1.9,1.7-2.7,2.5c-0.3,0.3-0.6,0.6-0.9,0.9c-0.4,0.4-0.8,0.8-1.1,1.2c-0.6,0.7-1.2,1.4-1.7,2.1
		c-0.1,0.1-0.1,0.1-0.1,0.1c-0.6,0.7-1.1,1.4-1.6,2.1c-0.3,0.5-0.6,0.9-0.9,1.3c-0.5,0.7-0.9,1.5-1.3,2.2c-0.3,0.5-0.6,0.9-0.9,1.5
		c-0.3,0.6-0.6,1.2-0.9,1.7c-0.3,0.5-0.5,1-0.7,1.5c-0.1,0.3-0.3,0.6-0.4,0.9c-0.2,0.4-0.3,0.9-0.5,1.3c-0.1,0.1-0.1,0.2-0.1,0.3
		c-0.3-0.6-0.5-1.2-0.9-1.8c-0.3-0.7-0.7-1.4-1.1-2.1c-0.9-1.5-1.9-3-2.9-4.5c-0.4-0.5-0.9-1.1-1.4-1.7c-0.6-0.8-1.3-1.5-1.9-2.3
		c-0.4-0.4-0.8-0.9-1.3-1.3c-0.5-0.5-0.9-1-1.5-1.4c-0.5-0.5-1.1-1-1.6-1.4v-0.1C168.9,227.9,168.4,227.5,167.9,227.1z M137.1,207.3
		c0.1,0.5,0.1,0.9,0.1,1.4l0.3,1.6c0,0.4,0.1,0.8,0.1,1.2c0.2,0.9,0.4,1.8,0.7,2.7c0.1,0.5,0.2,0.9,0.3,1.3c0,0.1,0.1,0.1,0.1,0.2
		c-0.7-0.1-1.5-0.1-2.2-0.1c-1.8-0.1-3.6-0.1-5.5,0c-0.7,0-1.4,0.1-2.1,0.1c-1.5,0.1-3,0.3-4.5,0.5h-0.1c-2.1-0.7-4-1.5-5.9-2.4
		c-0.5-0.2-1-0.5-1.5-0.7c-0.5-0.3-1.1-0.5-1.5-0.8c-0.9-0.5-1.7-0.9-2.5-1.5c-0.5-0.3-1-0.6-1.5-0.9c-0.8-0.5-1.5-1.1-2.3-1.7
		c-0.7-0.5-1.5-1.1-2.1-1.7c-0.4-0.3-0.7-0.7-1.1-1.1c-1.7-1.5-3.1-3.3-4.3-5c-0.3-0.3-0.5-0.7-0.7-1.1c-2.1-3.3-3.5-6.8-4.1-10.5
		c-0.1-0.7-0.2-1.5-0.2-2.3c-0.1-0.4-0.1-0.8-0.1-1.2c0-2.8,0.5-5.6,1.5-8.2c4.4-12.5,18.3-22.1,36.3-25.4c4.1-0.7,8.3-1.1,12.5-1.1
		c1.5,0,3,0.1,4.5,0.1c0.3,0.1,0.5,0.1,0.8,0.1c0.7,0.1,1.3,0.1,2,0.2c0.5,0.1,1.1,0.1,1.7,0.1c0.5,0.1,1.1,0.1,1.6,0.3
		c0.3,0,0.6,0.1,0.9,0.1c0.6,0.1,1.2,0.1,1.8,0.3c0.7,0.1,1.4,0.3,2.1,0.4c0.7,0.1,1.4,0.3,2.1,0.5c0.7,0.2,1.4,0.4,2.1,0.6
		c0.7,0.1,1.3,0.3,2,0.6c1.3,0.4,2.6,0.9,3.9,1.4c1.3,0.5,2.5,1.1,3.7,1.7c1.1,0.5,2.1,1.1,3.1,1.7c0.1,0,0.3,0.1,0.3,0.2
		c-0.7,0.1-1.3,0.3-1.9,0.5c-0.9,0.2-1.7,0.5-2.6,0.7c-2.2,0.7-4.4,1.4-6.5,2.3l-0.1,0.1c-0.7,0.3-1.5,0.6-2.1,0.9
		c-0.7,0.3-1.4,0.7-2.1,1c-1.4,0.7-2.7,1.5-4,2.2c-0.7,0.4-1.3,0.8-1.9,1.3c-0.7,0.4-1.3,0.9-1.9,1.3c-0.6,0.4-1.2,0.8-1.7,1.3
		c-0.5,0.4-1.1,0.9-1.7,1.3c-1.2,1-2.3,2.1-3.4,3.2c-0.4,0.4-0.9,0.9-1.3,1.3c-0.5,0.5-0.9,1.1-1.4,1.6c-0.5,0.6-1,1.3-1.5,1.9
		c-0.3,0.4-0.5,0.7-0.8,1.1c-1.3,1.8-2.4,3.7-3.3,5.6c-0.3,0.6-0.6,1.2-0.9,1.8c0,0.1,0,0.1-0.1,0.1c-0.1,0.4-0.3,0.9-0.5,1.3
		c-0.3,0.8-0.6,1.7-0.9,2.5c-0.3,0.6-0.4,1.3-0.6,1.9c-0.2,0.6-0.3,1.3-0.5,1.9c-0.1,0.7-0.3,1.3-0.4,2.1c-0.1,0.7-0.2,1.3-0.3,2
		c-0.1,1.3-0.2,2.7-0.2,4.1v1.7C137.1,206.4,137.1,206.8,137.1,207.3z M281.3,135.3c0.5,0.6,1.1,1.2,1.6,1.7c0.5,0.6,1,1.1,1.5,1.7
		c0.2,0.3,0.5,0.6,0.7,0.9c0.3,0.5,0.6,0.9,0.9,1.3c0.5,0.6,0.9,1.2,1.3,1.9c0.3,0.5,0.6,0.9,0.9,1.5c0.1,0.1,0.1,0.3,0.2,0.4
		c0.3,0.5,0.6,1,0.8,1.5c0.3,0.4,0.5,0.9,0.6,1.3c0.1,0.2,0.2,0.4,0.3,0.6c0.1,0.2,0.2,0.5,0.3,0.7h-0.1c-0.4,0-0.8,0-1.2,0.1h-0.1
		c-0.9,0.1-1.9,0.1-2.9,0.3c-0.6,0.1-1.2,0.1-1.7,0.3c-0.7,0.1-1.3,0.2-2,0.3c-0.7,0.1-1.3,0.2-1.9,0.3c-1.1,0.3-2.1,0.5-3.1,0.8
		c-0.6,0.1-1.2,0.3-1.8,0.5c-0.3,0.1-0.5,0.1-0.7,0.2c-0.6,0.2-1.2,0.5-1.8,0.7c-0.6,0.2-1.2,0.5-1.8,0.7c-0.8,0.3-1.5,0.6-2.2,0.9
		c-0.1,0-0.1,0.1-0.1,0.1c-0.1,0.1-0.2,0.1-0.3,0.1c-0.7,0.3-1.5,0.7-2.2,1.1c-0.7,0.3-1.5,0.7-2.2,1.2H264
		c-0.7,0.5-1.5,0.9-2.2,1.3c-0.7,0.5-1.4,0.9-2.1,1.5c-0.5,0.3-1,0.7-1.5,1.1c-0.7,0.5-1.3,1-1.9,1.5c-0.8,0.7-1.6,1.4-2.3,2.1
		c-0.5,0.4-0.9,0.9-1.3,1.3c-0.7,0.7-1.3,1.5-2.1,2.3c-0.3,0.5-0.7,0.9-1.1,1.3c-1.1,1.3-2,2.7-2.9,4.1c0,0,0,0.1-0.1,0.1
		c-0.2,0.4-0.5,0.7-0.7,1.1c-0.3,0.5-0.5,1-0.8,1.5c-0.2,0.5-0.5,0.9-0.7,1.3c-0.5,1.1-1.1,2.2-1.5,3.3c-0.9-1.2-1.7-2.3-2.7-3.3
		c-0.8-0.9-1.7-1.9-2.6-2.7c-0.3-0.3-0.5-0.5-0.8-0.8c-0.7-0.7-1.4-1.3-2.2-1.9c-0.7-0.6-1.4-1.1-2.1-1.7c-1.5-1.1-3.1-2.1-4.7-3.1
		c-0.4-0.3-0.9-0.5-1.3-0.7c-1-0.6-2.1-1.2-3.2-1.7c-0.5-0.3-1.1-0.5-1.6-0.8c-0.5-0.3-1.1-0.5-1.7-0.7c-1.1-0.5-2.2-0.9-3.3-1.3
		c-1.2-0.4-2.5-0.8-3.7-1.1c-0.6-0.2-1.2-0.3-1.8-0.5c-0.6-0.1-1.3-0.3-1.9-0.5c-0.6-0.1-1.2-0.3-1.8-0.3c-0.5-0.1-0.9-0.2-1.4-0.3
		c-0.9-0.2-1.8-0.3-2.7-0.5c-0.6-0.1-1.2-0.1-1.8-0.2c-1.2-0.1-2.4-0.2-3.5-0.3c-0.6-0.1-1.1-0.1-1.7-0.1c-0.7-0.1-1.5-0.1-2.2-0.1
		c-0.9,0-1.8,0-2.7,0.1c0-0.1,0-0.3,0.1-0.4c0-0.2,0.1-0.4,0.1-0.5c0.1-0.5,0.2-0.9,0.3-1.3c0.1-0.6,0.3-1.1,0.4-1.7
		c0.1-0.5,0.3-0.9,0.5-1.4v-0.2c0.2-0.5,0.4-1,0.5-1.5c0.2-0.5,0.3-0.9,0.5-1.3c0.2-0.4,0.3-0.7,0.5-1.1c0.2-0.4,0.4-0.8,0.6-1.2
		c0.3-0.5,0.5-1.1,0.9-1.6c0.6-1.3,1.3-2.5,2.2-3.7c0.2-0.4,0.5-0.7,0.7-1.1c0.3-0.5,0.7-0.9,1.1-1.3c0.4-0.5,0.8-1.1,1.3-1.6
		c0.3-0.3,0.7-0.7,1-1.1c1.5-1.7,3.2-3.2,4.9-4.7l0.3-0.2c9.6-7.7,22-11.9,34.9-11.9c14.1,0,27.3,4.9,37.2,13.9
		C280,133.9,280.7,134.6,281.3,135.3z M228.5,291.3c-1.1-0.1-2.2-0.1-3.3-0.2c-1.3-0.1-2.7-0.1-4-0.2c-1.1-0.1-2.3-0.1-3.4-0.2
		l-0.9-0.1c-0.5-0.1-1-0.1-1.5-0.1c-1.5-0.1-3-0.3-4.5-0.4h-0.1c-1.8-0.2-3.5-0.4-5.3-0.6c-2.1-0.2-4.3-0.5-6.4-0.7
		c-0.9-0.1-1.7-0.2-2.5-0.4c-0.6-0.1-1.3-0.1-1.9-0.2c-0.3-0.1-0.7-0.1-1-0.2c-0.9-0.9-1.8-2-2.7-3c-0.4-0.5-0.9-1.1-1.3-1.7
		c-1.1-1.5-2.1-3.1-3-4.7c-0.3-0.6-0.7-1.2-0.9-1.8c-0.4-0.7-0.7-1.5-1-2.3l-0.2-0.4c-1.9-4.8-2.9-9.9-2.9-15c0-0.7,0-1.3,0.1-1.9
		v-0.6c0.1-0.7,0.1-1.5,0.2-2.3v-0.1c0.1-0.2,0.1-0.4,0.1-0.7c0.1-0.6,0.1-1.2,0.3-1.8c0-0.1,0.1-0.2,0.1-0.3
		c0.1-0.2,0.1-0.4,0.1-0.5c0-0.2,0.1-0.4,0.1-0.6c0.1-0.4,0.1-0.7,0.3-1.1l0.1-0.4c0.1-0.1,0.1-0.3,0.1-0.4c0-0.1,0-0.1,0-0.1
		l0.1-0.2c0-0.1,0.1-0.1,0.1-0.2c0.1-0.6,0.3-1.1,0.5-1.7c0.2-0.5,0.3-1,0.5-1.5c0-0.1,0.1-0.2,0.1-0.3c0.1-0.4,0.3-0.9,0.5-1.3
		c0.3-0.7,0.6-1.4,0.9-2.1c0.3-0.8,0.8-1.6,1.2-2.3c0.3-0.6,0.7-1.2,1.1-1.7c0.3-0.5,0.7-1.1,1.1-1.7c0.4-0.5,0.8-1.1,1.2-1.6
		c0.3-0.4,0.6-0.8,0.9-1.2c0.3-0.3,0.6-0.7,0.9-1c0.3-0.3,0.7-0.7,1-1.1c0.3-0.3,0.6-0.7,1-1.1c0.5-0.5,1-1,1.6-1.5
		c0.3-0.3,0.7-0.6,1-0.9c0.7-0.7,1.3-1.2,2.1-1.8c0.7-0.5,1.5-1.1,2.2-1.6c0.2-0.1,0.4-0.3,0.5-0.4c0.8-0.5,1.5-1.1,2.3-1.5
		c1.1-0.7,2.3-1.3,3.5-1.9c0.1-0.1,0.1-0.1,0.2-0.1c0.6-0.3,1.2-0.6,1.8-0.9c0.5-0.3,0.9-0.5,1.4-0.7c0.5-0.2,0.9-0.3,1.3-0.5
		c0.5-0.2,0.9-0.3,1.4-0.5c1.3-0.5,2.6-0.9,3.9-1.3c0.7-0.2,1.4-0.4,2.1-0.5c1.1-0.3,2.3-0.6,3.5-0.8c0.7-0.2,1.5-0.3,2.2-0.4
		c0.5-0.1,1-0.2,1.5-0.3c0.3,0,0.6-0.1,0.9-0.1c0.3-0.1,0.5-0.1,0.8-0.1c0.5-0.1,1.1-0.1,1.7-0.1c0.5-0.1,0.9-0.1,1.4-0.1
		c1.2-0.1,2.4-0.1,3.7-0.1c3.1,0,6.3,0.3,9.4,0.7c0.6,0.1,1.3,0.2,1.9,0.3c0.3,0.1,0.5,0.1,0.7,0.1c0.1,0,0.1,0.1,0.2,0.1
		c0.3,0.1,0.6,0.1,0.9,0.2c1.5,0.3,3.1,0.7,4.5,1.2c0.3,0.1,0.7,0.1,0.9,0.3c0.1,0,0.1,0.1,0.3,0.1c0.3,0.1,0.6,0.2,0.9,0.3
		c0.1,0.1,0.2,0.1,0.3,0.1c0.4,0.1,0.9,0.3,1.3,0.5c1.1,0.4,2.2,0.8,3.3,1.3c0.6,0.3,1.3,0.6,1.9,0.9c0.5,0.2,1,0.5,1.5,0.7
		c0.5,0.3,0.9,0.5,1.4,0.8c0.7,0.3,1.3,0.7,2.1,1.2c0.4,0.3,0.9,0.5,1.3,0.8c0.5,0.3,0.9,0.6,1.3,0.9c0.4,0.3,0.9,0.6,1.3,0.9
		c0.2,0.1,0.4,0.3,0.6,0.5c0.4,0.3,0.7,0.6,1.1,0.9c0.3,0.3,0.7,0.5,1.1,0.9c0,0,0,0,0.1,0l0.3,0.3c0.7,0.7,1.5,1.3,2.1,2
		c0.5,0.5,1.1,1.1,1.6,1.7c0.5,0.5,1.1,1.1,1.5,1.7c0.3,0.3,0.5,0.5,0.7,0.9c0.3,0.3,0.5,0.6,0.7,0.9c0.2,0.2,0.3,0.4,0.5,0.6
		c1.5,2.1,2.7,4.1,3.7,6.2l0.3,0.5c2.7,5.5,4,11.4,4,17.4c0,7-1.8,13.7-5.3,19.9c-0.5,0.8-0.9,1.6-1.5,2.4c-0.3,0.5-0.6,0.9-0.9,1.4
		c-0.3,0.4-0.5,0.8-0.9,1.2c-0.3,0.4-0.6,0.8-0.9,1.2c-0.2,0.3-0.4,0.5-0.7,0.8c-0.5,0.5-0.9,1.1-1.3,1.5c-0.4,0.5-0.9,0.9-1.3,1.3
		c-0.3,0.4-0.7,0.7-1,1h-0.1c-3.4,0.4-6.9,0.7-10.3,0.9c-3.4,0.3-6.8,0.4-10.2,0.5c-1.3,0.1-2.6,0.1-4.1,0.1
		c-1.5,0.1-2.9,0.1-4.4,0.1h-4.6c-2.1,0-4.2,0-6.3-0.1c-1.7,0-3.5-0.1-5.2-0.1H228.5z M364.1,264.5c-1.5,0.8-3.1,1.6-4.7,2.4
		c-0.7,0.4-1.5,0.7-2.3,1.1c-1.1,0.5-2.3,1.1-3.4,1.6c-1.7,0.8-3.5,1.6-5.3,2.3c-1.8,0.7-3.7,1.5-5.5,2.2c-3.7,1.4-7.5,2.7-11.3,3.9
		l-0.3,0.1c-1.2,0.4-2.4,0.8-3.7,1.1c-0.9,0.3-1.8,0.6-2.7,0.8c-1.7,0.5-3.3,1-5,1.4l-1.5,0.4c-0.3,0.1-0.7,0.2-1.1,0.3
		c-1.6,0.4-3.2,0.8-5,1.2l-0.2,0.1c-1.7,0.4-3.6,0.8-5.4,1.2c-0.5,0.1-1.1,0.3-1.6,0.3l-0.5,0.1c-1.8,0.3-3.5,0.7-5.3,1.1
		c-0.9,0.1-1.7,0.3-2.6,0.5l-3.5,0.6c-0.7-0.6-1.3-1.2-2-1.9l-1.6-1.6c-0.3-0.3-0.6-0.6-0.8-0.9c-0.9-1-1.7-2-2.5-3.1
		c-0.1-0.1-0.2-0.3-0.3-0.5c0.3-0.6,0.7-1.3,0.9-1.9c0.3-0.6,0.6-1.2,0.9-1.8c0.4-0.9,0.7-1.9,1.1-2.7c0.1-0.3,0.2-0.6,0.3-0.9
		c0.5-1.3,0.8-2.7,1.1-4.1c0.1-0.5,0.2-1.1,0.3-1.6c0-0.1,0.1-0.2,0-0.3c0.1-0.5,0.2-0.9,0.3-1.4c0-0.1,0.1-0.3,0.1-0.4
		c0.1-0.4,0.1-0.7,0.1-1.1c0.1-0.3,0.1-0.5,0.1-0.8c0.1-0.3,0.1-0.6,0.1-0.9c0.1-0.8,0.1-1.6,0.1-2.5c0-6.5-1.5-12.9-4.5-18.9
		l-0.3-0.6c-0.9-1.8-2-3.6-3.3-5.3v-0.1c0.4-0.7,0.9-1.5,1.4-2.3c0.3-0.5,0.5-0.9,0.9-1.3c0.5-0.8,1.1-1.5,1.7-2.3
		c0.4-0.5,0.8-1,1.3-1.5c0.4-0.5,0.9-1,1.3-1.5c0.5-0.5,0.9-1,1.4-1.5c0.5-0.5,1.1-1.1,1.7-1.6c0.9-0.9,2-1.7,3-2.5
		c0.4-0.3,0.8-0.6,1.2-0.9c0.2-0.1,0.4-0.3,0.7-0.4c0.2-0.2,0.4-0.3,0.6-0.5c0.4-0.3,0.8-0.5,1.2-0.7c0.3-0.2,0.7-0.4,1-0.6
		c0.3-0.3,0.7-0.4,1.1-0.6c0.7-0.5,1.5-0.9,2.3-1.3c0.3-0.2,0.7-0.4,1.1-0.6c0.5-0.2,0.9-0.4,1.3-0.6c7.1-3.1,14.7-4.7,22.7-4.7
		c0.9,0,1.8,0,2.7,0.1c0.9,0.1,1.7,0.1,2.7,0.2c0.7,0.1,1.4,0.1,2.1,0.2c0.8,0.1,1.6,0.3,2.4,0.4c0.4,0.1,0.8,0.1,1.2,0.2
		c0.4,0.1,0.8,0.1,1.1,0.3c0.2,0,0.4,0,0.5,0.1l0.2,0.1l1,0.3c7.9,1.9,15.2,5.7,21.2,10.7l0.4,0.4c0.3,0.3,0.6,0.5,0.9,0.7l0.8,0.8
		c0.1,0.1,0.1,0.1,0.1,0.1c0.5,0.4,0.9,0.9,1.3,1.3l0.2,0.2c0.4,0.5,0.9,0.9,1.3,1.5c0.6,0.7,1.1,1.3,1.7,2c0.5,0.6,1,1.3,1.4,1.9
		c0.4,0.5,0.7,1,1,1.5c0.3,0.3,0.5,0.7,0.7,1c1.1,1.7,2,3.5,2.8,5.3c0.3,0.6,0.5,1.3,0.7,1.9c0.2,0.4,0.3,0.8,0.5,1.3
		c0.1,0,0.1,0.1,0.1,0.1c0.1,0.3,0.3,0.7,0.4,1.1c0.2,0.8,0.5,1.6,0.7,2.4c0.1,0.3,0.1,0.5,0.2,0.9c0,0.1,0.1,0.2,0.1,0.3
		c0.1,0.4,0.2,0.9,0.3,1.3c0.1,0.6,0.2,1.2,0.3,1.8c0.1,0.1,0.1,0.3,0.1,0.5c0.1,0.5,0.1,1.1,0.2,1.7v0.3c0.1,0.2,0.1,0.4,0.1,0.6
		c0.1,0.5,0.1,1.1,0.1,1.6v0.5c-0.5,0.3-1,0.7-1.5,1.1c-0.7,0.5-1.3,0.9-2.1,1.4c-0.8,0.5-1.5,1.1-2.4,1.5v0.1
		c-0.4,0.3-0.9,0.5-1.3,0.8l-0.5,0.3c-0.7,0.5-1.5,0.9-2.3,1.4c-1.2,0.7-2.5,1.5-3.7,2.1C365.9,263.5,365,264,364.1,264.5z"/>
</g>
</svg>
