<?xml version="1.0" encoding="utf-8"?>
<!-- Generator: Adobe Illustrator 23.0.0, SVG Export Plug-In . SVG Version: 6.00 Build 0)  -->
<svg version="1.1" id="Layer_1" xmlns="http://www.w3.org/2000/svg" xmlns:xlink="http://www.w3.org/1999/xlink" x="0px" y="0px"
	 viewBox="0 0 512 512" style="enable-background:new 0 0 512 512;" xml:space="preserve">
<style type="text/css">
	.st0{fill:#EA5C2B;}
	.st1{fill:#FFFFFF;}
</style>
<g>
	<path class="st0" d="M255.5,16.6c32.3,0,63.6,6.3,93,18.8c28.5,12,54,29.3,76,51.2c22,22,39.2,47.5,51.2,76
		c12.5,29.5,18.8,60.8,18.8,93s-6.3,63.6-18.8,93c-12,28.5-29.3,54-51.2,76c-22,22-47.5,39.2-76,51.2c-29.5,12.5-60.8,18.8-93,18.8
		s-63.6-6.3-93-18.8c-28.5-12-54-29.3-76-51.2c-22-22-39.2-47.5-51.2-76c-12.5-29.5-18.8-60.8-18.8-93s6.3-63.6,18.8-93
		c12-28.5,29.3-54,51.2-76c22-22,47.5-39.2,76-51.2C192,22.9,223.3,16.6,255.5,16.6 M255.5,4C116.6,4,3.9,116.6,3.9,255.6
		s112.7,251.6,251.6,251.6s251.6-112.7,251.6-251.6S394.5,4,255.5,4L255.5,4z"/>
</g>
<g>
	<rect x="79.7" y="305.8" class="st0" width="355" height="50.2"/>
	<rect x="79.7" y="255.6" class="st0" width="351.2" height="50.2"/>
	<path class="st1" d="M405.5,270.3c-5.8,0.2-10.4,5.3-10.2,11.4c0.1,1.4,0.4,2.9,1,4.1c1.7,3.8,5.4,6.3,9.7,6.3h0.4
		c5.8-0.2,10.4-5.3,10.2-11.3v-0.1C416.2,274.7,411.2,270,405.5,270.3z M406.1,284.9c-1.8,0-3.4-1.5-3.6-3.6c-0.1-2,1.4-3.8,3.3-3.9
		c0.1,0,0.1,0,0.1,0c1.8,0,3.4,1.6,3.4,3.6C409.4,283,407.9,284.8,406.1,284.9z M104.5,270.3c-5.8,0.2-10.4,5.3-10.2,11.4
		c0.3,5.9,4.9,10.4,10.6,10.4h0.4c5.8-0.2,10.4-5.3,10.2-11.4C115.2,274.7,110.2,270,104.5,270.3z M105,284.9
		c-1.9,0-3.4-1.5-3.6-3.6c-0.1-2,1.4-3.8,3.3-3.9h0.1c1.9,0,3.4,1.6,3.5,3.6C108.4,283,106.9,284.8,105,284.9z"/>
	<g>
		<path class="st1" d="M405.5,270.3c-5.8,0.2-10.4,5.3-10.2,11.4c0.1,1.4,0.4,2.9,1,4.1c1.7,3.8,5.4,6.3,9.7,6.3h0.4
			c5.8-0.2,10.4-5.3,10.2-11.3v-0.1C416.2,274.7,411.2,270,405.5,270.3z M406.1,284.9c-1.8,0-3.4-1.5-3.6-3.6
			c-0.1-2,1.4-3.8,3.3-3.9c0.1,0,0.1,0,0.1,0c1.8,0,3.4,1.6,3.4,3.6C409.4,283,407.9,284.8,406.1,284.9z"/>
	</g>
	<path class="st0" d="M431.2,315.9c2,0,3.6-1.6,3.6-3.6v-59.9h-18.7c2.9-5.4,4.3-11.5,4.3-17.9c0-7.5-2-14.6-5.9-20.8
		c8.2-7.4,13.1-18.1,13.1-29.3c0-21.7-17.7-39.4-39.5-39.4c-14.9,0-28.4,8.4-35.2,21.5c-2,0-4,0-5.8,0.3c-6.9-4.1-14.4-6.6-21.9-7.2
		l-0.4-2.3c-1.1-7.1-7.1-12.2-14.1-12.2c-0.6,0-1.4,0.1-2.2,0.2c-7.8,1.2-13.1,8.5-12,16.3l0.4,2.7c-8.3,3.8-15.8,9.8-21.4,17.3h0
		l-1.9,0.5c-8.1,2.1-15.4,5.9-21.8,11c-4.1-3.7-8.8-6.7-13.7-8.8c10-7.3,16.2-19.2,16.2-31.8c0-6.8-1.8-13.6-5.3-19.7l-1.7-3.1
		l-28,16.2c-10.4,5.9-17.2,16.1-19.1,27.4c-10.5-16.4-33.2-21.2-33.5-21.2c-2-0.4-3.9,0.9-4.2,2.8c-0.4,2,0.9,3.9,2.8,4.2
		c0.4,0.1,27.8,5.8,32.3,26.5c-9-4.5-19.7-5.9-29.4-4.1c-4.3-17.3-19.8-29.5-38.1-29.5c-21.7,0-39.4,17.7-39.4,39.4
		c0,7.8,2.2,15.1,6.4,21.5c-4.2,6.4-6.4,13.8-6.4,21.5c0,6.3,1.5,12.4,4.3,17.9H76.3v107.5h25.1v21.5h214.8c2,0,3.6-1.6,3.6-3.6
		c0-2-1.6-3.6-3.6-3.6H108.6v-14.3h293.8v14.3h-66.1c-2,0-3.6,1.5-3.6,3.6c0,2,1.5,3.6,3.6,3.6h73.2v-21.5h25.1v-37.7
		c0-2-1.6-3.6-3.6-3.6c-2,0-3.6,1.5-3.6,3.6v30.5H83.5v-43h60c2,0,3.6-1.6,3.6-3.6c0-2-1.5-3.6-3.6-3.6h-60v-43h13.6
		c0.8,0,1.5-0.2,2-0.6l0.5,0.6h327.9v52.8C427.6,314.3,429.1,315.9,431.2,315.9z M309.5,152.3c0.4,0,0.9-0.1,1.2-0.1
		c3.5,0,6.5,2.6,7.1,6.2l0.1,0.9h-0.5c-3.2,0.1-6.2,0.5-9.3,1.2c-1.2,0.3-2.4,0.6-3.5,1c-0.3,0-0.5,0.1-0.9,0.2l-0.2-1.1
		C303,156.5,305.7,152.9,309.5,152.3z M222.8,152.1l21.6-12.4c1.8,4.1,2.7,8.5,2.7,12.9c0,11.5-6.2,22.2-16.2,28.1l-1.8,1
		c-3.3-0.6-6.6-1-9.8-1c-1,0-2.1,0.1-3.2,0.1c-0.8,0-1.6,0.2-2.4,0.2c-0.8,0.1-1.6,0.2-2.4,0.4c-1.5,0.3-3.1,0.6-4.6,1.1
		C205.8,170.2,212,158.4,222.8,152.1z M103.3,252.4c-3.6-5.2-5.4-11.4-5.4-17.9c0-7.1,2.2-13.8,6.4-19.3l1.6-2.1l-1.6-2.2
		c-4.2-5.6-6.4-12.3-6.4-19.3c0-17.8,14.5-32.2,32.2-32.2c14.9,0,27.6,9.9,31.2,24.1c-0.1,0.1-0.2,0.1-0.4,0.1
		c-1.1,0.4-2.3,0.9-3.5,1.4c-0.8,0.4-1.5,0.7-2.3,1.1c-1,0.5-2,1-2.9,1.6c-1,0.5-1.9,1.2-2.8,1.9c-1.8,1.1-3.6,2.6-5.2,4.1
		c-0.9,0.8-1.6,1.6-2.5,2.5c-0.8,0.8-1.5,1.7-2.3,2.6c-6.8,7.9-11.1,17.8-12.4,28.2c-0.4,2.4-0.6,4.9-0.6,7.7c0,1.6,0.1,3.1,0.2,4.6
		c0.1,1.2,0.2,2.3,0.4,3.5c0,0.3,0.1,0.5,0.1,0.8c0.1,0.6,0.1,1.1,0.3,1.6c0.2,1.1,0.4,2.1,0.7,3.2c0.3,1.3,0.6,2.5,1,3.9
		c0.1,0.1,0.1,0.4,0.1,0.5H103.3z M233.3,217.6c-4.5,10.9-5.8,22.9-3.5,34.8H137c-0.2-0.6-0.5-1.3-0.6-2c-0.2-0.5-0.3-0.9-0.5-1.3
		c-0.4-1-0.6-2-0.8-3.1c-0.6-2.1-1-4.2-1.1-6.4c-0.2-1.7-0.3-3.3-0.3-5c0-2.4,0.1-4.6,0.5-6.7c1.2-9.2,4.9-17.7,10.8-24.7
		c5.8-6.9,13.3-11.7,21.4-13.8c3.3-0.9,6.7-1.4,10.3-1.4c7.1,0,13.7,1.7,19.7,5.2l1.8,1l0.7-0.4c0.7,0.9,1.7,1.4,2.9,1.4
		c2,0,3.6-1.6,3.6-3.6c0-0.3,0-0.6-0.1-0.9c7-2.8,15.1-3.5,23.7-1.6c6.4,1.5,12.4,4.6,17.5,9c-1.4,1.4-2.7,2.8-4,4.3
		c-3.3,4-6,8.4-8.2,13C233.9,216,233.6,216.8,233.3,217.6z M282.2,239.7c0,0.5,0,0.9-0.1,1.4v0.3c-0.1,0.9-0.2,1.7-0.4,2.5
		c0,0.1,0,0.4-0.1,0.5c0,0.6-0.1,1.2-0.4,1.9c-0.4,2.1-0.9,4.1-1.6,6.1h-22.9c-1.9-14,5.6-30.6,5.7-30.7c0.9-1.8,0-3.9-1.7-4.7
		c-1.8-0.9-3.9-0.1-4.7,1.7c-0.4,0.8-8.2,17.9-6.5,33.8h-12.3c-0.5-2.7-1-5.4-1.1-8.2c-0.1-1.2-0.1-2.5-0.1-3.6
		c0-2.9,0.2-5.7,0.6-8.4c0.3-1.8,0.7-3.7,1.2-5.4c0.3-1,0.5-2,0.9-3c0.2-0.6,0.5-1.3,0.7-1.9c0.3-1,0.8-2,1.2-3
		c0.6-1.3,1.3-2.6,2-3.8c0.6-1.2,1.4-2.4,2.1-3.5c0.5-0.8,1.1-1.6,1.7-2.4c1-1.5,2.3-3,3.6-4.4c0.6-0.7,1.3-1.4,2-2
		c0.7-0.7,1.4-1.5,2.2-2.1c0.1-0.1,0.4-0.3,0.5-0.4l0.5-0.5c0,0,0,0,0.1,0c5-4.3,10.7-7.5,16.8-9.6l8.4,31
		C282.2,227.2,282.7,233.5,282.2,239.7z M287.1,252.4c1.1-3.8,1.9-7.7,2.2-11.6c0.1-0.7,0.2-1.4,0.2-2.1c0.1-1.4,0.1-2.8,0.1-4.2
		c0-1.3-0.1-2.5-0.2-3.8v-0.4c-0.1-1.5-0.4-2.8-0.6-4.2c-0.1-1.2-0.3-2.3-0.5-3.5c-0.3-1.1-0.6-2.3-0.9-3.5l-8.3-30.4
		c5.8-8.7,13.9-15.3,23.2-19c5-2,10.2-3.1,15.5-3.4c1.4,0,2.7,0,4,0.1h0.2c1.5,0,3,0.1,4.4,0.4c3.6,0.5,7,1.4,10.4,2.6
		c-1,0.5-2,0.9-2.9,1.4c-0.8,0.5-1.5,0.8-2.2,1.3c-0.8,0.5-1.6,1-2.4,1.6c-1.5,1.1-3,2.3-4.4,3.6c-0.7,0.6-1.3,1.3-2,2
		c-0.7,0.8-1.4,1.6-1.9,2.4c-0.6,0.7-1.1,1.5-1.6,2.2c-0.5,0.8-1,1.5-1.5,2.4c-1,1.7-1.7,3.4-2.5,5.2c-0.2,0.6-0.4,1.2-0.6,2
		c-0.6,1.8-1.1,3.7-1.5,5.7c-0.1,0.6-0.2,1.1-0.2,1.8c-0.1,0.6-0.2,1.2-0.2,1.9c-0.1,1-0.1,2-0.1,3c0,3.7,0.5,7.4,1.6,11.1
		c-5.7,6.9-8.8,15.7-8.8,24.7c0,1.4,0.1,2.7,0.2,4.1c0,0.9,0.2,1.7,0.4,2.6c0.2,1.4,0.5,2.7,0.9,4.1H287.1z M407.8,252.4h-93.1
		c0-0.3-0.1-0.5-0.2-0.8c-0.6-1.8-1-3.6-1.2-5.4c-0.1-0.5-0.2-1.2-0.2-1.9c-0.1-0.9-0.1-1.8-0.1-2.7c0-7.9,3-15.6,8.2-21.6l1.5-1.5
		l-0.7-2c-1.2-3.5-1.8-7.1-1.8-10.8c0-7.9,2.9-15.3,7.6-20.9c0.6-0.7,1.3-1.5,2-2c4.6-4.7,10.7-7.8,17.5-8.9h0
		c2.2-0.5,5.1-0.5,7.8-0.3l2.6,0.2l1-2.4c5.2-11.8,16.8-19.5,29.6-19.5c17.8,0,32.3,14.5,32.3,32.2c0,10.1-4.8,19.7-12.9,25.8
		l-2.9,2.1l2.1,2.9c4.2,5.6,6.4,12.3,6.4,19.3C413.2,241,411.4,247.2,407.8,252.4z"/>
	<g>
		
			<ellipse transform="matrix(0.9991 -4.187939e-02 4.187939e-02 0.9991 -13.7854 4.6839)" class="st1" cx="104.9" cy="331.4" rx="7" ry="7.3"/>
	</g>
	<g>
		
			<ellipse transform="matrix(0.9991 -4.187939e-02 4.187939e-02 0.9991 -13.5213 17.2907)" class="st1" cx="405.9" cy="331.4" rx="7" ry="7.3"/>
	</g>
	<g>
		<path class="st1" d="M374.5,209.2l-0.1,0.1h-0.6C374,209.4,374.3,209.4,374.5,209.2z"/>
	</g>
	<g>
		<path class="st1" d="M374.5,209.2l-0.1,0.1h-0.6C374,209.4,374.3,209.4,374.5,209.2z"/>
	</g>
	<g>
		<path class="st0" d="M398.9,205.8c0,2-1.6,3.6-3.6,3.6h-20.9l0.1-0.1c-0.2,0.1-0.5,0.1-0.7,0.1h0.6l-14.1,17.9h21.5
			c2,0,3.6,1.6,3.6,3.6c0,2-1.6,3.6-3.6,3.6h-25.9c-0.4,0-0.8-0.1-1.1-0.2l-10.4,13.2c-0.7,0.9-1.7,1.4-2.8,1.4
			c-0.8,0-1.6-0.3-2.2-0.8c-1.6-1.2-1.8-3.4-0.6-5l10.7-13.5c-0.4-0.6-0.7-1.4-0.7-2.2v-21.5c0-2,1.6-3.6,3.6-3.6s3.6,1.6,3.6,3.6
			v15.5l13.6-17.2l-6.2-18.6c-0.6-1.9,0.4-3.9,2.2-4.5c1.9-0.6,3.9,0.4,4.5,2.2l4.7,14.3l17.8-22.5c1.2-1.6,3.4-1.8,5-0.6
			c1.6,1.2,1.8,3.4,0.6,5l-18.1,22.9h15.3C397.3,202.2,398.9,203.8,398.9,205.8z"/>
	</g>
	<g>
		<path class="st1" d="M254,200.6c-0.8,0.6-1.5,1.4-2.2,2.1C252.6,202,253.3,201.3,254,200.6l0.6-0.4
			C254.4,200.3,254.2,200.5,254,200.6z"/>
	</g>
	<g>
		<path class="st1" d="M136.3,250.4c0.1,0.7,0.4,1.4,0.6,2h0.1C136.8,251.7,136.6,251.1,136.3,250.4z"/>
	</g>
	<g>
		<path class="st1" d="M314.5,251.6c0.1,0.3,0.1,0.5,0.2,0.8h0.1C314.6,252.1,314.5,251.8,314.5,251.6z"/>
	</g>
	<g>
		<path class="st1" d="M322,166.5l4.4,0.4v-0.1C324.9,166.7,323.4,166.6,322,166.5z"/>
	</g>
	<g>
		<path class="st1" d="M434.7,302.5v7.2H164.5c-2.1,0-3.8-1.6-3.8-3.6c0-2,1.7-3.6,3.8-3.6H434.7z"/>
	</g>
	<g>
		<path class="st1" d="M135.1,306.1c0,2-1.6,3.6-3.6,3.6H76.3v-7.2h55.2C133.5,302.5,135.1,304.1,135.1,306.1z"/>
	</g>
</g>
</svg>
