<?xml version="1.0" encoding="utf-8"?>
<!-- Generator: Adobe Illustrator 23.0.0, SVG Export Plug-In . SVG Version: 6.00 Build 0)  -->
<svg version="1.1" id="Layer_1" xmlns="http://www.w3.org/2000/svg" xmlns:xlink="http://www.w3.org/1999/xlink" x="0px" y="0px"
	 viewBox="0 0 512 512" style="enable-background:new 0 0 512 512;" xml:space="preserve">
<style type="text/css">
	.st0{fill:#EA5C2B;}
	.st1{fill:#FFFFFF;}
</style>
<g>
	<path class="st0" d="M254.4,18.3c32.1,0,63.2,6.3,92.5,18.7c28.3,12,53.7,29.1,75.5,50.9c21.8,21.8,39,47.2,50.9,75.5
		c12.4,29.3,18.7,60.4,18.7,92.5s-6.3,63.2-18.7,92.5c-12,28.3-29.1,53.7-50.9,75.5c-21.8,21.8-47.2,39-75.5,50.9
		c-29.3,12.4-60.4,18.7-92.5,18.7s-63.2-6.3-92.5-18.7c-28.3-12-53.7-29.1-75.5-50.9c-21.8-21.8-39-47.2-50.9-75.5
		c-12.4-29.3-18.7-60.4-18.7-92.5s6.3-63.2,18.7-92.5c12-28.3,29.1-53.7,50.9-75.5c21.8-21.8,47.2-39,75.5-50.9
		C191.2,24.6,222.3,18.3,254.4,18.3 M254.4,5.8C116.3,5.8,4.3,117.8,4.3,255.9S116.3,506,254.4,506s250.1-112,250.1-250.1
		S392.5,5.8,254.4,5.8L254.4,5.8z"/>
</g>
<g>
	<g>
		<g>
			<path class="st1" d="M177.8,309.9c-0.1,0-0.1,0.1-0.2,0.1h0.3c0-0.1,0-0.1,0-0.1H177.8z M185.6,304c0.4-0.3,0.8-0.7,1.3-1.1
				l0.3-0.4C186.7,303,186.1,303.5,185.6,304z M211.3,279.8c-1.9,1.8-3.8,3.6-5.5,5.4C207.5,283.5,209.4,281.7,211.3,279.8
				L211.3,279.8z M266.9,222.2c-1.7,1.8-3.3,3.7-5,5.5C263.7,225.9,265.3,224,266.9,222.2C266.9,222.2,266.9,222.2,266.9,222.2z
				 M264.3,219.6c-1.7,1.9-3.4,3.8-5.1,5.6C261,223.3,262.7,221.5,264.3,219.6C264.3,219.6,264.3,219.6,264.3,219.6z"/>
			<path class="st1" d="M464.6,269.6c-0.9-0.8-2.8-2.8-5.3-5.4l-5.5-5.7c-4-4.2-8.7-9.1-14-14.5c-3.1-3.3-6.4-6.7-9.8-10.2
				c-10.1-10.4-21-21.5-30.4-30.8c-3.8-3.8-7.3-7.2-10.4-10.3c-6.5-6.2-11.5-10.8-13.9-12.4c-9.7-6.4-30.4-10.5-48.7-6.4
				c-0.5-0.5-0.8-1.2-1.2-1.7c-5.1-7.1-10.3-11.7-15.4-13.6c-0.4-0.9-1-1.8-1.9-2.5c-4-3.5-13.7-6.6-32.5-10.2
				c-2.3-0.5-4.7-0.9-7.3-1.4l-7.4-1.3c-12.3-2.1-27-4.3-43.6-6.7c-1.9-0.3-4-0.6-6.1-1l-33.3-3.6c-1.8-0.5-13.1-2.9-27.6,11.7
				c-3.6,3.5-11.3,10.8-21.1,20.1l-7.7,7.4c-1.1,1.1-2.3,2.1-3.5,3.3l-1.8,1.7c-1.2,1.1-2.4,2.2-3.6,3.4
				c-22.1,21.2-37.8,36.9-49.4,49.3l-4.7,5.1c-1.7,1.8-3.1,3.5-4.6,5.2c-6.4,7.4-10.4,12.9-11.7,16.3c-0.8,1.8-1.4,3.3-1.6,4.7
				c-0.4,2.1,0,4.1,1.1,6c-0.5,8,3.1,28.5,42.3,58.7c0.3,0.2,10.3,5.1,24.5,11.4c5.5,2.5,11.7,5.2,18.3,8c11.9,5,24.8,10.1,37,14.2
				c6.2,2.1,12.3,3.9,17.8,5.4c7.5,1.8,14.1,3,19.3,3c2.8,0,5.2-0.3,7.1-1.1l0.4-0.2c1.4-1.1,3.2-2.5,5.1-4.2c0.4-0.4,0.7-0.7,1.1-1
				l1.8-1.6c2.4-2.1,5.3-4.8,8.5-7.8c9.6,12.7,23.5,27.5,38,29.8h1.2c20.9-0.4,154.7-14.3,193-44.9l0.5-0.6
				C465.2,319.7,473.1,278.1,464.6,269.6z M394.8,203.4c9.3,9.2,20.2,20.4,30.5,31l-46.4,4.8l14.3-20.2l-36.6-12.3L394.8,203.4z
				 M344.5,210.9c0-0.2-0.1-0.3-0.1-0.4l37,12.3l-12.3,17.3l-6.2,8.8v0.1l-0.5,0.7l-1.8,2.5l-19.1,27.1l-31.9-15.4
				c2-2.4,3.8-4.8,5.6-7c3.5-4.2,6.5-8.3,9.4-12.1c9-12.3,15.6-22.9,19.7-31.6l0.5-1.1L344.5,210.9z M373.2,183.4
				c1.9,1.3,5.9,4.8,11,9.7l-45.8,3.9c-0.2-0.7-0.5-1.3-0.8-2c-0.7-1.6-1.4-3.3-2.1-5c-0.2-0.5-0.5-1.1-0.7-1.6
				c-1.2-2.5-2.5-5-3.8-7.4c-0.2-0.2-0.3-0.4-0.5-0.7c-0.2-0.3-0.4-0.7-0.5-1c-0.4-0.7-0.8-1.3-1.2-2c-0.1-0.1-0.2-0.2-0.2-0.2
				C345.6,173.9,364.6,177.7,373.2,183.4z M309.2,167.6l0.2-0.8c0.5-1.4,0.9-2.7,1.2-3.9c3.8,2.1,7.8,6,11.8,11.5
				c0.4,0.5,0.8,1.1,1.2,1.7l0.6,0.9c2,3.1,4,6.5,5.9,10.2c0.5,1.2,1.1,2.2,1.5,3.4c0.5,1.1,1,2.1,1.5,3.3c0,0.1,0.1,0.2,0.2,0.4
				c0.5,1.2,1,2.5,1.5,3.7c0.2,0.5,0.5,1.1,0.6,1.7l0.1,0.1c0.2,0.7,0.5,1.3,0.7,2c0.4,1.2,0.8,2.4,1.2,3.6c0.3,1.2,0.6,2.2,0.9,3.3
				c0.2,1,0.5,1.8,0.6,2.8c-0.8,1.7-1.6,3.4-2.6,5.2c-2.1,3.8-4.5,7.8-7.4,12.2c-0.7,1-1.3,2.1-2.1,3.1c-2.1,3.1-4.3,6.2-6.7,9.5
				c-1.1,1.3-2.1,2.7-3.1,4.1c-1.4,1.8-2.8,3.7-4.4,5.6c-1.6,2.1-3.4,4.3-5.2,6.5c-0.8,1.1-1.6,2.1-2.5,3.1c0-0.1-0.1-0.2-0.2-0.2
				l-0.8-1.5l-1.3-2.1c-9.1-15.3-18.6-29.7-28-43.2v-0.1c0.1-0.1,0.2-0.2,0.2-0.2c1.9-2.2,3.8-4.4,5.5-6.4c1.9-2.1,3.8-4.4,5.5-6.4
				c0.9-1.1,1.8-2.2,2.6-3.2c0.8-1.1,1.7-2.1,2.5-3.1c1.6-2,3.2-4,4.7-6c0.8-1,1.5-2,2.1-2.9c0.8-0.9,1.4-1.9,2.1-2.8
				c0.7-0.9,1.3-1.8,1.9-2.8c1.3-1.8,2.5-3.5,3.4-5.1c0.5-0.7,0.8-1.3,1.2-1.9C307.5,170.8,308.4,169.2,309.2,167.6z M118.3,202.8
				l40-17.2l0.7-0.2l1.4-0.6l2.8-1.2l3.1-1.4l2.3-1l3.9-1.6l2.8-1.2l40.1-17.2l10,70.2l-48.7,19.5l-1,0.5L147,262.8l-1.7,0.7
				l-23.8,9.5l-1.7-35v-1L118.3,202.8z M138.7,274.2c-4.5,7.6-8.4,15-11.6,22.2c-5.7-1.8-11.4-3.8-17.3-5.7l-6.1-2
				c-1-0.4-2-0.8-3.1-1.1c-2.2-0.8-4.4-1.5-6.6-2.1c-0.8-0.3-1.5-0.5-2.4-0.8c-0.1-0.1-0.2-0.2-0.3-0.2c-0.3-0.1-0.6-0.2-0.9-0.2
				c-0.2-0.1-0.5-0.2-0.8-0.3c5.9-11.5,13.6-23.8,23.2-36.8l1.8,36.5L138.7,274.2z M155.5,268.4l-0.9-0.6l18.1-7.2l-0.2,0.7
				c14.7,4.8,26.9,10.2,36.1,16.1c-0.9,0.8-1.8,1.8-2.8,2.5c-2.6,2.7-5.1,5.1-7.6,7.4c-0.1,0.1-0.2,0.2-0.3,0.3
				c-0.6,0.6-1.2,1.2-1.8,1.8c-0.1,0.1-0.2,0.2-0.2,0.2c-0.3,0.2-0.6,0.5-0.8,0.8l-0.8,0.8c-0.3,0.3-0.7,0.7-1.1,1
				c-0.9,0.8-1.8,1.7-2.6,2.4c-1.1,1.1-2.2,2.1-3.2,3c-0.5,0.5-0.9,0.8-1.3,1.2c-0.5,0.4-0.8,0.8-1.2,1.1l-0.4,0.3
				c-0.9,0.8-1.8,1.6-2.5,2.2c-0.5,0.4-0.8,0.8-1.1,1c-0.4,0.3-0.7,0.6-1.1,0.9c-0.2,0.2-0.5,0.4-0.7,0.5c-0.3,0.3-0.5,0.5-0.8,0.7
				c-0.2,0.1-0.3,0.2-0.4,0.2c-0.1,0.2-0.2,0.2-0.3,0.3c-0.2,0.2-0.4,0.2-0.5,0.3l-0.1,0.1c-0.3,0-0.6,0.1-1,0.2
				c-0.4,0-0.8,0.1-1.2,0.1c-0.8,0.1-1.6,0.1-2.5,0.1c-0.9,0-1.9,0-2.9-0.1c-0.7,0-1.5-0.1-2.1-0.2c-0.2,0-0.5-0.1-0.7-0.1
				c-1-0.2-2-0.2-3.1-0.5H163c-1.2-0.2-2.3-0.4-3.5-0.6c-4.2-0.8-8.7-1.9-13.6-3.2c-0.8-0.2-1.6-0.5-2.4-0.7
				c-1.7-0.5-3.3-0.9-4.9-1.4c-0.2-0.2-0.4-0.5-0.5-0.7C142.6,289.3,148.5,279,155.5,268.4z M187.4,254.7l46.2-18.5l-4.8-33.1
				c13.7,4.9,25.6,10.4,35.5,16.5c0,0,0,0.1,0.1,0.1c-1.7,1.8-3.4,3.7-5.1,5.5c-1.9,2.1-4,4.3-6,6.4c-1.2,1.4-2.5,2.7-3.8,4
				c-0.7,0.7-1.3,1.4-1.9,2.1l-1.2,1.2c-0.2,0.2-0.3,0.3-0.5,0.5c-0.3,0.3-0.6,0.7-0.9,0.9c-0.1,0.1-0.2,0.2-0.2,0.3
				c-0.2,0.2-0.4,0.4-0.6,0.6c-4.4,4.8-9,9.4-13.5,14l-5.1,5.1c-1.5,1.5-2.9,3.1-4.4,4.5c-1.1,1.1-2.1,2.2-3.3,3.3l-1.2,1.2h-0.1
				C208.7,264.1,199,259.2,187.4,254.7z M219.4,271.8c2.9-2.9,5.8-5.8,8.9-8.9c12.5-12.7,15.6-15.9,18.8-19.2
				c0.1-0.2,0.2-0.3,0.3-0.4c0.9-1,1.8-2,2.8-3c0.5-0.5,1-1.1,1.5-1.5c3.5-3.7,6.9-7.4,10.3-11c1.7-1.8,3.3-3.7,5-5.5c0,0,0,0,0.1,0
				c7.8,11.3,15.7,23.5,23.5,36c0.8,1.5,1.7,2.9,2.6,4.4l2.1,3.6c0.5,0.8,1,1.6,1.5,2.5l0.7,1.1l-1.4,1.6
				c-4.1,4.7-8.3,9.5-12.7,14.3c-1.2,1.4-2.5,2.8-3.8,4.1c-3.5,3.9-7.3,7.9-11,12c-1.5,1.5-2.9,3.1-4.4,4.6
				c-0.1,0.2-0.2,0.2-0.3,0.4l-0.1,0.1c-3.6,3.8-7.1,7.4-10.6,10.9c-12.6-17.9-23.9-33.2-33.9-45.8
				C219.3,271.9,219.3,271.9,219.4,271.8z M269.1,306.6c2.4-2.5,4.7-5.1,7-7.5l0.8-0.8c1.2-1.4,2.5-2.7,3.7-4
				c6.1-6.7,12-13.3,17.3-19.6h0.1c3.1,5.7,6.2,12,9,17.6c2.5,4.8,4.7,9.2,6.4,12.4c-2.4,0.5-4.4,1-6.4,1.5
				c-16.9,3.8-30,2.6-38.4,0.8C268.8,306.8,268.9,306.7,269.1,306.6z M271.3,150.6c0.7-0.5,1.3-1,1.9-1.5c0.5,0.2,1.1,0.2,1.6,0.3
				c17.6,3.4,27.5,6.4,30.7,9.4c0.5,0.5,0.8,0.8,1.1,1.3c0,0.2,0.1,0.3,0.2,0.5c0.4,1.3-0.2,2.9-0.9,5.1l-0.2,0.6
				c-0.3,0.7-0.7,1.4-1.1,2.1c-0.3,0.6-0.7,1.2-1.1,1.8c-0.4,0.7-0.8,1.4-1.2,2.1c-1.2,1.8-2.4,3.7-3.8,5.7
				c-0.9,1.3-1.9,2.7-2.9,4.1c-0.7,0.9-1.4,1.8-2.1,2.8c-0.7,0.9-1.5,1.9-2.1,2.9c-0.8,0.8-1.5,1.8-2.1,2.7
				c-1.2,1.5-2.5,3.1-3.8,4.8c-0.1,0.1-0.2,0.2-0.2,0.2c-2.9,3.8-6.1,7.6-9.7,11.4c-1.2,1.4-2.4,2.8-3.6,4.1c0,0.1-0.1,0.2-0.2,0.2
				c0,0,0,0-0.1,0c-12.2-7.7-27.2-14.5-44.8-20.4l-0.5-3.1C237.7,177.8,252.8,165.3,271.3,150.6z M213.3,141.6
				c0.6-0.5,1.3-1.1,1.8-1.7c0.5,0.1,1,0.1,1.5,0.2c15.9,2.3,30,4.4,41.9,6.4c-13.3,10.7-24.6,20-33.8,28l-3.5-23.9l-31.7,13.6
				C199.6,154.5,208.7,145.9,213.3,141.6z M131.7,166.3c9.8-9.3,17.6-16.6,21.2-20.2c9.5-9.5,17.2-11,21.2-11c1.8,0,2.8,0.2,2.9,0.3
				l23.3,2.6c-9.4,8.9-24.5,23.4-37.6,36.7c-11.2-1.6-24.5-3.1-35.6-4.1L131.7,166.3z M115.2,182c0.4-0.4,0.8-0.8,1.2-1.2l2.6,0.2
				c7.3,0.7,16.3,1.5,25.3,2.5l-0.3,0.2L110.6,198l1.5,31c-1.2,1.8-2.9,4.8-3.9,6.1c-13.3-2-29.6-3.8-41.2-5.1
				C78.3,217.9,93.7,202.5,115.2,182z M44.3,260.6c0.2-1.1,0.5-2.2,1.3-3.8c0.9-2.2,3.6-6.7,11.2-15.5c0.3-0.3,0.5-0.6,0.9-1
				c0.5,0.1,1.1,0.1,1.6,0.2c9.8,1,26.7,2.8,41.3,4.8c-8.9,12.4-16.2,24.3-21.7,35.4c-0.4-0.2-0.8-0.2-1.2-0.4
				c-13-3.9-22.1-7.5-27.5-11c-1-0.6-1.8-1.2-2.6-1.9c-1.1-0.9-1.9-1.8-2.5-2.7v-0.1C44.3,263.3,44,262,44.3,260.6z M85.8,321.5
				c-31.8-24.5-39-42.3-40.3-51c0.2,0.2,0.4,0.2,0.5,0.4c0.5,0.3,1,0.7,1.5,1.1c0.1,0.1,0.2,0.2,0.3,0.2c1.5,1,3.2,2,5.3,3.1
				c0.8,0.3,1.5,0.7,2.3,1.1c1.2,0.5,2.5,1.1,3.8,1.6c3.1,1.2,6.5,2.5,10.4,3.8c1.2,0.4,2.3,0.8,3.5,1.2c1.2,0.4,2.4,0.8,3.7,1.1
				l0.6,0.2l1,2.2c3.8,8.5,15.6,27.2,26.5,44.2C97.6,327.1,91,324.1,85.8,321.5z M123.2,338.6c-0.8-1.4-1.8-2.8-2.7-4.2l-1.5-2.5
				c-9-13.9-20.6-31.9-26.8-43.2c1.9,0.6,3.9,1.3,5.8,1.9l1.5,0.5c0.1,0,0.2,0.1,0.2,0.1c0.4,0.2,0.7,0.2,1.1,0.3
				c2.1,0.8,4.4,1.5,6.5,2.2c5.7,1.9,11.3,3.8,16.8,5.6c0.5,0.2,1.1,0.3,1.5,0.5l-0.3,0.6l1.8,2.5c7.4,11,21.6,32.7,33,50.1
				C148.2,348.8,135.4,343.8,123.2,338.6z M206.3,362.1c-5.2,1.9-15.7,0.2-28.6-3.5l-2.8-3.7c-9.8-14.8-23.6-36-33.1-50.2
				c3.9,1.1,7.6,2.1,11.1,2.9c1.2,0.3,2.4,0.5,3.5,0.8c4.6,1,8.7,1.7,12.5,1.8c1.1,0.1,2.1,0.2,3,0.2c1.4,0,2.7-0.1,3.9-0.2
				c0.5,0,0.8-0.1,1.2-0.2c0.1,0,0.2,0,0.2,0c0.1,0,0.2,0,0.2-0.1c0,0,0.1,0,0.2,0h0.2c0.1,0,0.1-0.1,0.2-0.1h0.2c0,0,0,0,0,0.1
				c0.1,0.3,0.2,0.8,0.3,1.2c0.2,0.4,0.2,0.8,0.4,1.3c0.2,0.8,0.5,1.7,0.8,2.6c0.2,0.9,0.6,1.9,0.9,2.9c0.3,0.8,0.6,1.8,0.9,2.7
				c0.1,0.2,0.2,0.3,0.2,0.5c0.4,0.8,0.8,1.8,1.1,2.8c0.1,0.1,0.1,0.2,0.2,0.2c0.5,1,0.8,2,1.4,3.1c0.5,1.1,1,2.1,1.6,3.2
				c0.5,1.1,1.2,2.1,1.8,3.2c0.3,0.6,0.6,1.1,0.9,1.7c1.7,2.8,3.6,5.5,5.8,8.3c0.8,1.1,1.8,2.1,2.7,3.2c0.5,0.5,1,1.1,1.5,1.6
				c1.2,1.3,2.5,2.5,3.9,3.8c0.5,0.6,1.2,1.1,1.8,1.7c0.2,0.2,0.5,0.5,0.7,0.6c0.6,0.5,1.1,1,1.8,1.5c0.5,0.5,1.2,1,1.8,1.5
				c0.6,0.5,1.2,0.9,1.9,1.5C208.4,360.5,207.1,361.5,206.3,362.1z M223.9,346.5l-1.2,1.1c-3.7,3.5-6.8,6.4-9.4,8.7l-0.1,0.1
				c-0.2-0.2-0.5-0.3-0.6-0.5c-2.5-1.7-4.7-3.5-6.8-5.3c-0.9-0.8-1.9-1.8-2.8-2.7c-0.8-0.7-1.5-1.5-2.1-2.2
				c-0.2-0.2-0.3-0.2-0.4-0.4c-0.5-0.5-1-1.1-1.5-1.6c-1.4-1.6-2.7-3.2-3.8-4.9c-0.4-0.5-0.7-0.9-1.1-1.4c-1.9-2.8-3.5-5.5-5-8.4
				c-0.6-1.1-1.1-2.1-1.6-3.1c-0.3-0.6-0.5-1.2-0.8-1.8c-0.4-0.7-0.6-1.4-0.8-2.1c-0.8-1.9-1.5-3.8-2.1-5.6c-0.3-1.1-0.6-2-0.9-3
				c-0.2-0.9-0.5-1.8-0.7-2.7c-0.3-1.1-0.5-2.1-0.8-3.1c0.2-0.2,0.5-0.4,0.7-0.6c0.4-0.3,0.8-0.6,1.4-1.2c0.2-0.1,0.2-0.2,0.4-0.4
				c0.2-0.1,0.3-0.2,0.5-0.4c0.4-0.4,0.8-0.8,1.3-1.2c0.5-0.5,1.1-1,1.6-1.5c0.2-0.2,0.2-0.2,0.4-0.4c0.5-0.5,1.1-1,1.7-1.5
				c0.2-0.1,0.3-0.2,0.5-0.4c1.3-1.1,2.7-2.5,4.1-3.8c0.9-0.8,1.9-1.8,2.9-2.6l1.8-1.7l0.3-0.4l0.3-0.3c0.5-0.4,0.8-0.8,1.3-1.2
				c1.7-1.7,3.5-3.4,5.3-5.1c1.8-1.8,3.6-3.6,5.5-5.4l0.1,0.1c9.9,12.6,21.2,28,33.9,45.9C236,335,228.4,342.3,223.9,346.5z
				 M261.7,376.5c-13.3-3.1-26.6-18.5-34.1-28.4c0.5-0.5,1.1-1,1.6-1.6c1.1-0.9,2.1-2,3.4-3.1c0.2-0.2,0.5-0.4,0.7-0.6
				c1.3-1.3,2.8-2.8,4.3-4.2c0.5-0.4,0.8-0.8,1.2-1.2c1.2-1.2,2.5-2.3,3.7-3.6c1.6-1.5,3.1-3.1,4.9-4.8c2.5-2.5,5.1-5.2,8-8.1
				c2.2-2.3,4.5-4.7,6.9-7.1c-0.8,4.1-1.6,8.8-2.2,14c-0.5,3.9-0.8,8.1-0.9,12.6C258.7,350.9,259.3,363.2,261.7,376.5z M316.9,371.5
				c-22.6,3.1-41.7,4.9-51.4,5.2c-2.8-14.4-3.3-27.7-2.7-39.1c0.2-1.8,0.2-3.6,0.4-5.3c0.8-8.4,2.1-15.8,3.5-21.9
				c4.8,1.2,11,2,18.5,2c6.5,0,14.1-0.7,22.5-2.5c2.2-0.5,4.8-1.1,7.5-1.7C317.3,312.1,318.3,334.9,316.9,371.5z M317.4,288.2
				c-0.2-0.2-0.3-0.5-0.5-0.8c-2.5-5-5.3-10.5-8.1-15.6l3.4,1.6l31.7,15.3l23.2-32.9c10.8,13.9,19.4,26.3,22.1,31.8
				c-21.4,4.9-45.9,10.5-64.5,14.7C323.2,299.7,320.4,294.2,317.4,288.2z M391.1,357.6c-20.5,5.1-42.7,9.2-63,12.2
				c1.2-33.5,0.6-55-2-64c18.6-4.1,42.9-9.7,64.1-14.6C391,297.5,391.6,317.6,391.1,357.6z M377.1,250.5l58-6
				c6.1,6.4,11.7,12.1,16,16.6l3.7,3.8c-5.8,11.3-17.1,11.6-17.6,11.6h-0.4c-0.4,0.1-16,3.8-36.7,8.5
				C397.1,277,385.3,261,377.1,250.5z M454.4,332.9c-10.8,8.4-29.9,15.7-52.1,21.9c0.4-35.8,0-58-1.1-66.1c19.6-4.5,34.6-8,36.4-8.4
				c1.8-0.1,13.3-0.8,20-12.4c2.1,2.1,3.7,3.7,4.4,4.4C468,278.3,462.2,316.9,454.4,332.9z"/>
		</g>
	</g>
	<path class="st0" d="M464.6,269.6c-0.9-0.8-2.8-2.8-5.3-5.4l-5.5-5.7c-4-4.2-8.7-9.1-14-14.5c-3.1-3.3-6.4-6.7-9.8-10.2
		c-10.1-10.4-21-21.5-30.4-30.8c-3.8-3.8-7.3-7.2-10.4-10.3c-6.5-6.2-11.5-10.8-13.9-12.4c-9.7-6.4-30.4-10.5-48.7-6.4
		c-0.5-0.5-0.8-1.2-1.2-1.7c-5.1-7.1-10.3-11.7-15.4-13.6c-0.4-0.9-1-1.8-1.9-2.5c-4-3.5-13.7-6.6-32.5-10.2
		c-2.3-0.5-4.7-0.9-7.3-1.4l-7.4-1.3c-12.3-2.1-27-4.3-43.6-6.7c-1.9-0.3-4-0.6-6.1-1l-33.3-3.6c-1.8-0.5-13.1-2.9-27.6,11.7
		c-3.6,3.5-11.3,10.8-21.1,20.1l-7.7,7.4c-1.1,1.1-2.3,2.1-3.5,3.3l-1.8,1.7c-1.2,1.1-2.4,2.2-3.6,3.4
		c-22.1,21.2-37.8,36.9-49.4,49.3l-4.7,5.1c-1.7,1.8-3.1,3.5-4.6,5.2c-6.4,7.4-10.4,12.9-11.7,16.3c-0.8,1.8-1.4,3.3-1.6,4.7
		c-0.4,2.1,0,4.1,1.1,6c-0.5,8,3.1,28.5,42.3,58.7c0.3,0.2,10.3,5.1,24.5,11.4c5.5,2.5,11.7,5.2,18.3,8c11.9,5,24.8,10.1,37,14.2
		c6.2,2.1,12.3,3.9,17.8,5.4c7.5,1.8,14.1,3,19.3,3c2.8,0,5.2-0.3,7.1-1.1l0.4-0.2c1.4-1.1,3.2-2.5,5.1-4.2c0.4-0.4,0.7-0.7,1.1-1
		l1.8-1.6c2.4-2.1,5.3-4.8,8.5-7.8c9.6,12.7,23.5,27.5,38,29.8h1.2c20.9-0.4,154.7-14.3,193-44.9l0.5-0.6
		C465.2,319.7,473.1,278.1,464.6,269.6z M394.8,203.4c9.3,9.2,20.2,20.4,30.5,31l-46.4,4.8l14.3-20.2l-36.6-12.3L394.8,203.4z
		 M373.2,183.4c1.9,1.3,5.9,4.8,11,9.7l-45.8,3.9c-0.2-0.7-0.5-1.3-0.8-2c-0.7-1.6-1.4-3.3-2.1-5c-0.2-0.5-0.5-1.1-0.7-1.6
		c-1.2-2.5-2.5-5-3.8-7.4c-0.2-0.2-0.3-0.4-0.5-0.7c-0.2-0.3-0.4-0.7-0.5-1c-0.4-0.7-0.8-1.3-1.2-2c-0.1-0.1-0.2-0.2-0.2-0.2
		C345.6,173.9,364.6,177.7,373.2,183.4z M309.2,167.6l0.2-0.8c0.5-1.4,0.9-2.7,1.2-3.9c3.8,2.1,7.8,6,11.8,11.5
		c0.4,0.5,0.8,1.1,1.2,1.7l0.6,0.9c2,3.1,4,6.5,5.9,10.2c0.5,1.2,1.1,2.2,1.5,3.4c0.5,1.1,1,2.1,1.5,3.3c0,0.1,0.1,0.2,0.2,0.4
		c0.5,1.2,1,2.5,1.5,3.7c0.2,0.5,0.5,1.1,0.6,1.7l0.1,0.1c0.2,0.7,0.5,1.3,0.7,2c0.4,1.2,0.8,2.4,1.2,3.6c0.3,1.2,0.6,2.2,0.9,3.3
		c0.2,1,0.5,1.8,0.6,2.8c-0.8,1.7-1.6,3.4-2.6,5.2c-2.1,3.8-4.5,7.8-7.4,12.2c-0.7,1-1.3,2.1-2.1,3.1c-2.1,3.1-4.3,6.2-6.7,9.5
		c-1.1,1.3-2.1,2.7-3.1,4.1c-1.4,1.8-2.8,3.7-4.4,5.6c-1.6,2.1-3.4,4.3-5.2,6.5c-0.8,1.1-1.6,2.1-2.5,3.1c0-0.1-0.1-0.2-0.2-0.2
		l-0.8-1.5l-1.3-2.1c-9.1-15.3-18.6-29.7-28-43.2v-0.1c0.1-0.1,0.2-0.2,0.2-0.2c1.9-2.2,3.8-4.4,5.5-6.4c1.9-2.1,3.8-4.4,5.5-6.4
		c0.9-1.1,1.8-2.2,2.6-3.2c0.8-1.1,1.7-2.1,2.5-3.1c1.6-2,3.2-4,4.7-6c0.8-1,1.5-2,2.1-2.9c0.8-0.9,1.4-1.9,2.1-2.8
		c0.7-0.9,1.3-1.8,1.9-2.8c1.3-1.8,2.5-3.5,3.4-5.1c0.5-0.7,0.8-1.3,1.2-1.9C307.5,170.8,308.4,169.2,309.2,167.6z M177.7,305.7
		c-0.1,0.2-0.2,0.2-0.3,0.3c-0.2,0.2-0.4,0.2-0.5,0.3l-0.1,0.1c-0.3,0-0.6,0.1-1,0.2c-0.4,0-0.8,0.1-1.2,0.1
		c-0.8,0.1-1.6,0.1-2.5,0.1c-0.9,0-1.9,0-2.9-0.1c-0.7,0-1.5-0.1-2.1-0.2c-0.2,0-0.5-0.1-0.7-0.1c-1-0.2-2-0.2-3.1-0.5H163
		c-1.2-0.2-2.3-0.4-3.5-0.6c-4.2-0.8-8.7-1.9-13.6-3.2c-0.8-0.2-1.6-0.5-2.4-0.7c-1.7-0.5-3.3-0.9-4.9-1.4c-0.2-0.2-0.4-0.5-0.5-0.7
		c4.5-10,10.4-20.3,17.3-30.9l-0.9-0.6l18.1-7.2l-0.2,0.7c14.7,4.8,26.9,10.2,36.1,16.1c-0.9,0.8-1.8,1.8-2.8,2.5
		c-2.6,2.7-5.1,5.1-7.6,7.4c-0.1,0.1-0.2,0.2-0.3,0.3c-0.6,0.6-1.2,1.2-1.8,1.8c-0.1,0.1-0.2,0.2-0.2,0.2c-0.3,0.2-0.6,0.5-0.8,0.8
		l-0.8,0.8c-0.3,0.3-0.7,0.7-1.1,1c-0.9,0.8-1.8,1.7-2.6,2.4c-1.1,1.1-2.2,2.1-3.2,3c-0.5,0.5-0.9,0.8-1.3,1.2
		c-0.5,0.4-0.8,0.8-1.2,1.1l-0.4,0.3c-0.9,0.8-1.8,1.6-2.5,2.2c-0.5,0.4-0.8,0.8-1.1,1c-0.4,0.3-0.7,0.6-1.1,0.9
		c-0.2,0.2-0.5,0.4-0.7,0.5c-0.3,0.3-0.5,0.5-0.8,0.7C177.9,305.5,177.8,305.6,177.7,305.7z M138.7,274.2c-4.5,7.6-8.4,15-11.6,22.2
		c-5.7-1.8-11.4-3.8-17.3-5.7l-6.1-2c-1-0.4-2-0.8-3.1-1.1c-2.2-0.8-4.4-1.5-6.6-2.1c-0.8-0.3-1.5-0.5-2.4-0.8
		c-0.1-0.1-0.2-0.2-0.3-0.2c-0.3-0.1-0.6-0.2-0.9-0.2c-0.2-0.1-0.5-0.2-0.8-0.3c5.9-11.5,13.6-23.8,23.2-36.8l1.8,36.5L138.7,274.2z
		 M187.4,254.7l46.2-18.5l-4.8-33.1c13.7,4.9,25.6,10.4,35.5,16.5c-1.7,1.9-3.4,3.8-5.1,5.6c-1.9,2.1-4,4.3-6,6.4
		c-1.2,1.4-2.5,2.7-3.8,4c-0.7,0.7-1.3,1.4-1.9,2.1l-1.2,1.2c-0.2,0.2-0.3,0.3-0.5,0.5c-0.3,0.3-0.6,0.7-0.9,0.9
		c-0.1,0.1-0.2,0.2-0.2,0.3c-0.2,0.2-0.4,0.4-0.6,0.6c-4.4,4.8-9,9.4-13.5,14l-5.1,5.1c-1.5,1.5-2.9,3.1-4.4,4.5
		c-1.1,1.1-2.1,2.2-3.3,3.3l-1.2,1.2h-0.1C208.7,264.1,199,259.2,187.4,254.7z M219.4,271.8c2.9-2.9,5.8-5.8,8.9-8.9
		c12.5-12.7,15.6-15.9,18.8-19.2c0.1-0.2,0.2-0.3,0.3-0.4c0.9-1,1.8-2,2.8-3c0.5-0.5,1-1.1,1.5-1.5c3.5-3.7,6.9-7.4,10.3-11
		c1.7-1.8,3.4-3.7,5.1-5.5c7.8,11.3,15.7,23.5,23.5,36c0.8,1.5,1.7,2.9,2.6,4.4l2.1,3.6c0.5,0.8,1,1.6,1.5,2.5l0.7,1.1l-1.4,1.6
		c-4.1,4.7-8.3,9.5-12.7,14.3c-1.2,1.4-2.5,2.8-3.8,4.1c-3.5,3.9-7.3,7.9-11,12c-1.5,1.5-2.9,3.1-4.4,4.6c-0.1,0.2-0.2,0.2-0.3,0.4
		l-0.1,0.1c-3.6,3.8-7.1,7.4-10.6,10.9c-12.6-17.9-23.9-33.2-33.9-45.8C219.3,271.9,219.3,271.9,219.4,271.8z M269.1,306.6
		c2.4-2.5,4.7-5.1,7-7.5l0.8-0.8c1.2-1.4,2.5-2.7,3.7-4c6.1-6.7,12-13.3,17.3-19.6h0.1c3.1,5.7,6.2,12,9,17.6
		c2.5,4.8,4.7,9.2,6.4,12.4c-2.4,0.5-4.4,1-6.4,1.5c-16.9,3.8-30,2.6-38.4,0.8C268.8,306.8,268.9,306.7,269.1,306.6z M271.3,150.6
		c0.7-0.5,1.3-1,1.9-1.5c0.5,0.2,1.1,0.2,1.6,0.3c17.6,3.4,27.5,6.4,30.7,9.4c0.5,0.5,0.8,0.8,1.1,1.3c0,0.2,0.1,0.3,0.2,0.5
		c0.4,1.3-0.2,2.9-0.9,5.1l-0.2,0.6c-0.3,0.7-0.7,1.4-1.1,2.1c-0.3,0.6-0.7,1.2-1.1,1.8c-0.4,0.7-0.8,1.4-1.2,2.1
		c-1.2,1.8-2.4,3.7-3.8,5.7c-0.9,1.3-1.9,2.7-2.9,4.1c-0.7,0.9-1.4,1.8-2.1,2.8c-0.7,0.9-1.5,1.9-2.1,2.9c-0.8,0.8-1.5,1.8-2.1,2.7
		c-1.2,1.5-2.5,3.1-3.8,4.8c-0.1,0.1-0.2,0.2-0.2,0.2c-2.9,3.8-6.1,7.6-9.7,11.4c-1.2,1.4-2.4,2.8-3.6,4.1c0,0.1-0.1,0.2-0.2,0.2
		c0,0,0,0-0.1,0c-12.2-7.7-27.2-14.5-44.8-20.4l-0.5-3.1C237.7,177.8,252.8,165.3,271.3,150.6z M213.3,141.6
		c0.6-0.5,1.3-1.1,1.8-1.7c0.5,0.1,1,0.1,1.5,0.2c15.9,2.3,30,4.4,41.9,6.4c-13.3,10.7-24.6,20-33.8,28l-3.5-23.9l-31.7,13.6
		C199.6,154.5,208.7,145.9,213.3,141.6z M131.7,166.3c9.8-9.3,17.6-16.6,21.2-20.2c9.5-9.5,17.2-11,21.2-11c1.8,0,2.8,0.2,2.9,0.3
		l23.3,2.6c-9.4,8.9-24.5,23.4-37.6,36.7c-11.2-1.6-24.5-3.1-35.6-4.1L131.7,166.3z M115.2,182c0.4-0.4,0.8-0.8,1.2-1.2l2.6,0.2
		c7.3,0.7,16.3,1.5,25.3,2.5l-0.3,0.2L110.6,198l1.5,31c-1.2,1.8-2.9,4.8-3.9,6.1c-13.3-2-29.6-3.8-41.2-5.1
		C78.3,217.9,93.7,202.5,115.2,182z M44.3,260.6c0.2-1.1,0.5-2.2,1.3-3.8c0.9-2.2,3.6-6.7,11.2-15.5c0.3-0.3,0.5-0.6,0.9-1
		c0.5,0.1,1.1,0.1,1.6,0.2c9.8,1,26.7,2.8,41.3,4.8c-8.9,12.4-16.2,24.3-21.7,35.4c-0.4-0.2-0.8-0.2-1.2-0.4
		c-13-3.9-22.1-7.5-27.5-11c-1-0.6-1.8-1.2-2.6-1.9c-1.1-0.9-1.9-1.8-2.5-2.7v-0.1C44.3,263.3,44,262,44.3,260.6z M85.8,321.5
		c-31.8-24.5-39-42.3-40.3-51c0.2,0.2,0.4,0.2,0.5,0.4c0.5,0.3,1,0.7,1.5,1.1c0.1,0.1,0.2,0.2,0.3,0.2c1.5,1,3.2,2,5.3,3.1
		c0.8,0.3,1.5,0.7,2.3,1.1c1.2,0.5,2.5,1.1,3.8,1.6c3.1,1.2,6.5,2.5,10.4,3.8c1.2,0.4,2.3,0.8,3.5,1.2c1.2,0.4,2.4,0.8,3.7,1.1
		l0.6,0.2l1,2.2c3.8,8.5,15.6,27.2,26.5,44.2C97.6,327.1,91,324.1,85.8,321.5z M123.2,338.6c-0.8-1.4-1.8-2.8-2.7-4.2l-1.5-2.5
		c-9-13.9-20.6-31.9-26.8-43.2c1.9,0.6,3.9,1.3,5.8,1.9l1.5,0.5c0.1,0,0.2,0.1,0.2,0.1c0.4,0.2,0.7,0.2,1.1,0.3
		c2.1,0.8,4.4,1.5,6.5,2.2c5.7,1.9,11.3,3.8,16.8,5.6c0.5,0.2,1.1,0.3,1.5,0.5l-0.3,0.6l1.8,2.5c7.4,11,21.6,32.7,33,50.1
		C148.2,348.8,135.4,343.8,123.2,338.6z M206.3,362.1c-5.2,1.9-15.7,0.2-28.6-3.5l-2.8-3.7c-9.8-14.8-23.6-36-33.1-50.2
		c3.9,1.1,7.6,2.1,11.1,2.9c1.2,0.3,2.4,0.5,3.5,0.8c4.6,1,8.7,1.7,12.5,1.8c1.1,0.1,2.1,0.2,3,0.2c1.4,0,2.7-0.1,3.9-0.2
		c0.5,0,0.8-0.1,1.2-0.2c0.1,0,0.2,0,0.2,0c0.1,0,0.2,0,0.2-0.1c0,0,0.1,0,0.2,0h0.5c0.1,0.3,0.2,0.8,0.3,1.2
		c0.2,0.4,0.2,0.8,0.4,1.3c0.2,0.8,0.5,1.7,0.8,2.6c0.2,0.9,0.6,1.9,0.9,2.9c0.3,0.8,0.6,1.8,0.9,2.7c0.1,0.2,0.2,0.3,0.2,0.5
		c0.4,0.8,0.8,1.8,1.1,2.8c0.1,0.1,0.1,0.2,0.2,0.2c0.5,1,0.8,2,1.4,3.1c0.5,1.1,1,2.1,1.6,3.2c0.5,1.1,1.2,2.1,1.8,3.2
		c0.3,0.6,0.6,1.1,0.9,1.7c1.7,2.8,3.6,5.5,5.8,8.3c0.8,1.1,1.8,2.1,2.7,3.2c0.5,0.5,1,1.1,1.5,1.6c1.2,1.3,2.5,2.5,3.9,3.8
		c0.5,0.6,1.2,1.1,1.8,1.7c0.2,0.2,0.5,0.5,0.7,0.6c0.6,0.5,1.1,1,1.8,1.5c0.5,0.5,1.2,1,1.8,1.5c0.6,0.5,1.2,0.9,1.9,1.5
		C208.4,360.5,207.1,361.5,206.3,362.1z M223.9,346.5l-1.2,1.1c-3.7,3.5-6.8,6.4-9.4,8.7l-0.1,0.1c-0.2-0.2-0.5-0.3-0.6-0.5
		c-2.5-1.7-4.7-3.5-6.8-5.3c-0.9-0.8-1.9-1.8-2.8-2.7c-0.8-0.7-1.5-1.5-2.1-2.2c-0.2-0.2-0.3-0.2-0.4-0.4c-0.5-0.5-1-1.1-1.5-1.6
		c-1.4-1.6-2.7-3.2-3.8-4.9c-0.4-0.5-0.7-0.9-1.1-1.4c-1.9-2.8-3.5-5.5-5-8.4c-0.6-1.1-1.1-2.1-1.6-3.1c-0.3-0.6-0.5-1.2-0.8-1.8
		c-0.4-0.7-0.6-1.4-0.8-2.1c-0.8-1.9-1.5-3.8-2.1-5.6c-0.3-1.1-0.6-2-0.9-3c-0.2-0.9-0.5-1.8-0.7-2.7c-0.3-1.1-0.5-2.1-0.8-3.1
		c0.2-0.2,0.5-0.4,0.7-0.6c0.4-0.3,0.8-0.6,1.4-1.2c0.2-0.1,0.2-0.2,0.4-0.4c0.2-0.1,0.3-0.2,0.5-0.4c0.4-0.4,0.8-0.8,1.3-1.2
		c0.4-0.3,0.8-0.7,1.3-1.1l0.3-0.4c0.2-0.2,0.2-0.2,0.4-0.4c0.5-0.5,1.1-1,1.7-1.5c0.2-0.1,0.3-0.2,0.5-0.4c1.3-1.1,2.7-2.5,4.1-3.8
		c0.9-0.8,1.9-1.8,2.9-2.6l1.8-1.7l0.3-0.4l0.3-0.3c0.5-0.4,0.8-0.8,1.3-1.2c1.7-1.7,3.5-3.4,5.3-5.1c1.8-1.7,3.7-3.5,5.6-5.4
		c9.9,12.6,21.2,28,33.9,45.9C236,335,228.4,342.3,223.9,346.5z M261.7,376.5c-13.3-3.1-26.6-18.5-34.1-28.4c0.5-0.5,1.1-1,1.6-1.6
		c1.1-0.9,2.1-2,3.4-3.1c0.2-0.2,0.5-0.4,0.7-0.6c1.3-1.3,2.8-2.8,4.3-4.2c0.5-0.4,0.8-0.8,1.2-1.2c1.2-1.2,2.5-2.3,3.7-3.6
		c1.6-1.5,3.1-3.1,4.9-4.8c2.5-2.5,5.1-5.2,8-8.1c2.2-2.3,4.5-4.7,6.9-7.1c-0.8,4.1-1.6,8.8-2.2,14c-0.5,3.9-0.8,8.1-0.9,12.6
		C258.7,350.9,259.3,363.2,261.7,376.5z M316.9,371.5c-22.6,3.1-41.7,4.9-51.4,5.2c-2.8-14.4-3.3-27.7-2.7-39.1
		c0.2-1.8,0.2-3.6,0.4-5.3c0.8-8.4,2.1-15.8,3.5-21.9c4.8,1.2,11,2,18.5,2c6.5,0,14.1-0.7,22.5-2.5c2.2-0.5,4.8-1.1,7.5-1.7
		C317.3,312.1,318.3,334.9,316.9,371.5z M317.4,288.2c-0.2-0.2-0.3-0.5-0.5-0.8c-2.5-5-5.3-10.5-8.1-15.6l3.4,1.6l31.7,15.3
		l23.2-32.9c10.8,13.9,19.4,26.3,22.1,31.8c-21.4,4.9-45.9,10.5-64.5,14.7C323.2,299.7,320.4,294.2,317.4,288.2z M391.1,357.6
		c-20.5,5.1-42.7,9.2-63,12.2c1.2-33.5,0.6-55-2-64c18.6-4.1,42.9-9.7,64.1-14.6C391,297.5,391.6,317.6,391.1,357.6z M377.1,250.5
		l58-6c6.1,6.4,11.7,12.1,16,16.6l3.7,3.8c-5.8,11.3-17.1,11.6-17.6,11.6h-0.4c-0.4,0.1-16,3.8-36.7,8.5
		C397.1,277,385.3,261,377.1,250.5z M454.4,332.9c-10.8,8.4-29.9,15.7-52.1,21.9c0.4-35.8,0-58-1.1-66.1c19.6-4.5,34.6-8,36.4-8.4
		c1.8-0.1,13.3-0.8,20-12.4c2.1,2.1,3.7,3.7,4.4,4.4C468,278.3,462.2,316.9,454.4,332.9z"/>
</g>
</svg>
