<?xml version="1.0" encoding="utf-8"?>
<!-- Generator: Adobe Illustrator 23.0.0, SVG Export Plug-In . SVG Version: 6.00 Build 0)  -->
<svg version="1.1" id="Layer_1" xmlns="http://www.w3.org/2000/svg" xmlns:xlink="http://www.w3.org/1999/xlink" x="0px" y="0px"
	 viewBox="0 0 512 512" style="enable-background:new 0 0 512 512;" xml:space="preserve">
<style type="text/css">
	.st0{fill:#EA5C2B;}
</style>
<g>
	<path class="st0" d="M255.8,15.1c32.6,0,64.2,6.4,93.9,19c28.7,12.2,54.6,29.6,76.7,51.7c22.2,22.2,39.6,48,51.7,76.7
		c12.6,29.7,19,61.4,19,93.9s-6.4,64.2-19,93.9c-12.2,28.7-29.6,54.6-51.7,76.7c-22.2,22.2-48,39.6-76.7,51.7
		c-29.7,12.6-61.4,19-93.9,19s-64.2-6.4-93.9-19c-28.7-12.2-54.6-29.6-76.7-51.7c-22.2-22.2-39.6-48-51.7-76.7
		c-12.6-29.7-19-61.4-19-93.9s6.4-64.2,19-93.9C45.6,133.8,63,108,85.1,85.8c22.2-22.2,48-39.6,76.7-51.7
		C191.6,21.5,223.2,15.1,255.8,15.1 M255.8,2.4C115.5,2.4,1.7,116.2,1.7,256.5s113.7,254.1,254.1,254.1s254.1-113.7,254.1-254.1
		S396.1,2.4,255.8,2.4L255.8,2.4z"/>
</g>
<g>
	<g>
		<g>
			<path class="st0" d="M401.6,262.1c11.9-8,19.3-21.6,19.3-36.1c0-23.9-19.5-43.4-43.5-43.4c-3.3,0-6.4,0.3-9.4,1.1
				c-4.9-22-31.1-40.6-69.1-48.8c0.3-1.6,0.4-3,0.4-4.6c0-19-19.5-34.6-43.5-34.6c-23.9,0-43.5,15.6-43.5,34.6c0,1.6,0.3,3,0.4,4.6
				c-38.1,8.2-64.1,26.8-69,48.8c-3.1-0.9-6.3-1.1-9.6-1.1c-24,0-43.5,19.5-43.5,43.4c0,14.5,7.6,28,19.3,36.1l-6.7,15.6
				c-4.7,11.4-4.7,24.3,0,36.1c44.1,103.5,51.1,103.5,58.4,103.5H350c7.3,0,14.3,0,58.5-103.5v-0.3c4.6-11.4,4.6-24.3,0-35.9
				L401.6,262.1z M403.6,226c0,7.7-3.6,14.9-9.2,19.7c-1-2.3-2-4.7-3-7.2c-2.1-4.3-4-8.9-6.3-13.5c-1.7-4.2-3.9-8.2-5.7-12.2
				c-1.3-2.7-2.7-5.3-4-8c-0.7-1.4-1.4-3-2.3-4.6C388.5,197.7,403.6,210.3,403.6,226z M255.8,113.1c14.2,0,26,8,26,17.3
				c0,0.6,0,1.1-0.1,1.6c-8.4-1-17.2-1.6-25.9-1.6c-8.7,0-17.3,0.6-25.9,1.6c-0.1-0.4-0.1-1-0.1-1.6
				C229.8,121.1,241.8,113.1,255.8,113.1z M220,151.1l5.7-1c19.5-3,40.6-3,60.1,0l5.7,1c22.6,4.3,41.1,12.9,51.1,22.8H168.9
				C179,164,197.4,155.4,220,151.1z M108.1,226c0-14.3,11.6-26,26-26c1.6,0,3,0.1,4.3,0.4c-0.9,1.6-1.6,3.1-2.4,4.9
				c-2.1,4.4-4.6,9.3-6.9,14.5c-0.6,0.9-1.1,1.9-1.4,2.7c-2.6,5.4-5,10.9-7.4,16.2c-1.1,2.4-2.1,4.9-3.1,7.2
				C111.6,240.9,108.1,233.7,108.1,226z M392.5,306.8c-30.5,71.3-41.4,88.9-45.1,93H164.2c-3.6-4.1-14.6-21.8-45.1-93
				c-2.9-7.3-2.9-15.3,0-22.3l6.7-15.2l3.3-7.7c7.4-17.2,17.5-39.5,25.6-55.2l1.1-1.9c0.9-1.6,1.6-3,2.3-4.2l0.3-0.4l0.9-1.1
				c2.4-4.1,4-6.4,4.9-7.4h183.2c0.7,0.9,2,2.4,3.7,5.3l2,3.3l1.4,2.6c8.7,15.7,20,40.5,28,59.1l3.3,7.7l6.6,14.9
				C395.3,291.5,395.3,299.5,392.5,306.8z"/>
		</g>
	</g>
	<path class="st0" d="M401.6,262.1c11.9-8,19.3-21.6,19.3-36.1c0-23.9-19.5-43.4-43.5-43.4c-3.3,0-6.4,0.3-9.4,1.1
		c-4.9-22-31.1-40.6-69.1-48.8c0.3-1.6,0.4-3,0.4-4.6c0-19-19.5-34.6-43.5-34.6c-23.9,0-43.5,15.6-43.5,34.6c0,1.6,0.3,3,0.4,4.6
		c-38.1,8.2-64.1,26.8-69,48.8c-3.1-0.9-6.3-1.1-9.6-1.1c-24,0-43.5,19.5-43.5,43.4c0,14.5,7.6,28,19.3,36.1l-6.7,15.6
		c-4.7,11.4-4.7,24.3,0,36.1c44.1,103.5,51.1,103.5,58.4,103.5H350c7.3,0,14.3,0,58.5-103.5v-0.3c4.6-11.4,4.6-24.3,0-35.9
		L401.6,262.1z M403.6,226c0,7.7-3.6,14.9-9.2,19.7c-1-2.3-2-4.7-3-7.2c-2.1-4.3-4-8.9-6.3-13.5c-1.7-4.2-3.9-8.2-5.7-12.2
		c-1.3-2.7-2.7-5.3-4-8c-0.7-1.4-1.4-3-2.3-4.6C388.5,197.7,403.6,210.3,403.6,226z M255.8,113.1c14.2,0,26,8,26,17.3
		c0,0.6,0,1.1-0.1,1.6c-8.4-1-17.2-1.6-25.9-1.6c-8.7,0-17.3,0.6-25.9,1.6c-0.1-0.4-0.1-1-0.1-1.6
		C229.8,121.1,241.8,113.1,255.8,113.1z M220,151.1l5.7-1c19.5-3,40.6-3,60.1,0l5.7,1c22.6,4.3,41.1,12.9,51.1,22.8H168.9
		C179,164,197.4,155.4,220,151.1z M108.1,226c0-14.3,11.6-26,26-26c1.6,0,3,0.1,4.3,0.4c-0.9,1.6-1.6,3.1-2.4,4.9
		c-2.1,4.4-4.6,9.3-6.9,14.5c-0.6,0.9-1.1,1.9-1.4,2.7c-2.6,5.4-5,10.9-7.4,16.2c-1.1,2.4-2.1,4.9-3.1,7.2
		C111.6,240.9,108.1,233.7,108.1,226z"/>
</g>
</svg>
