<?xml version="1.0" encoding="iso-8859-1"?>
<!-- Generator: Adobe Illustrator 18.1.1, SVG Export Plug-In . SVG Version: 6.00 Build 0)  -->
<svg version="1.1" id="Capa_1" xmlns="http://www.w3.org/2000/svg" xmlns:xlink="http://www.w3.org/1999/xlink" x="0px" y="0px"
	 viewBox="0 0 35.819 35.819" style="enable-background:new 0 0 35.819 35.819;" xml:space="preserve">
<g>
	<g id="b153_bowl">
		<path d="M15.673,30.713v0.816h10.121v-0.816c5.183-1.85,9.057-6.439,9.864-12.029H5.808C6.617,24.273,10.491,28.863,15.673,30.713
			z"/>
		<path d="M35.819,16.514H5.648c0,0.367,0.018,0.729,0.044,1.088h30.083C35.802,17.242,35.819,16.881,35.819,16.514z"/>
		<path d="M19.137,8.305c-1.275-2.236-2.221-2.217-2.762-1.168L16.91,8.76C16.91,8.76,18.903,10.596,19.137,8.305z"/>
		<path d="M32.881,7.029c-1.338-1.256-0.557,1.422,0,2.16c0.559,0.736-2.98,1.686-3.154-1.723c-0.173-3.404-3.812-3-4.26-0.438
			c-0.027,0.15-0.053,0.297-0.082,0.432c0.561,0.359,0.986,1.055,1.042,2.164c0.128,2.508,2.074,2.654,2.873,2.264
			c0.093,0.199,0.193,0.373,0.284,0.496c0.559,0.738-2.982,1.686-3.157-1.721c-0.056-1.107-0.481-1.807-1.042-2.168
			c-0.645-0.41-1.469-0.363-2.127,0.053c-0.533,0.34-0.956,0.91-1.093,1.678c-0.446,2.564-0.933,2.805-3.011-0.857
			c-0.005-0.012-0.012-0.016-0.018-0.027c-0.233,2.293-2.227,0.455-2.227,0.455l-0.535-1.621c-0.334,0.652-0.513,1.695-0.513,2.846
			c0,3.014-2.249,0.936-2.249,0.936l-0.869-2.627c0,0-0.781-0.658-1.279-0.885c-0.3-0.136-0.493-0.112-0.351,0.31
			c-0.537,0.691-0.607,1.979-0.615,2.516c-0.264-0.193-0.604-0.398-1.043-0.607c-2.424-1.153-2.253,3.009-2.253,3.009l-0.003,1.89
			h24.598l1.6-2.156l0.438-0.594c0,0-2.904-1.34-4.25-2.588c-0.317-0.291-0.512-0.363-0.623-0.301
			c-0.224-0.812-0.19-1.492,0.623-0.736c1.346,1.246,4.056,5.783,4.056,5.783l-0.439,0.592H34.9
			C34.898,15.564,37.334,11.215,32.881,7.029z"/>
		<path d="M22.165,9.189c0.137-0.773,0.56-1.344,1.093-1.676c-0.241-0.371-0.505-0.812-0.806-1.344
			c-2.077-3.661-3.291-1.355-3.291,1.655c0,0.18-0.008,0.334-0.024,0.48c0.006,0.01,0.013,0.016,0.018,0.025
			C21.232,11.992,21.719,11.752,22.165,9.189z"/>
		<path d="M13.613,10.916c0,0,2.249,2.078,2.249-0.932c0-1.152,0.179-2.197,0.513-2.848l-0.33-1.006c0,0-2.599-2.184-1.341,0.039
			c1.263,2.229-0.044,3.447-0.044,3.447s0.518-0.996-1.908-2.15c-0.557-0.262-0.971-0.24-1.287-0.061
			c0.498,0.229,1.279,0.885,1.279,0.885L13.613,10.916z"/>
		<rect x="0" y="5.982" width="14.4" height="3.427"/>
	</g>
	<g id="Capa_1_270_">
	</g>
</g>
<g>
</g>
<g>
</g>
<g>
</g>
<g>
</g>
<g>
</g>
<g>
</g>
<g>
</g>
<g>
</g>
<g>
</g>
<g>
</g>
<g>
</g>
<g>
</g>
<g>
</g>
<g>
</g>
<g>
</g>
</svg>
