<?xml version="1.0" encoding="utf-8"?>
<!-- Generator: Adobe Illustrator 23.0.0, SVG Export Plug-In . SVG Version: 6.00 Build 0)  -->
<svg version="1.1" id="Layer_1" xmlns="http://www.w3.org/2000/svg" xmlns:xlink="http://www.w3.org/1999/xlink" x="0px" y="0px"
	 viewBox="0 0 512 512" style="enable-background:new 0 0 512 512;" xml:space="preserve">
<g>
	<g>
		<path d="M256,473.2c-10.1,0-19.7-3.8-27.1-10.7L54.2,299.4c-29.3-27.3-46.2-66-46.2-106.2v-5.6c0-32.8,11.7-64.6,32.8-89.6
			c21.2-25,50.6-41.7,83-47.1c44.1-7.3,89.3,7.1,120.9,38.7l11.3,11.3l11.3-11.3C298.8,58,344,43.5,388.1,50.9
			c32.3,5.4,61.8,22.1,83,47.1c21.2,25,32.8,56.8,32.8,89.6v5.6c0,40.2-16.8,78.9-46.2,106.2L283.1,462.5
			C275.7,469.4,266.1,473.2,256,473.2z M146.6,50c-7.5,0-15,0.6-22.6,1.9C57.4,63,9,120.1,9,187.6v5.6c0,39.9,16.7,78.4,45.9,105.5
			l0,0l174.7,163.1c7.2,6.7,16.6,10.4,26.4,10.4c9.9,0,19.3-3.7,26.4-10.4l174.7-163.1c29.1-27.1,45.9-65.6,45.9-105.5v-5.6
			c0-67.6-48.4-124.7-115-135.8c-43.8-7.3-88.7,7.1-120,38.4L256,102.2l-11.9-11.9C218.1,64.3,182.8,50,146.6,50z"/>
		<path d="M256,478c-11.3,0-22.1-4.2-30.4-12L50.9,303C20.6,274.8,3.2,234.8,3.2,193.2v-5.6c0-33.9,12.1-66.9,34-92.7
			C59.1,69,89.6,51.7,123.1,46.1c45.6-7.6,92.4,7.4,125.1,40.1L256,94l7.8-7.8c32.7-32.7,79.4-47.7,125.1-40.1
			c33.5,5.6,63.9,22.9,85.9,48.8c21.9,25.9,34,58.8,34,92.7v5.6c0,41.5-17.4,81.5-47.7,109.7L286.4,466
			C278.1,473.8,267.3,478,256,478z M146.6,54.8c-7.3,0-14.6,0.6-21.8,1.8c-64.3,10.7-111,65.8-111,131v5.6
			c0,38.6,16.2,75.7,44.3,102l174.7,163.1c6.3,5.9,14.5,9.1,23.1,9.1s16.9-3.2,23.1-9.1l174.7-163.1c28.2-26.2,44.3-63.4,44.3-102
			v-5.6c0-65.2-46.7-120.3-111-131c-42.2-7-85.5,6.8-115.8,37.1L256,109l-15.4-15.4C215.9,69,181.7,54.8,146.6,54.8z"/>
	</g>
</g>
</svg>
