<?xml version="1.0" encoding="utf-8"?>
<svg version="1.1" id="Layer_1" xmlns="http://www.w3.org/2000/svg" xmlns:xlink="http://www.w3.org/1999/xlink" x="0px" y="0px"
	 viewBox="0 0 512 512" style="enable-background:new 0 0 512 512;" xml:space="preserve">
<style type="text/css">
	.st0{fill:none;stroke:#000000;stroke-width:10;stroke-miterlimit:10;}
</style>
<g>
	<path class="st0" d="M474.5,301.4c4.7,8,9.8,17.9,9.8,27.4c0,16.4-11.3,31-24.4,39c3.3,8,4.7,16.1,4.7,25.9
		c0,21.2-14.6,37.2-33.9,45.6c1.5,2.9,1.5,6.2,1.5,11.3c0,22.6-24.1,48.5-56.5,48.5H238.9c-19.7,0-50.7-6.9-68.2-15.7
		c-4-2.2-8-4-11.7-5.8c1.1-2.9,1.8-6.2,1.8-9.8V238.7c0-9.9-4.7-18.6-11.7-24.1c29.2-25.5,58.7-58,72.6-93.4l16-87.6
		c1.8-4.7,3.3-8,8-11.3c14.6-8,25.9-9.5,40.5-9.5c23,0,48.9,19.3,48.9,113.5c0,24.1-3.3,51.8-11.3,81h108.3
		c37.6,0,64.9,17.9,64.9,51.8C497.1,275.5,487.6,291.6,474.5,301.4z"/>
	<path class="st0" d="M160.8,238.7v229.1c0,3.6-0.7,6.9-1.8,9.8c-4,12.4-16.1,21.5-29.5,21.5H46.2l-31.4-31.4V238.7l31.4-31.4h83.2
		c7.3,0,14.2,2.6,19.7,7.3C156,220.1,160.8,228.8,160.8,238.7z"/>
</g>
</svg>
