<?xml version="1.0" encoding="utf-8"?>
<!-- Generator: Adobe Illustrator 23.0.0, SVG Export Plug-In . SVG Version: 6.00 Build 0)  -->
<svg version="1.1" id="Layer_1" xmlns="http://www.w3.org/2000/svg" xmlns:xlink="http://www.w3.org/1999/xlink" x="0px" y="0px"
	 viewBox="0 0 512 512" style="enable-background:new 0 0 512 512;" xml:space="preserve">
<style type="text/css">
	.st0{fill:#FFFFFF;}
</style>
<g>
	<g>
		<path class="st0" d="M375.7,512H238.9c-21,0-52.6-7.3-70.4-16.2l-0.2-0.1c-2.8-1.5-5.7-2.9-8.5-4.2c-1-0.5-2-1-3-1.5l-4.1-2
			l1.6-4.3c1-2.6,1.5-5.3,1.5-8V246.6c0-7.9-3.6-15.3-9.8-20.2l-4.7-3.7l4.5-4c35.5-31,59.4-61.6,71.1-91l16-87.6l0.2-0.4
			c2-5.2,4-9.5,9.8-13.6l0.5-0.3c15.4-8.5,27.4-10.1,42.9-10.1c35.8,0,53.9,39.9,53.9,118.5c0,24.4-3.4,50.6-9.8,76h101.8
			c20.1,0,37.3,4.9,49.6,14.2c13.3,10.1,20.3,24.8,20.3,42.6c0.1,15.8-7.9,32.1-21,43.5c4.4,8,8.3,17,8.3,26.2
			c0,18.1-11.5,32.6-23.3,41c2.5,7.3,3.6,14.8,3.6,23.9c0,20.1-12.2,37.9-32.8,48.3c0.4,2.5,0.4,5.3,0.4,8.6
			C437.2,483.8,410.9,512,375.7,512z M173,486.9c16.4,8.2,46.5,15.1,65.9,15.1h136.8c29,0,51.5-23.4,51.5-43.5c0-4.9,0-7.3-0.9-9
			l-2.5-4.7l4.9-2.1c19.6-8.5,30.9-23.5,30.9-41c0-9.3-1.3-16.7-4.3-24l-1.6-3.9l3.6-2.2c10.2-6.2,22-19,22-34.7
			c0-8.3-4.9-17.6-9.1-24.9l-2.3-3.9l3.6-2.7c12.5-9.5,20.6-24.5,20.5-38.4c0-29.3-22.4-46.8-59.9-46.8H317.2l1.7-6.3
			c7.3-26.6,11.1-54.1,11.1-79.7c0-41.6-5.1-71.7-15.2-89.6c-7.2-12.7-16.5-18.9-28.7-18.9c-14.1,0-24.3,1.4-37.8,8.7
			c-3.2,2.3-4.2,4.3-5.8,8.4l-16,87.6l-0.2,0.5c-11.7,29.9-35.2,60.7-69.8,91.7c5.9,6.5,9.3,15,9.3,24v229.1c0,2.4-0.3,4.8-0.8,7.1
			C167.6,484.1,170.3,485.4,173,486.9z"/>
	</g>
	<g>
		<path class="st0" d="M129.5,512H44.1L9.8,477.7V244.5l34.3-34.3h85.3c8.4,0,16.5,3,22.9,8.4c8.5,6.8,13.5,17.2,13.5,28v229.1
			c0,3.9-0.7,7.8-2.1,11.5C158.9,501.8,144.9,512,129.5,512z M48.3,502h81.2c11,0,21.4-7.6,24.7-18l0.1-0.2c1-2.6,1.5-5.3,1.5-8
			V246.6c0-7.7-3.7-15.3-9.8-20.2l-0.1-0.1c-4.7-4-10.4-6.1-16.5-6.1H48.3l-28.5,28.5v224.9L48.3,502z"/>
	</g>
</g>
</svg>
