<?xml version="1.0" encoding="utf-8"?>
<!-- Generator: Adobe Illustrator 23.0.0, SVG Export Plug-In . SVG Version: 6.00 Build 0)  -->
<svg version="1.1" id="Layer_1" xmlns="http://www.w3.org/2000/svg" xmlns:xlink="http://www.w3.org/1999/xlink" x="0px" y="0px"
	 viewBox="0 0 576 386" style="enable-background:new 0 0 576 386;" xml:space="preserve">
<style type="text/css">
	.st0{fill:#FFFFFF;}
</style>
<path class="st0" d="M438.5,3h-301c-22.7,0-41,18.4-41,41v301c0,22.7,18.4,41,41,41h117.3V255.8H201v-61.3h53.9v-46.7
	c0-53.1,31.6-82.5,80.1-82.5c23.2,0,47.5,4.1,47.5,4.1v52.2h-26.7c-26.3,0-34.6,16.3-34.6,33.1v39.8H380l-9.4,61.3h-49.4V386h117.3
	c22.7,0,41-18.4,41-41V44C479.5,21.3,461.1,3,438.5,3z"/>
</svg>
