<?xml version="1.0" encoding="utf-8"?>
<!-- Generator: Adobe Illustrator 23.0.0, SVG Export Plug-In . SVG Version: 6.00 Build 0)  -->
<svg version="1.1" id="Layer_1" xmlns="http://www.w3.org/2000/svg" xmlns:xlink="http://www.w3.org/1999/xlink" x="0px" y="0px"
	 viewBox="0 0 576 386" style="enable-background:new 0 0 576 386;" xml:space="preserve">
<style type="text/css">
	.st0{fill:#FFFFFF;}
</style>
<path class="st0" d="M288,148.9c-25.2,0-45.6,20.4-45.6,45.6c0,25.2,20.4,45.6,45.6,45.6c25.2,0,45.6-20.4,45.6-45.6
	C333.6,169.3,313.2,148.9,288,148.9z M394.6,113.8c-4.7-11.9-14.1-21.3-26-26c-18-7.1-60.7-5.5-80.6-5.5c-19.9,0-62.6-1.7-80.6,5.5
	c-11.9,4.7-21.3,14.1-26,26c-7.1,18-5.5,60.7-5.5,80.7s-1.6,62.6,5.5,80.7c4.7,11.9,14.1,21.3,26,26c18,7.1,60.7,5.5,80.6,5.5
	c19.9,0,62.6,1.7,80.6-5.5c11.9-4.7,21.3-14.1,26-26c7.1-18,5.5-60.7,5.5-80.7S401.8,131.8,394.6,113.8L394.6,113.8z M288,264.6
	c-38.7,0-70.1-31.4-70.1-70.1s31.4-70.1,70.1-70.1s70.1,31.4,70.1,70.1c0,38.7-31.3,70.1-69.9,70.1
	C288.1,264.6,288.1,264.6,288,264.6z M361,137.8c-9,0-16.4-7.3-16.4-16.4s7.3-16.4,16.4-16.4c9,0,16.4,7.3,16.4,16.4c0,0,0,0,0,0
	C377.4,130.4,370.1,137.8,361,137.8C361.1,137.8,361.1,137.8,361,137.8L361,137.8z M438.5,3h-301c-22.7,0-41,18.4-41,41v301
	c0,22.7,18.4,41,41,41h301c22.7,0,41-18.4,41-41V44C479.5,21.3,461.1,3,438.5,3z M423.8,250.9c-1.1,21.9-6.1,41.3-22.1,57.3
	c-16,16-35.4,21.1-57.3,22.1c-22.6,1.3-90.3,1.3-112.9,0c-21.9-1.1-41.3-6.1-57.3-22.1c-16-16-21.1-35.4-22.1-57.3
	c-1.3-22.6-1.3-90.3,0-112.9c1.1-21.9,6-41.3,22.1-57.3s35.5-21,57.3-22c22.6-1.3,90.3-1.3,112.9,0c21.9,1.1,41.3,6.1,57.3,22.1
	s21.1,35.4,22.1,57.3C425.1,160.7,425.1,228.3,423.8,250.9z"/>
</svg>
