<?xml version="1.0" encoding="utf-8"?>
<!-- Generator: Adobe Illustrator 23.0.0, SVG Export Plug-In . SVG Version: 6.00 Build 0)  -->
<svg version="1.1" id="Layer_1" xmlns="http://www.w3.org/2000/svg" xmlns:xlink="http://www.w3.org/1999/xlink" x="0px" y="0px"
	 viewBox="0 0 512 512" style="enable-background:new 0 0 512 512;" xml:space="preserve">
<style type="text/css">
	.st0{fill:#E6E6E6;}
</style>
<g>
	<g>
		<path class="st0" d="M283.5,28c-5.1-10.5-15.8-17.2-27.6-17.2c-11.8,0-22.4,6.7-27.6,17.2l-61.6,126.8L29.2,175
			c-11.5,1.7-21.1,9.8-24.6,20.8s-0.7,23.2,7.6,31.3l99.8,98.8L88.4,465.5c-1.9,11.5,2.9,23.2,12.4,30s22,7.7,32.4,2.2L256,432.1
			l122.9,65.6c10.3,5.5,22.9,4.7,32.4-2.2c9.5-6.9,14.3-18.5,12.4-30L400,325.9l99.8-98.8c8.2-8.1,11.2-20.3,7.6-31.3
			c-3.6-11-13.1-19.1-24.6-20.8l-137.7-20.3L283.5,28z"/>
	</g>
</g>
</svg>
