<?xml version="1.0" encoding="utf-8"?>
<!-- Generator: Adobe Illustrator 23.0.0, SVG Export Plug-In . SVG Version: 6.00 Build 0)  -->
<svg version="1.1" id="Layer_1" xmlns="http://www.w3.org/2000/svg" xmlns:xlink="http://www.w3.org/1999/xlink" x="0px" y="0px"
	 viewBox="0 0 338.2 68.6" style="enable-background:new 0 0 338.2 68.6;" xml:space="preserve">
<style type="text/css">
	.st0{fill:#EA5C2B;}
	.st1{fill:#F6D860;}
	.st2{fill:none;}
	.st3{enable-background:new    ;}
</style>
<title>Logo</title>
<g>
	<g>
		<g>
			<g>
				<path class="st0" d="M13.4,53.7L18.8,36h5.4L16,59.5h-5.1L2.8,36h5.4L13.4,53.7z"/>
			</g>
			<g>
				<path class="st0" d="M29.6,59.5h-4.9V36h4.9V59.5z"/>
			</g>
			<g>
				<path class="st0" d="M46.2,49.3h-9.3v6.3h10.9v3.9H32.1V36h15.7v3.9H36.9v5.6h9.3V49.3z"/>
			</g>
			<g>
				<path class="st0" d="M66.8,39.9h-7.2v19.6h-4.9V39.9h-7.1V36h19.2V39.9z"/>
			</g>
			<g>
				<path class="st0" d="M86.7,59.5h-4.9L72.4,44v15.5h-4.9V36h4.9l9.5,15.5V36h4.8C86.7,36,86.7,59.5,86.7,59.5z"/>
			</g>
			<g>
				<path class="st0" d="M102.2,54.7h-8.5l-1.6,4.9h-5.2L95.7,36h4.5l8.8,23.5h-5.2L102.2,54.7z M95,50.8h5.9l-3-8.8L95,50.8z"/>
			</g>
			<g>
				<path class="st0" d="M115.6,36l6,17.1l6-17.1h6.4v23.5h-4.9v-6.4l0.5-11.1l-6.4,17.5h-3.3L113.6,42l0.5,11.1v6.4h-4.9V36H115.6z
					"/>
			</g>
			<g>
				<path class="st0" d="M150.4,49.3h-9.3v6.3H152v3.9h-15.8V36H152v3.9h-10.9v5.6h9.3L150.4,49.3L150.4,49.3z"/>
			</g>
			<g>
				<path class="st0" d="M165.1,53.4c0-0.9-0.3-1.6-1-2.1c-0.6-0.5-1.8-1-3.5-1.6c-1.7-0.5-3-1.1-4-1.6c-2.7-1.4-4-3.4-4-5.8
					c0-1.3,0.4-2.4,1.1-3.4c0.7-1,1.7-1.8,3.1-2.3c1.3-0.6,2.8-0.8,4.5-0.8s3.2,0.3,4.5,0.9c1.3,0.6,2.3,1.5,3.1,2.6
					c0.7,1.1,1.1,2.4,1.1,3.8h-4.9c0-1.1-0.3-1.9-1-2.5s-1.6-0.9-2.9-0.9c-1.2,0-2.1,0.3-2.8,0.8s-1,1.2-1,2s0.4,1.4,1.2,1.9
					s1.9,1,3.4,1.5c2.8,0.8,4.8,1.9,6,3.1s1.9,2.8,1.9,4.6c0,2-0.8,3.6-2.3,4.8s-3.6,1.7-6.2,1.7c-1.8,0-3.5-0.3-4.9-1
					c-1.5-0.7-2.6-1.6-3.4-2.7c-0.8-1.2-1.2-2.5-1.2-4h4.9c0,2.6,1.6,3.9,4.7,3.9c1.2,0,2.1-0.2,2.7-0.7
					C164.8,54.9,165.1,54.2,165.1,53.4z"/>
			</g>
			<g>
				<path class="st0" d="M185.4,49.3h-9.3v6.3H187v3.9h-15.8V36H187v3.9h-10.9v5.6h9.3L185.4,49.3L185.4,49.3z"/>
			</g>
		</g>
		<g>
			<g>
				<path class="st0" d="M273.7,49.9h-9.3v9.6h-4.9V36h15.3v3.9h-10.5V46h9.3v3.9H273.7z"/>
			</g>
			<g>
				<path class="st0" d="M295.1,48.3c0,2.3-0.4,4.3-1.2,6.1c-0.8,1.7-2,3.1-3.5,4s-3.3,1.4-5.2,1.4c-2,0-3.7-0.5-5.2-1.4
					s-2.7-2.3-3.6-4c-0.8-1.7-1.3-3.7-1.3-6v-1.2c0-2.3,0.4-4.4,1.3-6.1c0.8-1.8,2-3.1,3.5-4.1c1.5-0.9,3.3-1.4,5.2-1.4
					c2,0,3.7,0.5,5.2,1.4s2.7,2.3,3.5,4.1s1.3,3.8,1.3,6.1L295.1,48.3L295.1,48.3z M290.2,47.2c0-2.5-0.4-4.3-1.3-5.6
					s-2.1-1.9-3.8-1.9c-1.6,0-2.9,0.6-3.8,1.9c-0.9,1.3-1.3,3.1-1.3,5.6v1.1c0,2.4,0.4,4.3,1.3,5.6s2.2,2,3.8,2
					c1.6,0,2.9-0.6,3.8-1.9c0.9-1.3,1.3-3.1,1.3-5.6V47.2z"/>
			</g>
			<g>
				<path class="st0" d="M315.9,48.3c0,2.3-0.4,4.3-1.2,6.1c-0.8,1.7-2,3.1-3.5,4s-3.3,1.4-5.2,1.4c-2,0-3.7-0.5-5.2-1.4
					s-2.7-2.3-3.6-4c-0.8-1.7-1.3-3.7-1.3-6v-1.2c0-2.3,0.4-4.4,1.3-6.1c0.8-1.8,2-3.1,3.5-4.1c1.5-0.9,3.3-1.4,5.2-1.4
					c2,0,3.7,0.5,5.2,1.4s2.7,2.3,3.5,4.1s1.3,3.8,1.3,6.1L315.9,48.3L315.9,48.3z M311,47.2c0-2.5-0.4-4.3-1.3-5.6
					s-2.1-1.9-3.8-1.9c-1.6,0-2.9,0.6-3.8,1.9c-0.9,1.3-1.3,3.1-1.3,5.6v1.1c0,2.4,0.4,4.3,1.3,5.6s2.2,2,3.8,2
					c1.6,0,2.9-0.6,3.8-1.9c0.9-1.3,1.3-3.1,1.3-5.6V47.2z"/>
			</g>
			<g>
				<path class="st0" d="M317.5,59.5V36h7.2c2.1,0,3.9,0.5,5.6,1.4c1.6,0.9,2.9,2.3,3.8,4s1.4,3.7,1.4,5.9v1.1
					c0,2.2-0.5,4.1-1.4,5.8s-2.2,3-3.8,4c-1.6,0.9-3.5,1.4-5.5,1.4h-7.3V59.5z M322.3,39.9v15.7h2.3c1.9,0,3.3-0.6,4.3-1.9
					c1-1.2,1.5-3,1.5-5.3v-1.2c0-2.4-0.5-4.2-1.5-5.4s-2.4-1.9-4.3-1.9C324.6,39.9,322.3,39.9,322.3,39.9z"/>
			</g>
		</g>
		<g>
			<g>
				<g>
					<path class="st0" d="M239.9,43.7c-2.2-5.7-12.4-9.9-24.4-9.9c-6.3,0-12.2,1.1-16.8,3.2c-4,1.8-6.7,4.2-7.6,6.9l0,0l0,0
						c-0.1,0.4-0.2,0.8-0.3,1.2v0.1v0.1c0.1,1.1,0.2,2.1,0.4,3.2v0.1c2.3,11.3,12.5,19.5,24.1,19.5c11.2,0,20.9-7.5,23.8-18.2
						c0.5-1.9,0.8-3.9,0.8-5.9v-0.1V43.7z M237.1,48c-3.1-2.6-8.7-3.2-14.3-1.4c-5,1.6-8.9,4.7-10.4,8.2c-9.6-0.6-17.6-4.2-19.6-8.8
						v-0.1c-0.2-0.4-0.3-0.8-0.4-1.3c1.1-0.8,2.4-1.5,4-2.1c0.5,2.7,2.4,4.9,5.3,6.3c1.9,0.9,4.2,1.4,6.5,1.4c1.1,0,2.3-0.1,3.5-0.3
						c6.3-1.2,11-5.4,11.5-10.2c6.6,0.7,12.2,2.4,15.6,4.7c-0.1,0.9-0.4,1.9-1,2.8C237.6,47.5,237.4,47.7,237.1,48z M236,49.1
						c-0.1,0.1-0.2,0.2-0.4,0.3c0,0-0.1,0-0.1,0.1c-0.1,0.1-0.2,0.2-0.3,0.2l-0.1,0.1c-0.1,0.1-0.2,0.1-0.3,0.2
						c-0.1,0-0.1,0.1-0.2,0.1c-0.1,0.1-0.2,0.1-0.3,0.2c-0.1,0-0.1,0.1-0.2,0.1c-0.1,0.1-0.2,0.1-0.3,0.2l-0.1,0.1l0,0
						c-1.9-2.1-6.1-2.7-10.2-1.4c-3.4,1.1-6.1,3.3-7.1,5.7c-0.3,0-0.7,0-1.1,0c-0.4,0-0.8,0-1.2,0c-0.1,0-0.2,0-0.3,0s-0.2,0-0.3,0
						c1.5-3,5.1-5.8,9.5-7.2c5.1-1.6,10.4-1.2,13.1,1.1C236.3,48.9,236.2,49,236,49.1C236.1,49,236.1,49.1,236,49.1z M229.1,52.9
						C229.1,52.9,229,52.9,229.1,52.9c-0.3,0.1-0.7,0.2-1,0.3c-0.1,0-0.1,0-0.2,0.1c-0.3,0.1-0.6,0.2-1,0.3c-0.1,0-0.1,0-0.2,0
						c-0.3,0.1-0.7,0.2-1,0.2l0,0c-0.3,0.1-0.7,0.2-1,0.2c-0.1,0-0.1,0-0.2,0c-0.3,0.1-0.7,0.1-1,0.2c-0.1,0-0.1,0-0.2,0
						c-0.3,0.1-0.7,0.1-1.1,0.2c0,0,0,0-0.1,0c-0.4,0.1-0.7,0.1-1.1,0.1h-0.1c0.7-1,2.1-2,3.7-2.5c0.9-0.3,1.8-0.4,2.6-0.4
						c1.1,0,2.2,0.3,2.8,0.8h-0.1C229.7,52.7,229.4,52.8,229.1,52.9z M218.3,54.9c-0.1,0-0.2,0-0.3,0c1-1.9,3.3-3.6,6.1-4.5
						c1.4-0.4,2.8-0.7,4-0.7c2,0,3.7,0.5,4.7,1.5c-0.2,0.1-0.4,0.2-0.6,0.3c-0.1,0-0.1,0.1-0.2,0.1c-0.1,0.1-0.3,0.1-0.5,0.2
						c-0.1,0-0.1,0.1-0.2,0.1c-0.1,0-0.2,0.1-0.2,0.1c-1.3-1.5-4.2-1.9-7-1c-2.3,0.7-4,2.1-4.8,3.7c-0.3,0-0.6,0-0.9,0.1
						C218.5,54.9,218.4,54.9,218.3,54.9z M198.2,41.9c0.2-0.1,0.4-0.1,0.7-0.2c0.1,0,0.2-0.1,0.3-0.1c0.3-0.1,0.6-0.2,0.9-0.3h0.1
						c0.1,0,0.3-0.1,0.4-0.1c0,0.2,0,0.4,0.1,0.6c0.4,1.9,1.7,3.4,3.7,4.4c1.3,0.6,2.8,0.9,4.4,0.9c0.8,0,1.6-0.1,2.3-0.2l0,0
						c4.5-0.9,7.8-4,7.9-7.4h0.1c0.9,0,1.9,0.1,2.8,0.2c0.1,0,0.1,0,0.2,0c-0.5,4.2-4.9,8.1-10.6,9.2c-3.3,0.6-6.6,0.3-9.2-1
						c-2.6-1.2-4.3-3.2-4.7-5.5c0-0.1,0-0.1,0-0.2c0.1,0,0.2-0.1,0.3-0.1C197.9,42,198,42,198.2,41.9z M210.8,45.7
						c-2.2,0.4-4.3,0.2-6-0.6s-2.7-2-3-3.5c0-0.2-0.1-0.4-0.1-0.6h0.1c0.1,0,0.2,0,0.3-0.1c0.1,0,0.3-0.1,0.4-0.1
						c0.1,0,0.2,0,0.3-0.1c0.1,0,0.3-0.1,0.4-0.1c0.1,0,0.1,0,0.2,0c0,0.2,0,0.5,0.1,0.7c0.3,1.3,1.2,2.4,2.6,3
						c0.9,0.4,1.9,0.6,3,0.6c0.5,0,1.1-0.1,1.6-0.2l0,0c3.2-0.6,5.5-3,5.4-5.4c0.4,0,0.8,0,1.3,0l0,0c0.1,0,0.2,0,0.3,0h0.1
						C217.6,42.2,214.7,44.9,210.8,45.7L210.8,45.7z M205.1,40.2c0.2,0,0.4-0.1,0.6-0.1c0.3,0,0.5-0.1,0.8-0.1
						c0.2,0,0.4-0.1,0.5-0.1c0.3,0,0.6-0.1,0.9-0.1c0.1,0,0.3,0,0.4-0.1c0.4-0.1,0.9-0.1,1.3-0.1c0.1,0,0.1,0,0.2,0
						c0.4,0,0.8-0.1,1.1-0.1c0.1,0,0.1,0,0.2,0c0.1,0,0.2,0,0.3,0c0.3,0,0.6,0,0.9-0.1c0.1,0,0.2,0,0.2,0c0.1,0,0.2,0,0.4,0
						c0.3,0,0.5,0,0.8,0c0.1,0,0.1,0,0.2,0c0.2,0,0.3,0,0.5,0s0.4,0,0.5,0c0.1,1.9-1.8,3.7-4.5,4.2c-1.4,0.3-2.8,0.1-3.9-0.4
						c-1.1-0.5-1.7-1.3-1.9-2.2c0-0.2-0.1-0.4,0-0.7C204.7,40.3,204.9,40.3,205.1,40.2z M215.6,35c10.3,0,19.3,3.1,22.4,7.6
						c-3.6-1.9-8.8-3.4-14.8-4l0,0l-0.5-0.1l0,0c-0.5-0.1-1-0.1-1.5-0.1c-0.1,0-0.2,0-0.3,0c-0.7,0-1.4-0.1-2.1-0.1l0,0h-0.5
						c-0.2,0-0.4,0-0.5,0s-0.2,0-0.4,0c-0.5,0-1.1,0-1.6,0l0,0l0,0h-0.5c-0.1,0-0.2,0-0.3,0c-0.3,0-0.6,0-1,0c-0.1,0-0.2,0-0.2,0
						c-0.1,0-0.2,0-0.3,0c-0.3,0-0.6,0-0.9,0c-0.2,0-0.4,0-0.6,0c-0.3,0-0.6,0-0.9,0.1c-0.2,0-0.4,0-0.5,0c-0.3,0-0.6,0-0.9,0.1
						c-0.1,0-0.3,0-0.4,0c-2,0.2-3.9,0.5-5.8,0.8h-0.1l0,0c-1,0.2-2,0.4-2.9,0.7h-0.1l0,0c-0.2,0.1-0.5,0.1-0.7,0.2l0,0
						c-0.3,0.1-0.7,0.2-1,0.3h-0.1c-0.3,0.1-0.6,0.2-0.9,0.3c-0.1,0-0.1,0-0.2,0.1c-0.3,0.1-0.7,0.2-1,0.4l-0.4,0.2l0,0
						c-1.3,0.5-2.4,1.1-3.4,1.6C195.7,38.4,204.9,35,215.6,35z M215.4,66.8c-11.1,0-20.7-7.8-22.9-18.5v-0.1c0-0.2-0.1-0.4-0.1-0.6
						c2.8,4.4,10.4,7.7,19.7,8.3l0,0h0.8c0.9,0.1,1.8,0.1,2.8,0.1c0.2,0,0.4,0,0.7,0l0,0h0.8c0.7,0,1.3-0.1,2-0.1l0,0L220,56
						c0.8-0.1,1.6-0.2,2.3-0.3c3.3-0.5,6.4-1.3,9-2.4L232,53l0,0c0.7-0.3,1.4-0.7,2.1-1.1l0,0l0.5-0.3l0,0c0.3-0.2,0.5-0.4,0.8-0.5
						c0.7-0.5,1.3-1,1.8-1.5c0.1-0.1,0.2-0.2,0.4-0.4l0,0l0.4-0.4l0,0c0.1-0.1,0.2-0.3,0.3-0.4c-0.1,0.4-0.2,0.8-0.3,1.2
						C235.3,59.7,226,66.8,215.4,66.8z"/>
				</g>
			</g>
			<g>
				<g>
					<g>
						<path class="st1" d="M253.2,57.1l1.8-29l-29-1.8C225,42.4,237.2,56.2,253.2,57.1z"/>
					</g>
				</g>
			</g>
			<g>
				<g>
					<path class="st0" d="M225.4,25.7v0.6c-1,16.3,11.5,30.4,27.8,31.4h0.6l1.8-30.2L225.4,25.7z M252.4,29.6l-19.1,16.9
						c-2.1-2.5-3.8-5.4-5-8.5L252.4,29.6z M226.5,27l25.5,1.5l-24.2,8.4C226.9,33.8,226.4,30.4,226.5,27z M234,47.4l19.1-17
						l-11.1,23C239,52,236.3,49.9,234,47.4z M252.7,56.5c-3.4-0.3-6.6-1.1-9.6-2.5l11.1-23L252.7,56.5z"/>
				</g>
			</g>
			<g>
				<g>
					<path class="st0" d="M198.1,31.5L239.7,1c1.1-0.8,2.6-0.6,3.4,0.5c0.8,1.1,0.6,2.6-0.5,3.4L242.5,5l-43.7,27.5
						c-0.3,0.2-0.6,0.1-0.8-0.2C197.8,32.1,197.8,31.7,198.1,31.5z"/>
				</g>
			</g>
			<g>
				<g>
					<line class="st2" x1="198.5" y1="34.4" x2="245.3" y2="12.7"/>
				</g>
				<g>
					<g>
						<path class="st0" d="M198.2,33.8l46-23.3c1.2-0.6,2.6-0.1,3.2,1.1c0.6,1.2,0.1,2.6-1.1,3.2c0,0-0.1,0.1-0.2,0.1l-47.6,20
							c-0.3,0.1-0.6,0-0.8-0.3C197.8,34.3,197.9,34,198.2,33.8z"/>
					</g>
				</g>
			</g>
		</g>
	</g>
	<g class="st3">
		<path class="st0" d="M12.8,18.8h-4v11.1H7.1V18.8h-4v-1.3h9.6V18.8z"/>
		<path class="st0" d="M14.4,18.2c0-0.3,0.1-0.5,0.2-0.6c0.2-0.2,0.4-0.3,0.7-0.3s0.5,0.1,0.7,0.3c0.2,0.2,0.2,0.4,0.2,0.6
			c0,0.3-0.1,0.5-0.2,0.6c-0.2,0.2-0.4,0.3-0.7,0.3s-0.5-0.1-0.7-0.3C14.4,18.7,14.4,18.5,14.4,18.2z M16.1,29.9h-1.6v-9.2h1.6V29.9
			z"/>
		<path class="st0" d="M20.1,20.7l0.1,1.2c0.7-0.9,1.6-1.3,2.8-1.3c1.9,0,2.9,1.1,2.9,3.3v6.1h-1.6v-6.1c0-0.7-0.2-1.2-0.5-1.5
			s-0.8-0.5-1.4-0.5c-0.5,0-1,0.1-1.3,0.4s-0.7,0.6-0.9,1.1v6.6h-1.6v-9.2H20.1z"/>
		<path class="st0" d="M29.8,21.8c0.7-0.9,1.6-1.3,2.7-1.3c1.9,0,2.9,1.1,2.9,3.3v6.1h-1.6v-6.1c0-0.7-0.2-1.2-0.5-1.5
			s-0.8-0.5-1.4-0.5c-0.5,0-1,0.1-1.3,0.4s-0.7,0.6-0.9,1.1v6.6h-1.6V16.8h1.6V21.8z"/>
		<path class="st0" d="M43.7,21.8c0.7-0.9,1.6-1.3,2.7-1.3c1.9,0,2.9,1.1,2.9,3.3v6.1h-1.6v-6.1c0-0.7-0.2-1.2-0.5-1.5
			s-0.8-0.5-1.4-0.5c-0.5,0-1,0.1-1.3,0.4s-0.7,0.6-0.9,1.1v6.6h-1.6V16.8h1.6V21.8z"/>
		<path class="st0" d="M51.3,25.2c0-0.9,0.2-1.7,0.5-2.4c0.4-0.7,0.8-1.3,1.5-1.7c0.6-0.4,1.4-0.6,2.2-0.6c1.3,0,2.3,0.4,3,1.3
			s1.2,2,1.2,3.5v0.1c0,0.9-0.2,1.7-0.5,2.4c-0.3,0.7-0.8,1.3-1.5,1.7c-0.6,0.4-1.4,0.6-2.2,0.6c-1.3,0-2.3-0.4-3-1.3
			c-0.8-0.9-1.2-2-1.2-3.5V25.2z M52.9,25.4c0,1,0.2,1.8,0.7,2.5s1.1,0.9,1.9,0.9c0.8,0,1.4-0.3,1.9-0.9c0.5-0.6,0.7-1.5,0.7-2.6
			c0-1-0.2-1.8-0.7-2.5s-1.1-0.9-1.9-0.9c-0.8,0-1.4,0.3-1.9,0.9S52.9,24.2,52.9,25.4z"/>
		<path class="st0" d="M67.4,29.9c-0.1-0.2-0.2-0.5-0.2-1c-0.7,0.8-1.6,1.1-2.6,1.1c-0.9,0-1.7-0.3-2.2-0.8c-0.6-0.5-0.9-1.2-0.9-2
			c0-1,0.4-1.7,1.1-2.2c0.7-0.5,1.8-0.8,3.1-0.8h1.5v-0.7c0-0.6-0.2-1-0.5-1.3c-0.3-0.3-0.8-0.5-1.5-0.5c-0.6,0-1,0.1-1.4,0.4
			c-0.4,0.3-0.6,0.6-0.6,1h-1.6c0-0.5,0.2-0.9,0.5-1.3c0.3-0.4,0.8-0.8,1.3-1s1.2-0.4,1.8-0.4c1.1,0,1.9,0.3,2.5,0.8
			s0.9,1.3,0.9,2.2v4.2c0,0.8,0.1,1.5,0.3,2v0.1H67.4z M64.8,28.7c0.5,0,1-0.1,1.4-0.4c0.4-0.3,0.8-0.6,1-1v-1.9h-1.2
			C64,25.4,63,26,63,27.1c0,0.5,0.2,0.9,0.5,1.2C63.9,28.6,64.3,28.7,64.8,28.7z"/>
		<path class="st0" d="M81.2,29.9c-0.1-0.2-0.2-0.5-0.2-1c-0.7,0.8-1.6,1.1-2.6,1.1c-0.9,0-1.7-0.3-2.2-0.8c-0.6-0.5-0.9-1.2-0.9-2
			c0-1,0.4-1.7,1.1-2.2c0.7-0.5,1.8-0.8,3.1-0.8H81v-0.7c0-0.6-0.2-1-0.5-1.3c-0.3-0.3-0.8-0.5-1.5-0.5c-0.6,0-1,0.1-1.4,0.4
			c-0.4,0.3-0.6,0.6-0.6,1h-1.6c0-0.5,0.2-0.9,0.5-1.3c0.3-0.4,0.8-0.8,1.3-1s1.2-0.4,1.8-0.4c1.1,0,1.9,0.3,2.5,0.8
			s0.9,1.3,0.9,2.2v4.2c0,0.8,0.1,1.5,0.3,2v0.1H81.2z M82.4,19.5l-1.4,0l-1.7-1.6l-1.7,1.6l-1.4,0l2.3-2.2h1.6L82.4,19.5z
			 M78.6,28.7c0.5,0,1-0.1,1.4-0.4c0.4-0.3,0.8-0.6,1-1v-1.9h-1.2c-1.9,0-2.9,0.6-2.9,1.7c0,0.5,0.2,0.9,0.5,1.2
			C77.7,28.6,78.1,28.7,78.6,28.7z M81.7,18.3l0-1.1c0.4,0,0.6-0.1,0.8-0.1c0.2-0.1,0.3-0.2,0.3-0.4c0-0.4-0.4-0.6-1.2-0.6l0-0.8
			c0.7,0,1.3,0.1,1.7,0.4c0.4,0.3,0.6,0.6,0.6,1c0,0.3-0.1,0.6-0.3,0.8c-0.2,0.2-0.5,0.3-0.8,0.3l0,0.5H81.7z"/>
		<path class="st0" d="M86.5,20.7l0,1c0.7-0.8,1.6-1.2,2.7-1.2c1.3,0,2.2,0.5,2.6,1.5c0.3-0.4,0.7-0.8,1.2-1.1s1.1-0.4,1.7-0.4
			c2,0,3.1,1.1,3.1,3.2v6.2h-1.6v-6.1c0-0.7-0.2-1.2-0.5-1.5c-0.3-0.3-0.8-0.5-1.5-0.5c-0.6,0-1.1,0.2-1.5,0.5s-0.6,0.8-0.7,1.4v6.1
			h-1.6v-6c0-1.3-0.7-2-2-2c-1,0-1.7,0.4-2.1,1.3v6.7H85v-9.2H86.5z"/>
		<path class="st0" d="M106.8,18.5v2.2h1.7v1.2h-1.7v5.7c0,0.4,0.1,0.6,0.2,0.8c0.2,0.2,0.4,0.3,0.8,0.3c0.2,0,0.4,0,0.8-0.1v1.3
			c-0.4,0.1-0.8,0.2-1.2,0.2c-0.7,0-1.2-0.2-1.6-0.6s-0.5-1-0.5-1.8v-5.7h-1.7v-1.2h1.7v-2.2H106.8z"/>
		<path class="st0" d="M111.9,21.8c0.7-0.9,1.6-1.3,2.7-1.3c1.9,0,2.9,1.1,2.9,3.3v6.1H116v-6.1c0-0.7-0.2-1.2-0.5-1.5
			s-0.8-0.5-1.4-0.5c-0.5,0-1,0.1-1.3,0.4s-0.7,0.6-0.9,1.1v6.6h-1.6V16.8h1.6V21.8z"/>
		<path class="st0" d="M129.8,20c0,1-0.2,1.7-0.6,2.2c-0.4,0.4-1.1,0.6-2,0.7v7.1h-1.5l0-0.9c-0.6,0.7-1.5,1.1-2.7,1.1
			c-1,0-1.7-0.3-2.2-0.9c-0.5-0.6-0.8-1.4-0.8-2.5v-6h1.6v6c0,1.4,0.6,2.1,1.7,2.1c1.2,0,2-0.4,2.4-1.3v-6.7h1.6v1.1
			c0.4,0,0.7-0.1,0.9-0.2c0.2-0.1,0.3-0.3,0.4-0.5s0.1-0.6,0.1-1.2H129.8z M122.6,32c0-0.3,0.1-0.5,0.2-0.6c0.2-0.2,0.4-0.3,0.7-0.3
			s0.5,0.1,0.7,0.3c0.2,0.2,0.2,0.4,0.2,0.6s-0.1,0.5-0.2,0.6c-0.2,0.2-0.4,0.3-0.7,0.3s-0.5-0.1-0.7-0.3
			C122.6,32.5,122.6,32.3,122.6,32z"/>
		<path class="st0" d="M134.4,28.8c0.6,0,1.1-0.2,1.5-0.5s0.7-0.8,0.7-1.3h1.5c0,0.5-0.2,1-0.5,1.5s-0.8,0.9-1.3,1.1
			c-0.6,0.3-1.2,0.4-1.8,0.4c-1.3,0-2.3-0.4-3-1.3c-0.7-0.8-1.1-2-1.1-3.4v-0.3c0-0.9,0.2-1.7,0.5-2.4c0.3-0.7,0.8-1.2,1.4-1.6
			c0.6-0.4,1.3-0.6,2.2-0.6c1,0,1.9,0.3,2.6,0.9c0.7,0.6,1,1.4,1.1,2.4h-1.5c0-0.6-0.3-1.1-0.7-1.5c-0.4-0.4-0.9-0.6-1.5-0.6
			c-0.8,0-1.4,0.3-1.9,0.9c-0.4,0.6-0.7,1.4-0.7,2.5v0.3c0,1.1,0.2,1.9,0.7,2.5C133,28.5,133.6,28.8,134.4,28.8z"/>
		<path class="st0" d="M148.6,27.7l3.5-10.2h1.8l-4.6,12.4h-1.4l-4.6-12.4h1.8L148.6,27.7z"/>
		<path class="st0" d="M155.3,18.2c0-0.3,0.1-0.5,0.2-0.6c0.2-0.2,0.4-0.3,0.7-0.3s0.5,0.1,0.7,0.3c0.2,0.2,0.2,0.4,0.2,0.6
			c0,0.3-0.1,0.5-0.2,0.6c-0.2,0.2-0.4,0.3-0.7,0.3s-0.5-0.1-0.7-0.3C155.4,18.7,155.3,18.5,155.3,18.2z M157,29.9h-1.6v-9.2h1.6
			V29.9z"/>
		<path class="st0" d="M163.4,30.1c-1.3,0-2.3-0.4-3.1-1.2c-0.8-0.8-1.2-1.9-1.2-3.3v-0.3c0-0.9,0.2-1.7,0.5-2.5
			c0.3-0.7,0.8-1.3,1.5-1.7c0.6-0.4,1.3-0.6,2-0.6c1.2,0,2.1,0.4,2.8,1.2c0.7,0.8,1,1.9,1,3.4v0.7h-6.2c0,0.9,0.3,1.6,0.8,2.2
			c0.5,0.6,1.2,0.8,1.9,0.8c0.6,0,1-0.1,1.4-0.3s0.7-0.5,1-0.9l1,0.8C166.1,29.5,164.9,30.1,163.4,30.1z M165.7,19.2L165.7,19.2
			l-1.3,0.1l-1.3-1.4l-1.3,1.4l-1.3,0v-0.1l2.1-2.3h1L165.7,19.2z M163.2,21.8c-0.6,0-1.2,0.2-1.6,0.7c-0.4,0.5-0.7,1.1-0.8,1.9h4.6
			v-0.1c0-0.8-0.3-1.4-0.6-1.9S163.8,21.8,163.2,21.8z M162.2,32c0-0.3,0.1-0.5,0.2-0.6c0.2-0.2,0.4-0.3,0.7-0.3s0.5,0.1,0.7,0.3
			c0.2,0.2,0.2,0.4,0.2,0.6s-0.1,0.5-0.2,0.6c-0.2,0.2-0.4,0.3-0.7,0.3s-0.5-0.1-0.7-0.3C162.3,32.5,162.2,32.3,162.2,32z"/>
		<path class="st0" d="M170.9,18.5v2.2h1.7v1.2h-1.7v5.7c0,0.4,0.1,0.6,0.2,0.8s0.4,0.3,0.8,0.3c0.2,0,0.4,0,0.8-0.1v1.3
			c-0.4,0.1-0.8,0.2-1.2,0.2c-0.7,0-1.2-0.2-1.6-0.6s-0.5-1-0.5-1.8v-5.7h-1.7v-1.2h1.7v-2.2H170.9z"/>
	</g>
</g>
</svg>
