<?xml version="1.0" encoding="utf-8"?>
<!-- Generator: Adobe Illustrator 23.0.0, SVG Export Plug-In . SVG Version: 6.00 Build 0)  -->
<svg version="1.1" id="Layer_1" xmlns="http://www.w3.org/2000/svg" xmlns:xlink="http://www.w3.org/1999/xlink" x="0px" y="0px"
	 viewBox="0 0 512 512" style="enable-background:new 0 0 512 512;" xml:space="preserve">
<style type="text/css">
	.st0{fill:#FFFFFF;stroke:#000000;stroke-miterlimit:10;}
	.st1{fill:#FFFFFF;}
	.st2{fill:none;stroke:#000000;stroke-miterlimit:10;}
</style>
<g>
	<rect x="12.1" y="302.6" width="496.8" height="70.2"/>
	<rect x="12.1" y="232.4" width="491.5" height="70.2"/>
	<path class="st0" d="M467.9,253c-8.1,0.3-14.5,7.4-14.2,15.9c0.1,2,0.6,4,1.a,5.7c2.4,5.3,7.5,8.8,13.5,8.8h0.5
		c8.1-0.3,14.5-7.4,14.2-15.8v-0.1C483,259.2,476,252.6,467.9,253z M468.7,273.4c-2.5,0-4.8-2.1-5-5c-0.1-2.8,2-5.3,4.6-5.4
		c0.1,0,0.1,0,0.2,0c2.5,0,4.7,2.2,4.8,5C473.5,270.8,471.4,273.3,468.7,273.4z M46.7,253c-8.1,0.3-14.5,7.4-14.2,15.9
		c0.4,8.2,6.9,14.5,14.8,14.5h0.6c8.1-0.3,14.5-7.4,14.2-15.9C61.7,259.2,54.7,252.6,46.7,253z M47.5,273.4c-2.6,0-4.8-2.1-5-5
		c-0.1-2.8,2-5.3,4.6-5.4h0.1c2.6,0,4.8,2.2,4.9,5C52.2,270.8,50.1,273.3,47.5,273.4z"/>
	<path d="M503.9,316.8c2.8,0,5-2.2,5-5v-83.9h-26.1c4-7.6,6-16.1,6-25.1c0-10.5-2.8-20.5-8.3-29.2c11.5-10.4,18.4-25.4,18.4-41
		c0-30.4-24.8-55.2-55.2-55.2c-20.8,0-39.8,11.8-49.2,30.1c-2.8,0-5.6,0.1-8.1,0.4c-9.6-5.7-20.1-9.2-30.7-10.1l-0.5-3.2
		c-1.6-10-9.9-17.1-19.8-17.1c-0.9,0-1.9,0.1-3,0.3c-10.9,1.7-18.4,11.9-16.8,22.9l0.6,3.8c-11.6,5.3-22,13.7-30,24.3H286l-2.6,0.7
		c-11.4,3-21.6,8.2-30.5,15.4c-5.7-5.2-12.3-9.3-19.2-12.3c14-10.2,22.6-26.9,22.6-44.5c0-9.5-2.5-19-7.4-27.6l-2.4-4.3L207.3,79
		c-14.5,8.3-24,22.6-26.7,38.3c-14.7-23-46.4-29.6-46.9-29.7c-2.8-0.6-5.4,1.2-5.9,3.9c-0.5,2.7,1.2,5.4,3.9,5.9
		c0.5,0.1,38.9,8.1,45.2,37c-12.6-6.4-27.6-8.3-41.1-5.7c-6-24.2-27.7-41.2-53.3-41.2c-30.4,0-55.2,24.8-55.2,55.2
		c0,10.9,3.1,21.2,9,30.1c-5.8,8.9-9,19.3-9,30.1c0,8.8,2,17.3,6,25.1H7.3v150.5h35.1v30.1h300.6c2.7,0,5-2.2,5-5c0-2.9-2.3-5-5-5
		H52.5v-20.1h411.2v20.1h-92.4c-2.9,0-5,2.2-5,5c0,2.8,2.2,5,5,5h102.5v-30.1h35.1v-52.7c0-2.9-2.2-5-5-5c-2.9,0-5,2.2-5,5v42.7
		H17.4v-60.2h83.9c2.9,0,5-2.2,5-5s-2.2-5-5-5H17.4v-60.2h19c1.1,0,2.1-0.3,2.9-0.9l0.7,0.9h458.9v73.8
		C498.9,314.6,501,316.8,503.9,316.8z M333.7,87.9c0.6-0.1,1.2-0.2,1.7-0.2c5,0,9.1,3.6,10,8.6l0.2,1.3h-0.7
		c-4.4,0.1-8.7,0.7-13,1.7c-1.7,0.4-3.3,0.8-5,1.3c-0.4,0.1-0.8,0.2-1.2,0.3l-0.3-1.6C324.5,93.8,328.3,88.7,333.7,87.9z
		 M212.2,87.6l30.2-17.3c2.5,5.7,3.8,11.9,3.8,18c0,16.1-8.6,31.1-22.6,39.3l-2.5,1.4c-4.6-0.9-9.2-1.3-13.7-1.3
		c-1.5,0-3,0.1-4.5,0.2c-1.1,0-2.3,0.3-3.4,0.3c-1.1,0.1-2.2,0.3-3.4,0.5c-2.2,0.4-4.4,0.9-6.5,1.5C188.5,113,197.1,96.4,212.2,87.6
		z M45.1,227.9c-5-7.3-7.6-15.9-7.6-25.1c0-9.9,3.1-19.3,9-27.1l2.3-3l-2.3-3c-5.9-7.8-9-17.2-9-27.1c0-24.8,20.3-45.1,45.1-45.1
		c20.9,0,38.6,13.9,43.7,33.7c-0.2,0.1-0.3,0.1-0.5,0.2c-1.6,0.5-3.2,1.2-4.8,1.9c-1.1,0.5-2.1,1-3.2,1.5c-1.3,0.7-2.7,1.4-4,2.2
		c-1.3,0.8-2.6,1.7-3.9,2.6c-2.5,1.6-5,3.6-7.3,5.8c-1.2,1.1-2.3,2.2-3.5,3.4c-1.1,1.1-2.2,2.4-3.2,3.6
		c-9.5,11.1-15.6,24.8-17.3,39.5c-0.5,3.3-0.8,6.9-0.8,10.8c0,2.2,0.1,4.3,0.3,6.4c0.1,1.7,0.3,3.2,0.5,4.8c0,0.4,0.1,0.7,0.2,1.1
		c0.1,0.8,0.2,1.5,0.4,2.2c0.3,1.5,0.5,2.9,1,4.4c0.4,1.8,0.9,3.6,1.5,5.4c0.1,0.2,0.1,0.5,0.2,0.7H45.1z M226.9,179.2
		c-6.3,15.2-8.1,32-4.8,48.7H92.2c-0.3-0.9-0.7-1.8-0.9-2.8c-0.3-0.6-0.4-1.2-0.6-1.8c-0.5-1.4-0.9-2.9-1.1-4.4
		c-0.8-2.9-1.3-5.9-1.6-9c-0.3-2.4-0.4-4.6-0.4-7.1c0-3.4,0.2-6.5,0.7-9.4c1.7-12.8,6.9-24.8,15.1-34.5c8.1-9.7,18.6-16.3,30-19.4
		c4.6-1.3,9.4-1.9,14.4-1.9c10,0,19.2,2.4,27.6,7.2l2.5,1.4l1-0.5c1,1.2,2.4,1.9,4,1.9c2.8,0,5-2.2,5-5c0-0.4,0-0.9-0.1-1.3
		c9.8-3.9,21.1-5,33.1-2.2c9,2.1,17.3,6.4,24.5,12.6c-1.9,1.9-3.8,3.9-5.6,6c-4.6,5.7-8.5,11.8-11.4,18.2
		C227.8,177,227.4,178.2,226.9,179.2z M295.4,210.2c0,0.7-0.1,1.3-0.2,2v0.4c-0.1,1.2-0.3,2.4-0.6,3.6c0.1,0.2,0,0.5-0.1,0.7
		c0,0.9-0.2,1.7-0.5,2.6c-0.5,2.9-1.3,5.7-2.3,8.5h-32c-2.6-19.6,7.8-42.8,7.9-43c1.2-2.5,0.1-5.5-2.4-6.6c-2.5-1.2-5.5-0.1-6.6,2.4
		c-0.5,1.1-11.4,25.1-9.1,47.3h-17.2c-0.8-3.8-1.4-7.6-1.6-11.4c-0.1-1.7-0.2-3.4-0.2-5c0-4,0.3-7.9,0.9-11.8c0.4-2.5,1-5.1,1.7-7.6
		c0.4-1.4,0.8-2.8,1.3-4.3c0.3-0.9,0.6-1.8,1-2.6c0.4-1.4,1.1-2.8,1.7-4.2c0.8-1.8,1.8-3.6,2.7-5.3c0.9-1.7,1.9-3.4,3-5
		c0.7-1.1,1.5-2.2,2.4-3.4c1.5-2.1,3.2-4.2,5.1-6.1c0.9-1,1.8-1.9,2.8-2.8c1-1,1.9-2,3.1-2.9c0.2-0.2,0.5-0.4,0.8-0.6l0.7-0.6
		c0,0,0-0.1,0.1-0.1c7.1-6,14.9-10.5,23.6-13.5l11.8,43.3C295.4,192.7,296.1,201.5,295.4,210.2z M302.3,227.9
		c1.6-5.3,2.6-10.7,3.1-16.3c0.1-1,0.3-1.9,0.3-2.9c0.2-1.9,0.2-3.9,0.2-5.9c0-1.8-0.1-3.5-0.3-5.3V197c-0.2-2-0.5-3.9-0.8-5.9
		c-0.2-1.7-0.4-3.2-0.8-4.8c-0.4-1.6-0.8-3.2-1.2-4.8L291.1,139c8.1-12.1,19.5-21.5,32.4-26.6c7.1-2.8,14.2-4.4,21.7-4.7
		c1.9-0.1,3.8-0.1,5.7,0.1h0.3c2,0.1,4.1,0.2,6.2,0.5c5,0.7,9.8,1.9,14.6,3.7c-1.5,0.6-2.7,1.2-4.1,1.9c-1.1,0.6-2.1,1.1-3.1,1.8
		c-1.1,0.7-2.3,1.5-3.3,2.2c-2.2,1.5-4.2,3.2-6.1,5c-1,0.9-1.8,1.8-2.7,2.8c-1,1.1-1.9,2.2-2.7,3.3c-0.8,1-1.5,2-2.2,3.1
		c-0.7,1.1-1.4,2.2-2.1,3.4c-1.3,2.4-2.4,4.8-3.4,7.2c-0.3,0.9-0.6,1.7-0.9,2.7c-0.9,2.5-1.6,5.2-2,8c-0.2,0.8-0.3,1.6-0.3,2.5
		c-0.2,0.8-0.3,1.7-0.3,2.7c-0.1,1.4-0.2,2.8-0.2,4.2c0,5.2,0.7,10.4,2.2,15.6c-7.9,9.7-12.3,21.9-12.3,34.6c0,1.9,0.1,3.8,0.3,5.7
		c0.1,1.2,0.3,2.4,0.5,3.6c0.3,1.9,0.8,3.8,1.3,5.7H302.3z M471.2,227.9H340.8c-0.1-0.4-0.2-0.7-0.3-1.1c-0.8-2.5-1.5-5-1.7-7.6
		c-0.2-0.8-0.3-1.7-0.3-2.6c-0.1-1.2-0.2-2.5-0.2-3.8c0-11.1,4.1-21.9,11.5-30.2l2-2.1l-1-2.8c-1.7-5-2.5-10-2.5-15.1
		c0-11.1,4-21.3,10.6-29.3c0.9-1,1.8-2,2.7-2.8c6.5-6.5,14.9-10.9,24.5-12.5h0.1c3-0.6,7.2-0.7,10.9-0.4l3.6,0.3l1.4-3.3
		c7.2-16.5,23.4-27.3,41.5-27.3c24.9,0,45.2,20.3,45.2,45.1c0,14.2-6.7,27.6-18,36.2l-4,3l3,4c5.9,7.8,9,17.2,9,27.1
		C478.8,212,476.2,220.6,471.2,227.9z"/>
	<g>
		
			<ellipse transform="matrix(0.9991 -4.187939e-02 4.187939e-02 0.9991 -14.1329 2.2773)" class="st1" cx="47.3" cy="338.5" rx="9.8" ry="10.2"/>
	</g>
	<g>
		
			<ellipse transform="matrix(0.9991 -4.187939e-02 4.187939e-02 0.9991 -13.7633 19.9202)" class="st1" cx="468.6" cy="338.5" rx="9.8" ry="10.2"/>
	</g>
	<g>
		<path d="M424.6,167.5l-0.2,0.2h-0.8C423.9,167.7,424.3,167.7,424.6,167.5z"/>
	</g>
	<g>
		<path d="M424.6,167.5l-0.2,0.2h-0.8C423.9,167.7,424.3,167.7,424.6,167.5z"/>
	</g>
	<g>
		<path d="M458.7,162.7c0,2.8-2.2,5-5,5h-29.3l0.2-0.2c-0.3,0.2-0.7,0.2-1,0.2h0.8l-19.8,25.1h30.1c2.8,0,5,2.3,5,5c0,2.8-2.3,5-5,5
			h-36.2c-0.6,0-1.1-0.1-1.6-0.3L382.4,221c-1,1.2-2.4,1.9-3.9,1.9c-1.1,0-2.2-0.4-3.1-1.1c-2.2-1.7-2.5-4.8-0.8-7l14.9-19
			c-0.6-0.8-1-1.9-1-3v-30.1c0-2.8,2.2-5,5-5c2.8,0,5,2.2,5,5v21.7l19.1-24.1l-8.7-26.1c-0.9-2.6,0.5-5.5,3.1-6.3
			c2.7-0.9,5.5,0.5,6.3,3.1l6.6,20l24.9-31.5c1.7-2.2,4.8-2.5,7-0.8c2.2,1.7,2.5,4.8,0.8,7l-25.3,32h21.4
			C456.5,157.7,458.7,159.9,458.7,162.7z"/>
	</g>
	<g>
		<path d="M256,155.5c-1.1,0.9-2.1,1.9-3,2.9c1-1,2-1.9,3-2.8l0.8-0.7C256.5,155.1,256.2,155.3,256,155.5z"/>
	</g>
	<g>
		<path d="M91.3,225.1c0.2,1,0.6,1.9,0.9,2.8h0.2C91.9,227,91.6,226.1,91.3,225.1z"/>
	</g>
	<g>
		<path d="M340.6,226.8c0.1,0.4,0.2,0.7,0.3,1.1h0.1C340.8,227.5,340.7,227.1,340.6,226.8z"/>
	</g>
	<g>
		<path d="M351.1,107.7l6.1,0.6v-0.1C355.2,107.9,353.1,107.8,351.1,107.7z"/>
	</g>
	<g>
		<path class="st1" d="M508.9,298.1v10H130.7c-2.9,0-5.3-2.2-5.3-5s2.4-5,5.3-5H508.9z"/>
	</g>
	<g>
		<path class="st1" d="M89.5,303.1c0,2.8-2.2,5-5,5H7.3v-10h77.2C87.3,298.1,89.5,300.3,89.5,303.1z"/>
	</g>
	<g>
		<path class="st2" d="M467.9,253c-8.1,0.3-14.5,7.4-14.2,15.9c0.1,2,0.6,4,1.4,5.7c2.4,5.3,7.5,8.8,13.5,8.8h0.5
			c8.1-0.3,14.5-7.4,14.2-15.8v-0.1C483,259.2,476,252.6,467.9,253z M468.7,273.4c-2.5,0-4.8-2.1-5-5c-0.1-2.8,2-5.3,4.6-5.4
			c0.1,0,0.1,0,0.2,0c2.5,0,4.7,2.2,4.8,5C473.5,270.8,471.4,273.3,468.7,273.4z"/>
	</g>
</g>
</svg>
