<?xml version="1.0" encoding="utf-8"?>
<!-- Generator: Adobe Illustrator 23.0.0, SVG Export Plug-In . SVG Version: 6.00 Build 0)  -->
<svg version="1.1" id="Layer_1" xmlns="http://www.w3.org/2000/svg" xmlns:xlink="http://www.w3.org/1999/xlink" x="0px" y="0px"
	 viewBox="0 0 512 512" style="enable-background:new 0 0 512 512;" xml:space="preserve">
<g>
	<g>
		<g>
			<path d="M477.1,267.7c17.9-12.1,29.1-32.6,29.1-54.4c0-36-29.3-65.4-65.6-65.4c-5,0-9.7,0.4-14.2,1.7
				c-7.3-33.2-46.8-61.3-104.2-73.6c0.4-2.4,0.6-4.5,0.6-6.9c0-28.7-29.3-52.2-65.6-52.2c-36,0-65.6,23.5-65.6,52.2
				c0,2.4,0.4,4.5,0.6,6.9c-57.4,12.3-96.7,40.3-104,73.6c-4.7-1.3-9.5-1.7-14.5-1.7c-36.2,0-65.6,29.3-65.6,65.4
				c0,21.8,11.4,42.3,29.1,54.4l-10.1,23.5c-7.1,17.3-7.1,36.7,0,54.4c66.5,156,77,156,88,156h283.9c11,0,21.6,0,88.2-156v-0.4
				c6.9-17.3,6.9-36.7,0-54.2L477.1,267.7z M480.2,213.3c0,11.6-5.4,22.4-13.8,29.8c-1.5-3.5-3-7.1-4.5-10.8
				c-3.2-6.5-6-13.4-9.5-20.3c-2.6-6.3-5.8-12.3-8.6-18.3c-1.9-4.1-4.1-8-6-12.1c-1.1-2.2-2.2-4.5-3.5-6.9
				C457.3,170.6,480.2,189.5,480.2,213.3z M257.3,43.1c21.4,0,39.3,12.1,39.3,26.1c0,0.9,0,1.7-0.2,2.4c-12.7-1.5-25.9-2.4-39.1-2.4
				c-13.2,0-26.1,0.9-39.1,2.4c-0.2-0.6-0.2-1.5-0.2-2.4C218,55.1,236.1,43.1,257.3,43.1z M203.3,100.4l8.6-1.5
				c29.3-4.5,61.3-4.5,90.6,0l8.6,1.5c34.1,6.5,61.9,19.4,77,34.3H126.3C141.4,119.9,169.3,106.9,203.3,100.4z M34.6,213.3
				c0-21.6,17.5-39.3,39.3-39.3c2.4,0,4.5,0.2,6.5,0.6c-1.3,2.4-2.4,4.7-3.7,7.3c-3.2,6.7-6.9,14-10.4,21.8
				c-0.9,1.3-1.7,2.8-2.2,4.1c-3.9,8.2-7.6,16.4-11.2,24.4c-1.7,3.7-3.2,7.3-4.7,10.8C39.8,235.7,34.6,224.9,34.6,213.3z
				 M463.3,335.2c-46,107.4-62.4,134-68,140.2H119.2c-5.4-6.3-22-32.8-68-140.2c-4.3-11-4.3-23.1,0-33.7l10.1-22.9l5-11.6
				c11.2-25.9,26.3-59.5,38.6-83.3l1.7-2.8c1.3-2.4,2.4-4.5,3.5-6.3l0.4-0.6l1.3-1.7c3.7-6.3,6-9.7,7.3-11.2h276.2
				c1.1,1.3,3,3.7,5.6,8l3,5l2.2,3.9c13.2,23.7,30.2,61.1,42.3,89.1l5,11.6l9.9,22.4C467.6,312.1,467.6,324.2,463.3,335.2z"/>
		</g>
	</g>
	<path d="M477.1,267.7c17.9-12.1,29.1-32.6,29.1-54.4c0-36-29.3-65.4-65.6-65.4c-5,0-9.7,0.4-14.2,1.7
		c-7.3-33.2-46.8-61.3-104.2-73.6c0.4-2.4,0.6-4.5,0.6-6.9c0-28.7-29.3-52.2-65.6-52.2c-36,0-65.6,23.5-65.6,52.2
		c0,2.4,0.4,4.5,0.6,6.9c-57.4,12.3-96.7,40.3-104,73.6c-4.7-1.3-9.5-1.7-14.5-1.7c-36.2,0-65.6,29.3-65.6,65.4
		c0,21.8,11.4,42.3,29.1,54.4l-10.1,23.5c-7.1,17.3-7.1,36.7,0,54.4c66.5,156,77,156,88,156h283.9c11,0,21.6,0,88.2-156v-0.4
		c6.9-17.3,6.9-36.7,0-54.2L477.1,267.7z M480.2,213.3c0,11.6-5.4,22.4-13.8,29.8c-1.5-3.5-3-7.1-4.5-10.8c-3.2-6.5-6-13.4-9.5-20.3
		c-2.6-6.3-5.8-12.3-8.6-18.3c-1.9-4.1-4.1-8-6-12.1c-1.1-2.2-2.2-4.5-3.5-6.9C457.3,170.6,480.2,189.5,480.2,213.3z M257.3,43.1
		c21.4,0,39.3,12.1,39.3,26.1c0,0.9,0,1.7-0.2,2.4c-12.7-1.5-25.9-2.4-39.1-2.4c-13.2,0-26.1,0.9-39.1,2.4c-0.2-0.6-0.2-1.5-0.2-2.4
		C218,55.1,236.1,43.1,257.3,43.1z M203.3,100.4l8.6-1.5c29.3-4.5,61.3-4.5,90.6,0l8.6,1.5c34.1,6.5,61.9,19.4,77,34.3H126.3
		C141.4,119.9,169.3,106.9,203.3,100.4z M34.6,213.3c0-21.6,17.5-39.3,39.3-39.3c2.4,0,4.5,0.2,6.5,0.6c-1.3,2.4-2.4,4.7-3.7,7.3
		c-3.2,6.7-6.9,14-10.4,21.8c-0.9,1.3-1.7,2.8-2.2,4.1c-3.9,8.2-7.6,16.4-11.2,24.4c-1.7,3.7-3.2,7.3-4.7,10.8
		C39.8,235.7,34.6,224.9,34.6,213.3z"/>
</g>
</svg>
