<?xml version="1.0" encoding="utf-8"?>
<!-- Generator: Adobe Illustrator 23.0.0, SVG Export Plug-In . SVG Version: 6.00 Build 0)  -->
<svg version="1.1" id="Layer_1" xmlns="http://www.w3.org/2000/svg" xmlns:xlink="http://www.w3.org/1999/xlink" x="0px" y="0px"
	 viewBox="0 0 512 512" style="enable-background:new 0 0 512 512;" xml:space="preserve">
<g>
	<g>
		<g>
			<g>
				<path d="M452.9,324.8c-0.1-0.7-0.3-1.3-0.4-2c0,0,0,0,0,0c-0.1-0.5-0.3-1.1-0.5-1.6c-0.1-0.4-0.3-0.8-0.4-1.3
					c-0.1-0.3-0.2-0.6-0.3-0.9c-0.3-0.9-0.7-1.8-1.2-2.7c0,0,0,0,0-0.1c-0.3-0.6-0.6-1.2-0.9-1.8c-0.7-1.2-1.4-2.4-2.3-3.6
					c-0.4-0.5-0.7-1-1.1-1.5c-0.2-0.3-0.4-0.6-0.7-0.8c-0.5-0.5-0.9-1-1.4-1.5c-0.5-0.5-1-1-1.5-1.5c-0.3-0.3-0.5-0.5-0.8-0.7
					c-0.3-0.2-0.5-0.5-0.8-0.7c-0.8-0.8-1.7-1.5-2.6-2.2c-1.1-0.9-2.3-1.7-3.4-2.4c-0.5-0.3-1-0.7-1.6-1c-0.5-0.3-1-0.6-1.5-0.9
					c-0.5-0.3-1-0.5-1.5-0.8c-7.5-3.8-16.3-5.9-25.7-5.9h-20v-12.9h10.8v-29.8h13v-35.5h-19.5v-81.5h13c12.9,0,23.7-9.6,25.6-22
					c0.1-0.8,0.2-1.6,0.3-2.4c0,0,0-0.1,0-0.1c0-0.4,0-0.9,0-1.3c0-0.7,0-1.5-0.1-2.2c0-0.2,0-0.5-0.1-0.7c0-0.3-0.1-0.6-0.1-1
					c-0.1-0.5-0.2-1-0.3-1.5c-1-4.9-3.5-9.5-7-13c-1.8-1.8-3.9-3.3-6.1-4.5c-0.4-0.2-0.8-0.4-1.2-0.6c-3.4-1.6-7.2-2.5-11-2.5h-13
					V57.9h8.7V23.4h-9c-0.4-1.9-1-3.7-1.9-5.3c-0.1-0.2-0.2-0.5-0.4-0.7c0,0,0,0,0,0c-0.1-0.3-0.3-0.5-0.5-0.8
					c-0.2-0.3-0.4-0.7-0.7-1c-0.3-0.4-0.6-0.8-0.9-1.2c-0.2-0.3-0.4-0.5-0.6-0.7c-0.4-0.4-0.8-0.9-1.2-1.3c-0.2-0.2-0.4-0.4-0.7-0.6
					c0,0,0,0,0,0c-0.5-0.4-0.9-0.8-1.4-1.1s-1-0.7-1.5-1c-1-0.6-2.1-1.2-3.3-1.7c-0.3-0.1-0.6-0.3-1-0.4c-2.3-0.8-4.8-1.3-7.3-1.3
					h-233c-5.1,0-9.7,1.7-13.3,4.7c-1.2,1-2.3,2.1-3.3,3.3c-0.1,0.1-0.1,0.2-0.2,0.2c-0.3,0.3-0.5,0.7-0.8,1
					c-0.2,0.2-0.3,0.5-0.5,0.7s-0.3,0.5-0.4,0.7c-0.1,0.2-0.2,0.4-0.3,0.6c-0.2,0.3-0.3,0.6-0.5,0.9c-0.8,1.6-1.4,3.4-1.8,5.3h-9
					v34.5h8.6v21.5h-13c-4.3,0-8.5,1.1-12.2,3.1c-2.2,1.2-4.3,2.7-6.1,4.5c-0.9,0.9-1.8,1.9-2.5,2.9c-1.3,1.7-2.3,3.5-3.1,5.5
					c-1.3,3.1-2,6.5-2,10c0,8.4,4.1,16,10.4,20.7h0c0.4,0.3,0.9,0.6,1.3,0.9c0.2,0.2,0.5,0.3,0.7,0.4c0.7,0.4,1.4,0.8,2.1,1.2
					c0.5,0.2,1,0.5,1.5,0.7c0.3,0.1,0.6,0.3,1,0.4c0.9,0.3,1.8,0.6,2.7,0.8c0.3,0.1,0.6,0.2,0.9,0.2c0.4,0.1,0.8,0.2,1.3,0.2
					c0.8,0.1,1.7,0.2,2.5,0.3c0.5,0,0.9,0,1.4,0h13v81.5H93.3v35.5h13v29.8H117V459H54.4v26h25l59.8,25.5l150.3,0.3l66.8,0.1
					l25.3-10L422,485h25v-26h-62.6v-21.5h20c20,0,37.3-9.8,44.9-23.8c0.5-0.9,1-1.9,1.4-2.9c0.1-0.3,0.2-0.5,0.3-0.8
					c0.3-0.8,0.6-1.6,0.9-2.4c0.3-1.1,0.6-2.2,0.9-3.3c0.2-0.9,0.3-1.8,0.5-2.8c0-0.1,0-0.2,0-0.3c0.1-0.6,0.1-1.2,0.2-1.9
					c0-0.7,0.1-1.3,0.1-2V331C453.5,328.9,453.3,326.8,452.9,324.8z M442.7,320.9c0.3,0.7,0.6,1.5,0.9,2.2c0.1,0.3,0.2,0.5,0.2,0.8
					c0.1,0.5,0.3,1,0.4,1.5c0.2,1,0.4,2.1,0.5,3.1c0.1,0.8,0.1,1.6,0.1,2.4v66.5c0,17.3-18.1,31.5-40.5,31.5h-20v-12.4
					c5.4-0.5,10.4-1.7,15.1-3.5c0.7-0.3,1.3-0.5,2-0.8c0.7-0.3,1.3-0.6,2-0.9c1.3-0.6,2.5-1.3,3.7-2c0,0,0,0,0,0
					c1.2-0.7,2.3-1.4,3.4-2.2c0.4-0.3,0.8-0.6,1.2-0.9c0.4-0.3,0.7-0.5,1-0.8c0.3-0.2,0.6-0.5,0.9-0.7c3.5-2.9,6.5-6.3,8.7-10
					c0.6-0.9,1.1-1.9,1.6-2.8c0.2-0.4,0.4-0.7,0.5-1.1c0.2-0.4,0.4-0.8,0.5-1.2v0c0.2-0.6,0.5-1.1,0.7-1.7c0.2-0.6,0.4-1.2,0.6-1.8
					c0,0,0-0.1,0-0.1c0.3-0.9,0.5-1.8,0.7-2.7c0.1-0.4,0.1-0.8,0.2-1.1c0.1-0.8,0.3-1.7,0.3-2.5c0-0.3,0-0.6,0.1-1
					c0-0.6,0-1.3,0-1.9v-25.1c0-1,0-2-0.1-3.1c-0.4-4.2-1.6-8.3-3.5-12.1c-0.2-0.3-0.3-0.7-0.5-1c-0.2-0.3-0.3-0.6-0.5-0.9
					c-5.1-8.9-14.1-16-25.2-19.8c-0.4-0.1-0.7-0.2-1.1-0.4c-0.4-0.1-0.8-0.3-1.2-0.4c-0.3-0.1-0.7-0.2-1-0.3c-0.1,0-0.2-0.1-0.3-0.1
					c-0.5-0.1-1-0.3-1.5-0.4c-2.7-0.6-5.4-1.1-8.2-1.4v-12.4h20C422.2,299.4,437.3,308.5,442.7,320.9z M375.9,390v69H125.6v-69
					H375.9z M375.9,381.4H125.6V277.9h250.3V381.4z M419,376.7c0,13.9-11.4,25.5-27.5,29.8c0,0,0,0-0.1,0c-0.6,0.1-1.2,0.3-1.7,0.4
					c-0.4,0.1-0.9,0.2-1.3,0.3c-1.3,0.3-2.7,0.5-4,0.6v-87.4c19.7,2.3,34.6,15.3,34.6,31.1V376.7z M401.7,88.1c4.7,0,9,1.8,12.3,5
					c1.4,1.4,2.5,3,3.3,4.8c0,0,0,0.1,0.1,0.1c1.1,2.3,1.7,4.8,1.7,7.3c0,9.2-7.4,16.8-16.5,17.2c-0.3,0-0.6,0-0.9,0h-12.9V88.1
					H401.7z M388.7,49.3h-276V32h276V49.3z M380.1,57.9v154.8H121.4V57.9H380.1z M374.7,17.2c0.5,0.4,1,0.8,1.5,1.3
					c1.4,1.4,2.5,3.1,3.1,5H122.1c0.2-0.6,0.5-1.2,0.8-1.8c0.2-0.3,0.3-0.6,0.5-0.9c2.3-3.6,6.4-6,10.9-6h233c2.2,0,4.4,0.6,6.2,1.6
					C373.9,16.6,374.3,16.9,374.7,17.2z M96.1,122.2c-0.5-0.1-1-0.2-1.4-0.4c-0.4-0.1-0.9-0.3-1.3-0.5c-0.2-0.1-0.4-0.2-0.6-0.3
					c-6-2.7-10.3-8.7-10.3-15.7c0-2.6,0.6-5.2,1.6-7.5c0-0.1,0.1-0.2,0.1-0.3c0.1-0.2,0.2-0.4,0.3-0.6c0.8-1.4,1.7-2.7,2.8-3.9
					c0.4-0.4,0.8-0.7,1.2-1c0,0,0.1-0.1,0.1-0.1c0.8-0.7,1.7-1.3,2.6-1.8c0.3-0.2,0.6-0.3,1-0.5c2.3-1.1,4.8-1.6,7.4-1.6h13v34.5
					h-13C98.5,122.6,97.3,122.4,96.1,122.2z M101.9,221.3h297.7v18.1H101.9V221.3z M114.9,248.1h271.7v21.2H114.9V248.1z
					 M438.4,467.7v8.7H63.1v-8.7H438.4z M141.8,502.2l-14.2-6l-26-11.1l-0.2-0.1h297l-0.2,0.1l-22.5,8.9l-21,8.3H141.8z"/>
			</g>
		</g>
	</g>
	<g>
		<g>
			<g>
				<path d="M452.9,324.8c-0.1-0.7-0.3-1.3-0.4-2c0,0,0,0,0,0c-0.1-0.5-0.3-1.1-0.5-1.6c-0.1-0.4-0.3-0.8-0.4-1.3
					c-0.1-0.3-0.2-0.6-0.3-0.9c-0.3-0.9-0.7-1.8-1.2-2.7c0,0,0,0,0-0.1c-0.3-0.6-0.6-1.2-0.9-1.8c-0.7-1.2-1.4-2.4-2.3-3.6
					c-0.4-0.5-0.7-1-1.1-1.5c-0.2-0.3-0.4-0.6-0.7-0.8c-0.5-0.5-0.9-1-1.4-1.5c-0.5-0.5-1-1-1.5-1.5c-0.3-0.3-0.5-0.5-0.8-0.7
					c-0.3-0.2-0.5-0.5-0.8-0.7c-0.8-0.8-1.7-1.5-2.6-2.2c-1.1-0.9-2.3-1.7-3.4-2.4c-0.5-0.3-1-0.7-1.6-1c-0.5-0.3-1-0.6-1.5-0.9
					c-0.5-0.3-1-0.5-1.5-0.8c-7.5-3.7-16.3-5.9-25.8-5.9h-20V278h10.9V248h13.1v-35.5h-19.5v-81.4h12.9c12.8,0,23.7-9.7,25.6-22
					c0.1-0.8,0.2-1.6,0.3-2.4c0,0,0-0.1,0-0.1c0-0.5,0-1,0-1.4c0-0.7,0-1.4-0.1-2.1c0-0.2,0-0.5-0.1-0.7c0-0.3-0.1-0.6-0.1-1
					c-0.1-0.5-0.2-1-0.3-1.5c-1.1-4.9-3.5-9.5-7-13c-1.8-1.8-3.9-3.4-6.1-4.6c-0.4-0.2-0.8-0.4-1.2-0.6c-3.5-1.7-7.3-2.6-11.1-2.6
					h-12.9V57.8h8.6V23.5h-9.1c-0.4-1.9-1-3.7-1.8-5.4c-0.1-0.2-0.2-0.5-0.4-0.7c0,0,0,0,0,0c-0.1-0.3-0.3-0.5-0.5-0.8
					c-0.2-0.3-0.4-0.7-0.7-1c-0.3-0.4-0.6-0.8-0.9-1.2c-0.2-0.3-0.4-0.5-0.6-0.7c-0.4-0.4-0.8-0.9-1.2-1.3c-0.2-0.2-0.4-0.4-0.7-0.6
					c0,0,0,0,0,0c-0.5-0.4-0.9-0.8-1.4-1.1s-1-0.7-1.5-1c-1-0.6-2.1-1.2-3.3-1.7c-0.3-0.1-0.6-0.3-1-0.4c-2.3-0.8-4.7-1.3-7.3-1.3
					h-233c-5.1,0-9.7,1.7-13.4,4.6c-1.2,1-2.3,2.1-3.3,3.3c-0.1,0.1-0.1,0.2-0.2,0.2c-0.3,0.3-0.5,0.7-0.8,1
					c-0.2,0.2-0.3,0.5-0.5,0.7s-0.3,0.5-0.4,0.7c-0.1,0.2-0.2,0.4-0.3,0.6c-0.2,0.3-0.3,0.6-0.5,0.9c-0.9,1.6-1.5,3.4-1.9,5.3
					c0,0,0,0,0,0h-8.9v34.4h8.7v21.5H99.7c-4.3,0-8.4,1.1-12.1,3.2c-2.2,1.2-4.3,2.8-6.1,4.6c-0.9,0.9-1.8,1.8-2.5,2.8
					c-1.3,1.7-2.3,3.5-3.1,5.5c-1.3,3.1-1.9,6.5-1.9,9.8c0,8.5,4.1,16,10.4,20.8h0c0.4,0.3,0.9,0.6,1.3,0.9c0.2,0.2,0.5,0.3,0.7,0.4
					c0.7,0.4,1.4,0.8,2.1,1.2c0.5,0.2,1,0.5,1.5,0.7c0.3,0.1,0.6,0.3,1,0.4c0.9,0.3,1.8,0.6,2.7,0.8c0.3,0.1,0.6,0.2,0.9,0.2
					c0.4,0.1,0.8,0.2,1.3,0.2c0.8,0.1,1.7,0.2,2.5,0.3c0.4,0,0.9,0,1.3,0h13.1v81.4H93.2V248h13.1V278H117v181.1H54.4V485h25.1
					l59.9,25.5l150.2,0.2l66.8,0.1l25.3-9.9L422,485h25.1v-25.9h-62.8v-21.5h20c20.1,0,37.4-9.9,45-23.9c0.5-0.9,1-1.9,1.4-2.9
					c0.1-0.3,0.2-0.5,0.3-0.8c0.3-0.8,0.6-1.6,0.9-2.4c0.3-1.1,0.6-2.2,0.9-3.3c0.2-0.9,0.4-1.8,0.5-2.8c0-0.1,0-0.2,0-0.3
					c0.1-0.6,0.1-1.2,0.2-1.9c0-0.7,0.1-1.3,0.1-2V331C453.5,328.9,453.3,326.8,452.9,324.8z M121.4,212.6V57.8h258.7v154.8H121.4z
					 M414,93.1c1.4,1.4,2.5,3,3.3,4.8c0,0,0,0.1,0.1,0.1c1,2.3,1.5,4.8,1.5,7.2c0,9.2-7.3,16.8-16.4,17.3c-0.3,0-0.6,0-0.9,0h-12.9
					V88h12.9C406.5,88,410.7,90,414,93.1z M122.9,21.6c0.2-0.3,0.3-0.6,0.5-0.9c2.3-3.6,6.4-5.9,10.9-5.9h233c2.2,0,4.3,0.6,6.2,1.6
					c0.4,0.2,0.9,0.5,1.3,0.8c0.5,0.4,1,0.8,1.5,1.3c1.4,1.4,2.5,3.1,3.2,5H122.1C122.3,22.8,122.5,22.2,122.9,21.6z M112.8,31.9
					h276v17.3h-276V31.9z M99.7,122.6c-1.2,0-2.4-0.1-3.5-0.4c-0.5-0.1-1-0.2-1.4-0.4c-0.4-0.1-0.9-0.3-1.3-0.5
					c-0.2-0.1-0.4-0.2-0.6-0.3c-6-2.7-10.2-8.8-10.2-15.8c0-2.5,0.6-5.1,1.6-7.4c0-0.1,0.1-0.2,0.1-0.3c0.1-0.2,0.2-0.4,0.3-0.6
					c0.8-1.4,1.7-2.8,2.8-3.9c0.4-0.4,0.8-0.7,1.2-1c0,0,0.1-0.1,0.1-0.1c0.8-0.7,1.7-1.2,2.6-1.8c0.3-0.2,0.6-0.3,1-0.5
					c2.3-1.1,4.7-1.7,7.3-1.7h13.1v34.6H99.7z M101.9,221.4h297.8v18H101.9V221.4z M125.6,381.3V278h250.3v103.3H125.6z
					 M125.6,389.9h250.3v69.2H125.6V389.9z M375.8,493.9l-21.1,8.2H141.8l-14.2-6L101.4,485h297.1L375.8,493.9z M438.4,476.4H63.1
					v-8.7h375.3V476.4z M115,269.3V248h271.6v21.3H115z M418.5,347.2c0.2,1.3,0.4,2.9,0.4,4.4v25c0,14-11.3,25.5-27.4,29.9
					c0,0,0,0-0.1,0c-0.6,0.1-1.2,0.3-1.7,0.4c-0.4,0.1-0.9,0.2-1.3,0.3c-1.3,0.3-2.7,0.5-4.1,0.7v-87.4c0,0,0,0,0.1,0
					C402.1,322.6,416,333.4,418.5,347.2z M384.3,429v-12.4c0,0,0,0,0.1,0c5.4-0.5,10.4-1.8,15.1-3.6c0.7-0.3,1.3-0.5,2-0.8
					c0.7-0.3,1.3-0.6,2-0.9c1.3-0.6,2.5-1.3,3.7-2c0,0,0,0,0,0c1.2-0.7,2.3-1.4,3.4-2.2c0.4-0.3,0.8-0.6,1.2-0.9
					c0.4-0.3,0.7-0.5,1-0.8c0.3-0.2,0.6-0.5,0.9-0.7c3.5-2.9,6.4-6.3,8.7-10c0.6-0.9,1.1-1.9,1.6-2.8c0.2-0.4,0.4-0.7,0.5-1.1
					c0.2-0.4,0.4-0.8,0.5-1.2v0c0.2-0.6,0.5-1.1,0.7-1.7c0.2-0.6,0.4-1.2,0.6-1.8c0,0,0-0.1,0-0.1c0.3-0.9,0.5-1.8,0.7-2.7
					c0.1-0.4,0.1-0.8,0.2-1.1c0.1-0.8,0.3-1.7,0.3-2.5c0-0.3,0-0.6,0.1-1c0-0.6,0.1-1.3,0.1-2v-25c0-1.1,0-2-0.2-3
					c-0.1-0.4-0.1-0.9-0.3-1.4c-0.5-3.7-1.5-7.3-3.2-10.7c-0.2-0.3-0.3-0.7-0.5-1c-0.2-0.3-0.3-0.6-0.5-0.9c-5-8.9-14-16-25.2-19.8
					c-0.4-0.1-0.7-0.2-1.1-0.4c-0.4-0.1-0.8-0.3-1.2-0.4c-0.3-0.1-0.7-0.2-1-0.3c-0.1,0-0.2-0.1-0.3-0.1c-0.5-0.1-1-0.3-1.5-0.4
					c-2.7-0.6-5.4-1.1-8.3-1.3v-12.4h20c17.8,0,33,9,38.4,21.4c0.3,0.7,0.6,1.5,0.9,2.2c0.1,0.3,0.2,0.5,0.2,0.8
					c0.1,0.5,0.3,1,0.4,1.5c0.2,1,0.4,2.1,0.5,3.1c0.1,0.8,0.1,1.6,0.1,2.5v66.5c0,17.3-18.2,31.5-40.6,31.5H384.3z"/>
			</g>
		</g>
	</g>
	<path d="M125.6,389.9v69.2h250.3v-69.2H125.6z M155.3,445.2l47.5-47.5c1.7-1.7,4.4-1.7,6.1,0c1.7,1.7,1.7,4.4,0,6.1l-47.5,47.5
		c-0.8,0.8-1.9,1.3-3,1.3c-1.1,0-2.2-0.4-3-1.3C153.6,449.6,153.6,446.9,155.3,445.2z M143.8,434.1c-0.8,0.8-1.9,1.3-3,1.3
		c-1.1,0-2.2-0.4-3-1.3c-1.7-1.7-1.7-4.4,0-6.1l25.9-25.9c1.7-1.7,4.4-1.7,6.1,0c1.7,1.7,1.7,4.4,0,6.1L143.8,434.1z M183.6,445.2
		l47.5-47.5c1.7-1.7,4.4-1.7,6.1,0c1.7,1.7,1.7,4.4,0,6.1l-47.5,47.5c-0.8,0.8-1.9,1.3-3,1.3c-1.1,0-2.2-0.4-3-1.3
		C181.9,449.6,181.9,446.9,183.6,445.2z M211.9,445.2l47.5-47.5c1.7-1.7,4.4-1.7,6.1,0c1.7,1.7,1.7,4.4,0,6.1L218,451.3
		c-0.8,0.8-1.9,1.3-3,1.3c-1.1,0-2.2-0.4-3-1.3C210.3,449.6,210.3,446.9,211.9,445.2z M240.3,445.2l47.5-47.5c1.7-1.7,4.4-1.7,6.1,0
		c1.7,1.7,1.7,4.4,0,6.1l-47.5,47.5c-0.8,0.8-1.9,1.3-3,1.3c-1.1,0-2.2-0.4-3.1-1.3C238.6,449.6,238.6,446.9,240.3,445.2z
		 M268.6,445.2l47.5-47.5c1.7-1.7,4.4-1.7,6.1,0c1.7,1.7,1.7,4.4,0,6.1l-47.5,47.5c-0.8,0.8-2,1.3-3,1.3c-1.1,0-2.2-0.4-3-1.3
		C267,449.6,267,446.9,268.6,445.2z M297,445.2l47.5-47.5c1.7-1.7,4.4-1.7,6.1,0c1.7,1.7,1.7,4.4,0,6.1l-47.5,47.5
		c-0.8,0.8-1.9,1.3-3,1.3c-1.1,0-2.2-0.4-3.1-1.3C295.3,449.6,295.3,446.9,297,445.2z M336.1,436.6l25.9-25.9c1.7-1.7,4.4-1.7,6.1,0
		c1.7,1.7,1.7,4.4,0,6.1l-25.9,25.9c-0.8,0.8-1.9,1.3-3.1,1.3c-1.1,0-2.2-0.4-3-1.3C334.4,441,334.4,438.3,336.1,436.6z"/>
</g>
</svg>
