<?xml version="1.0" encoding="utf-8"?>
<!-- Generator: Adobe Illustrator 23.0.0, SVG Export Plug-In . SVG Version: 6.00 Build 0)  -->
<svg version="1.1" id="Layer_1" xmlns="http://www.w3.org/2000/svg" xmlns:xlink="http://www.w3.org/1999/xlink" x="0px" y="0px"
	 viewBox="0 0 512 512" style="enable-background:new 0 0 512 512;" xml:space="preserve">
<path d="M504,281.7c-1.1-1-3.3-3.3-6.2-6.4l-6.5-6.7c-4.7-5-10.3-10.8-16.5-17.1c-3.7-3.9-7.6-7.9-11.6-12
	c-11.9-12.3-24.8-25.3-35.9-36.4c-4.4-4.4-8.6-8.5-12.3-12.1c-7.7-7.3-13.6-12.8-16.4-14.7c-11.5-7.6-35.8-12.4-57.4-7.6
	c-0.5-0.6-1-1.4-1.4-2c-6.1-8.3-12.1-13.7-18.2-16.1c-0.5-1.1-1.2-2.1-2.3-3c-4.7-4.2-16.2-7.8-38.4-12c-2.7-0.5-5.5-1.1-8.6-1.6
	l-8.8-1.5c-14.5-2.4-31.8-5.1-51.5-7.9c-2.3-0.4-4.7-0.7-7.1-1.2l-39.3-4.3c-2.1-0.6-15.5-3.4-32.6,13.7
	c-4.3,4.2-13.4,12.8-24.9,23.7l-9.1,8.7c-1.4,1.3-2.7,2.5-4.1,3.9l-2.1,2c-1.4,1.3-2.8,2.6-4.3,4c-26.1,25.1-44.6,43.5-58.3,58.2
	l-5.5,6.1c-2,2.1-3.7,4.2-5.4,6.2c-7.5,8.7-12.2,15.2-13.8,19.3c-1,2.1-1.6,3.9-1.9,5.5c-0.5,2.4,0,4.9,1.3,7.1
	c-0.5,9.4,3.6,33.7,49.8,69.2c0.4,0.2,12.1,6,28.9,13.5c6.5,3,13.8,6.2,21.5,9.4c14,5.9,29.2,11.9,43.6,16.7
	c7.3,2.4,14.5,4.6,21,6.3c8.9,2.2,16.6,3.5,22.8,3.5c3.3,0,6.2-0.4,8.4-1.3l0.5-0.3c1.6-1.3,3.8-3,6.1-5c0.5-0.5,0.8-0.8,1.3-1.2
	l2.2-1.9c2.8-2.5,6.2-5.6,10-9.2c11.3,14.9,27.8,32.4,44.9,35.2h1.4c24.6-0.5,182.5-16.9,227.7-53l0.6-0.7
	C504.6,340.8,514,291.8,504,281.7z M421.6,203.6c10.9,10.9,23.9,24.1,36,36.5l-54.7,5.6l16.8-23.8l-43.1-14.5L421.6,203.6z
	 M396.2,180c2.3,1.5,7,5.7,13,11.5l-54,4.6c-0.3-0.8-0.6-1.5-0.9-2.4c-0.8-1.9-1.6-3.9-2.5-5.9c-0.3-0.6-0.5-1.3-0.8-1.9
	c-1.4-3-2.9-5.9-4.4-8.7c-0.2-0.3-0.4-0.5-0.5-0.8c-0.2-0.4-0.5-0.8-0.6-1.2c-0.5-0.8-1-1.5-1.4-2.4c-0.1-0.1-0.2-0.2-0.3-0.3
	C363.6,168.8,386,173.3,396.2,180z M320.6,161.4l0.3-1c0.5-1.6,1.1-3.2,1.4-4.6c4.4,2.4,9.2,7.1,13.9,13.6c0.5,0.6,1,1.4,1.4,2
	l0.7,1.1c2.4,3.6,4.7,7.7,7,12c0.6,1.4,1.3,2.6,1.8,4c0.6,1.3,1.2,2.5,1.8,3.9c0,0.1,0.1,0.3,0.2,0.5c0.5,1.4,1.2,2.9,1.7,4.3
	c0.3,0.6,0.5,1.4,0.7,2l0.1,0.1c0.3,0.8,0.5,1.5,0.8,2.4c0.5,1.4,0.9,2.8,1.4,4.3c0.4,1.4,0.7,2.6,1.1,3.9c0.3,1.2,0.5,2.2,0.7,3.3
	c-0.9,2-1.9,4-3.1,6.2c-2.4,4.4-5.3,9.2-8.7,14.4c-0.8,1.2-1.5,2.4-2.4,3.6c-2.4,3.6-5.1,7.3-7.9,11.2c-1.3,1.5-2.4,3.2-3.7,4.9
	c-1.6,2.1-3.3,4.3-5.2,6.6c-1.9,2.4-4,5.1-6.2,7.7c-0.9,1.3-1.9,2.4-3,3.6c0-0.1-0.1-0.2-0.2-0.3l-1-1.7l-1.5-2.5
	c-10.8-18-21.9-35-33-50.9v-0.1c0.1-0.1,0.2-0.2,0.3-0.3c2.3-2.6,4.5-5.2,6.5-7.6c2.3-2.5,4.4-5.2,6.5-7.6c1.1-1.3,2.1-2.6,3.1-3.8
	c1-1.3,2-2.4,3-3.7c1.9-2.4,3.8-4.7,5.5-7.1c1-1.2,1.8-2.4,2.5-3.4c0.9-1.1,1.6-2.3,2.4-3.3c0.8-1.1,1.5-2.2,2.3-3.3
	c1.5-2.1,2.9-4.2,4-6c0.5-0.8,1-1.5,1.4-2.3C318.6,165.1,319.6,163.2,320.6,161.4z M165.5,324.2c-0.1,0.2-0.2,0.3-0.4,0.4
	c-0.2,0.2-0.5,0.3-0.6,0.4l-0.1,0.1c-0.4,0-0.7,0.1-1.2,0.2c-0.5,0-0.9,0.1-1.4,0.1c-0.9,0.1-1.9,0.1-3,0.1s-2.3,0-3.4-0.1
	c-0.8,0-1.7-0.1-2.5-0.2c-0.3,0-0.5-0.1-0.8-0.1c-1.2-0.2-2.4-0.3-3.6-0.5h-0.3c-1.4-0.2-2.7-0.5-4.2-0.7c-5-1-10.3-2.3-16-3.8
	c-0.9-0.3-1.9-0.5-2.8-0.8c-2-0.5-3.9-1.1-5.8-1.6c-0.3-0.3-0.5-0.5-0.5-0.8c5.3-11.8,12.2-24,20.4-36.5l-1.1-0.7l21.3-8.5l-0.3,0.8
	c17.4,5.6,31.8,12,42.6,19c-1.1,1-2.2,2.1-3.3,3c-3.1,3.2-6.1,6-9,8.7c-0.1,0.1-0.2,0.3-0.4,0.4c-0.7,0.7-1.4,1.4-2.2,2.1
	c-0.1,0.1-0.2,0.2-0.2,0.2c-0.4,0.3-0.7,0.6-1,0.9l-1,1c-0.4,0.4-0.8,0.8-1.3,1.2c-1.1,1-2.1,2-3.1,2.8c-1.4,1.3-2.6,2.4-3.8,3.5
	c-0.5,0.5-1.1,1-1.5,1.4c-0.5,0.5-1,0.9-1.4,1.4l-0.5,0.4c-1.1,1-2.1,1.9-3,2.6c-0.5,0.5-0.9,0.9-1.4,1.2c-0.5,0.4-0.8,0.7-1.3,1.1
	c-0.3,0.2-0.5,0.5-0.8,0.6c-0.4,0.4-0.6,0.6-1,0.8C165.8,324.1,165.6,324.1,165.5,324.2z M119.5,287.1c-5.3,9-9.9,17.7-13.7,26.2
	c-6.7-2.1-13.5-4.4-20.4-6.7l-7.2-2.4c-1.2-0.5-2.4-0.9-3.6-1.3c-2.6-0.9-5.2-1.7-7.8-2.5c-0.9-0.4-1.8-0.6-2.8-0.9
	c-0.1-0.1-0.3-0.2-0.4-0.2c-0.4-0.1-0.7-0.2-1.1-0.3c-0.3-0.1-0.6-0.3-1-0.4c7-13.6,16.1-28.1,27.4-43.4l2.1,43.1L119.5,287.1z
	 M176.9,264.1l54.5-21.8l-5.6-39.1c16.2,5.8,30.2,12.3,41.9,19.4c-2,2.3-4,4.4-6,6.6c-2.3,2.5-4.7,5.1-7.1,7.6
	c-1.4,1.6-3,3.2-4.4,4.7c-0.8,0.8-1.5,1.6-2.3,2.4l-1.4,1.4c-0.2,0.2-0.4,0.4-0.5,0.5c-0.4,0.4-0.7,0.8-1.1,1.1
	c-0.1,0.1-0.2,0.2-0.3,0.4c-0.2,0.3-0.5,0.5-0.7,0.7c-5.2,5.6-10.6,11.1-15.9,16.5l-6.1,6.1c-1.7,1.8-3.4,3.6-5.2,5.3
	c-1.3,1.3-2.5,2.6-3.9,3.9l-1.4,1.4h-0.1C202.1,275.2,190.6,269.4,176.9,264.1z M214.7,284.3c3.4-3.4,6.9-6.9,10.5-10.5
	c14.7-15,18.5-18.8,22.2-22.7c0.1-0.2,0.2-0.4,0.4-0.5c1.1-1.2,2.2-2.4,3.3-3.5c0.6-0.5,1.2-1.3,1.7-1.8c4.1-4.3,8.1-8.7,12.1-13
	c2-2.2,4-4.3,6-6.5c9.2,13.4,18.5,27.7,27.7,42.5c1,1.7,2,3.4,3.1,5.2l2.5,4.3c0.5,0.9,1.2,1.9,1.7,2.9l0.8,1.3l-1.6,1.9
	c-4.8,5.5-9.8,11.2-14.9,16.9c-1.4,1.6-2.9,3.3-4.4,4.9c-4.2,4.6-8.6,9.3-13,14.1c-1.7,1.8-3.4,3.6-5.2,5.4
	c-0.1,0.2-0.3,0.3-0.4,0.5l-0.1,0.1c-4.3,4.5-8.4,8.8-12.5,12.8c-14.8-21.1-28.2-39.2-40-54C214.6,284.3,214.6,284.3,214.7,284.3z
	 M273.3,325.3c2.8-3,5.5-6,8.2-8.9l0.9-0.9c1.4-1.6,2.9-3.2,4.3-4.7c7.2-7.9,14.1-15.6,20.4-23.1h0.1c3.6,6.7,7.3,14.1,10.7,20.8
	c2.9,5.7,5.5,10.9,7.6,14.7c-2.8,0.6-5.2,1.2-7.5,1.7c-19.9,4.4-35.4,3.1-45.3,0.9C272.9,325.6,273,325.4,273.3,325.3z M275.9,141.3
	c0.8-0.6,1.5-1.2,2.3-1.8c0.6,0.2,1.3,0.3,1.9,0.4c20.8,4,32.4,7.5,36.3,11c0.5,0.5,1,1,1.3,1.5c0,0.2,0.1,0.4,0.2,0.5
	c0.5,1.5-0.2,3.4-1.1,6l-0.2,0.7c-0.4,0.8-0.8,1.6-1.3,2.5c-0.4,0.7-0.8,1.4-1.3,2.1c-0.5,0.8-1,1.6-1.4,2.5
	c-1.4,2.1-2.8,4.3-4.4,6.7c-1.1,1.5-2.3,3.2-3.4,4.8c-0.8,1.1-1.6,2.2-2.4,3.3c-0.8,1.1-1.7,2.3-2.5,3.4c-0.9,1-1.7,2.1-2.5,3.2
	c-1.4,1.8-3,3.7-4.5,5.6c-0.1,0.1-0.2,0.2-0.2,0.3c-3.4,4.4-7.2,9-11.4,13.5c-1.4,1.6-2.8,3.3-4.3,4.9c0,0.1-0.1,0.2-0.2,0.3
	c0,0,0,0-0.1,0c-14.4-9-32.1-17.1-52.8-24.1l-0.5-3.6C236.3,173.4,254,158.7,275.9,141.3z M207.5,130.7c0.7-0.6,1.5-1.4,2.2-2
	c0.6,0.1,1.2,0.1,1.7,0.2c18.7,2.7,35.4,5.2,49.5,7.6c-15.6,12.6-29,23.6-39.9,33l-4.1-28.2l-37.5,16.1
	C191.4,145.9,202,135.8,207.5,130.7z M111.2,159.8c11.6-10.9,20.7-19.5,25-23.9c11.2-11.2,20.3-12.9,25-12.9c2.1,0,3.3,0.3,3.4,0.4
	l27.5,3.1c-11,10.5-28.9,27.6-44.3,43.3c-13.2-1.9-28.9-3.6-42-4.8L111.2,159.8z M91.8,178.3c0.5-0.5,0.9-0.9,1.4-1.4l3.1,0.3
	c8.6,0.8,19.3,1.8,29.9,3l-0.4,0.2l-39.3,16.8l1.7,36.5c-1.4,2.1-3.4,5.7-4.6,7.2c-15.6-2.4-34.9-4.5-48.6-6
	C48.2,220.7,66.4,202.6,91.8,178.3z M8.1,271c0.2-1.3,0.6-2.6,1.5-4.4c1.1-2.6,4.3-7.9,13.2-18.3c0.4-0.4,0.6-0.7,1.1-1.2
	c0.5,0.1,1.3,0.1,1.9,0.2c11.6,1.2,31.5,3.3,48.8,5.6c-10.5,14.7-19.1,28.7-25.6,41.8c-0.5-0.2-0.9-0.3-1.4-0.5
	c-15.4-4.6-26.1-8.9-32.5-13c-1.2-0.7-2.2-1.4-3.1-2.3c-1.4-1.1-2.3-2.1-3-3.2v-0.1C8.1,274.2,7.8,272.8,8.1,271z M57.1,342.9
	C19.6,314,11.2,293,9.6,282.7c0.2,0.2,0.5,0.3,0.6,0.5c0.5,0.4,1.2,0.8,1.7,1.3c0.1,0.1,0.3,0.2,0.4,0.2c1.8,1.2,3.8,2.4,6.2,3.6
	c0.9,0.4,1.8,0.8,2.7,1.3c1.4,0.6,2.9,1.3,4.4,1.9c3.6,1.4,7.7,3,12.3,4.4c1.4,0.5,2.7,0.9,4.1,1.4c1.4,0.5,2.8,0.9,4.3,1.4l0.7,0.2
	l1.2,2.6c4.4,10,18.4,32.1,31.2,52.1C70.9,349.6,63.3,345.9,57.1,342.9z M101.3,363c-1-1.6-2.1-3.3-3.2-5l-1.8-2.9
	c-10.6-16.4-24.2-37.6-31.7-50.9c2.3,0.7,4.6,1.5,6.9,2.3l1.8,0.6c0.1,0,0.2,0.1,0.3,0.1c0.5,0.2,0.8,0.3,1.3,0.4
	c2.5,0.9,5.2,1.8,7.7,2.6c6.7,2.3,13.4,4.5,19.8,6.6c0.6,0.2,1.3,0.4,1.8,0.5l-0.4,0.7l2.1,3c8.8,13,25.5,38.5,39,59.1
	C130.7,375.2,115.5,369.2,101.3,363z M199.2,390.8c-6.2,2.3-18.5,0.3-33.7-4.1l-3.3-4.3c-11.6-17.5-27.9-42.4-39.1-59.3
	c4.6,1.4,9,2.4,13.1,3.4c1.4,0.4,2.8,0.6,4.2,0.9c5.4,1.2,10.3,2,14.7,2.2c1.3,0.1,2.4,0.2,3.5,0.2c1.6,0,3.2-0.1,4.6-0.3
	c0.5,0,1-0.1,1.4-0.2c0.1,0,0.2,0,0.2,0c0.1,0,0.2,0,0.3-0.1c0,0,0.1,0,0.2,0h0.5c0.1,0.4,0.3,0.9,0.4,1.4c0.2,0.5,0.3,1,0.5,1.5
	c0.3,1,0.5,2,0.9,3.1c0.3,1.1,0.7,2.3,1.1,3.4c0.4,1,0.7,2.1,1.1,3.2c0.1,0.2,0.2,0.4,0.2,0.5c0.5,1,0.9,2.2,1.3,3.3
	c0.1,0.1,0.1,0.2,0.2,0.3c0.5,1.2,1,2.4,1.6,3.6c0.5,1.3,1.2,2.5,1.9,3.8c0.6,1.3,1.4,2.5,2.1,3.8c0.4,0.7,0.7,1.4,1.1,2
	c2,3.3,4.3,6.5,6.8,9.8c1,1.3,2.1,2.5,3.2,3.8c0.6,0.6,1.2,1.3,1.7,1.9c1.4,1.5,3,3,4.6,4.5c0.6,0.7,1.4,1.4,2.2,2
	c0.3,0.3,0.5,0.5,0.8,0.7c0.7,0.6,1.4,1.2,2.2,1.7c0.6,0.6,1.4,1.2,2.2,1.7s1.4,1.1,2.3,1.7C201.7,388.9,200.1,390.1,199.2,390.8z
	 M219.9,372.4l-1.4,1.4c-4.3,4.1-8.1,7.5-11.1,10.2l-0.1,0.1c-0.3-0.2-0.5-0.4-0.7-0.6c-2.9-2-5.5-4.1-8.1-6.2
	c-1.1-1-2.3-2.1-3.3-3.2c-0.9-0.8-1.8-1.7-2.5-2.6c-0.2-0.2-0.4-0.3-0.5-0.5c-0.6-0.6-1.2-1.3-1.7-1.9c-1.6-1.9-3.2-3.8-4.5-5.8
	c-0.5-0.5-0.8-1.1-1.3-1.6c-2.3-3.3-4.2-6.5-5.9-9.9c-0.7-1.3-1.4-2.5-1.9-3.7c-0.4-0.7-0.6-1.4-0.9-2.1c-0.5-0.8-0.7-1.6-1-2.4
	c-1-2.3-1.8-4.4-2.5-6.6c-0.4-1.3-0.7-2.4-1.1-3.5c-0.3-1.1-0.5-2.2-0.8-3.2c-0.4-1.3-0.6-2.4-0.9-3.6c0.3-0.3,0.5-0.5,0.8-0.7
	c0.5-0.4,0.9-0.7,1.6-1.4c0.2-0.1,0.3-0.3,0.5-0.5c0.2-0.1,0.4-0.3,0.6-0.5c0.5-0.5,1-0.9,1.5-1.4c0.5-0.4,1-0.8,1.5-1.3l0.4-0.5
	c0.2-0.2,0.3-0.3,0.5-0.5c0.6-0.5,1.3-1.2,2-1.8c0.2-0.1,0.4-0.3,0.5-0.5c1.5-1.4,3.2-2.9,4.9-4.5c1.1-1,2.3-2.1,3.4-3.1l2.1-2
	l0.4-0.5l0.4-0.4c0.5-0.5,1-0.9,1.5-1.4c2-2,4.1-4,6.2-6c2.1-2,4.3-4.2,6.6-6.3c11.7,14.8,25.1,33,40,54.2
	C234.2,358.9,225.3,367.4,219.9,372.4z M264.6,407.8c-15.6-3.7-31.4-21.8-40.3-33.6c0.6-0.6,1.3-1.2,1.9-1.9c1.3-1.1,2.5-2.4,4-3.7
	c0.3-0.3,0.5-0.5,0.8-0.7c1.5-1.5,3.3-3.3,5.1-5c0.5-0.5,1-0.9,1.4-1.4c1.4-1.4,2.9-2.7,4.3-4.3c1.9-1.7,3.7-3.6,5.8-5.7
	c3-2.9,6.1-6.2,9.4-9.5c2.6-2.7,5.3-5.5,8.1-8.4c-1,4.9-1.9,10.4-2.6,16.5c-0.5,4.6-0.9,9.6-1.1,14.8
	C261.1,377.6,261.7,392.1,264.6,407.8z M329.8,401.9c-26.7,3.7-49.2,5.8-60.6,6.2c-3.3-17-3.9-32.7-3.2-46.1
	c0.2-2.2,0.3-4.3,0.5-6.2c0.9-10,2.4-18.6,4.2-25.8c5.7,1.4,12.9,2.4,21.8,2.4c7.7,0,16.6-0.8,26.6-3c2.6-0.5,5.6-1.3,8.9-2
	C330.1,331.8,331.4,358.7,329.8,401.9z M330.3,303.6c-0.2-0.3-0.4-0.6-0.5-1c-3-5.9-6.2-12.4-9.5-18.5l4,1.9l37.4,18.1l27.3-38.8
	c12.8,16.4,22.9,31,26.1,37.5c-25.2,5.8-54.2,12.4-76.1,17.4C337.1,317.2,333.8,310.7,330.3,303.6z M417.2,385.5
	c-24.2,6-50.4,10.9-74.3,14.4c1.4-39.5,0.7-64.9-2.4-75.5c21.9-4.9,50.6-11.5,75.6-17.3C417.1,314.6,417.9,338.3,417.2,385.5z
	 M400.8,259.1l68.5-7.1c7.2,7.5,13.7,14.3,18.9,19.6l4.3,4.5c-6.9,13.4-20.2,13.7-20.7,13.7h-0.5c-0.5,0.1-18.9,4.4-43.3,10
	C424.3,290.4,410.4,271.5,400.8,259.1z M491.9,356.4c-12.8,10-35.3,18.5-61.5,25.8c0.5-42.2,0-68.5-1.4-78c23.1-5.3,40.8-9.4,43-10
	c2.2-0.1,15.7-1,23.6-14.7c2.4,2.5,4.3,4.3,5.2,5.2C508,291.9,501.1,337.4,491.9,356.4z"/>
</svg>
