<?xml version="1.0" encoding="utf-8"?>
<!-- Generator: Adobe Illustrator 23.0.0, SVG Export Plug-In . SVG Version: 6.00 Build 0)  -->
<svg version="1.1" id="Layer_1" xmlns="http://www.w3.org/2000/svg" xmlns:xlink="http://www.w3.org/1999/xlink" x="0px" y="0px"
	 viewBox="0 0 512 512" style="enable-background:new 0 0 512 512;" xml:space="preserve">
<g>
	<g>
		<path d="M319.4,289.2l-21-90.4h-83.9l-21,90.4H12.6v7.1c0,49.8,40.8,90.6,90.6,90.6h67.5l-27.5,118.3h226.6l-27.5-118.3h67.5
			c24.2,0,47.1-9.5,63.9-26.5c17.1-17.1,26.7-39.9,26.7-64.1v-7.1H319.4z M225.6,212.7h61.6l17.8,76.5h-97.3L225.6,212.7z
			 M228.6,491.2c0-26.5,12.7-48.7,27.9-48.7c15,0,27.7,22.2,27.7,48.7H228.6z M352,491.2h-53.9c0-35.1-18.4-62.7-41.7-62.7
			c-23.5,0-41.9,27.5-41.9,62.7h-53.9l24.4-104.4h142.5L352,491.2z"/>
	</g>
	<g>
		<path d="M172.8,115c0,23.1,23.8,35.5,24,35.7c3.5,1.8,4.9,5.8,3.2,9.4c-1.2,2.5-3.7,3.9-6.2,3.9c-1.1,0-2.1-0.4-3.2-0.9
			c-1.2-0.5-31.8-16.1-31.8-48c0-17.5,13.4-26.5,24-33.6c11.1-7.4,17.8-12.4,17.8-22.1c0-23.1-23.8-35.5-24-35.5
			c-3.4-1.8-4.8-6-3-9.4c1.6-3.5,5.8-4.8,9.2-3.2c1.4,0.7,31.8,16.2,31.8,48c0,17.7-13.2,26.5-24,33.7
			C179.7,100.4,172.8,105.5,172.8,115z"/>
	</g>
	<g>
		<path d="M242.6,115c0,23.1,23.7,35.5,24,35.7c3.4,1.8,4.8,5.8,3,9.4c-1.2,2.5-3.7,3.9-6.2,3.9c-1.1,0-2.1-0.4-3.2-0.9
			c-1.2-0.5-31.6-16.1-31.6-48c0-17.5,13.2-26.5,24-33.6c10.9-7.4,17.7-12.4,17.7-22.1c0-23.1-23.7-35.5-24-35.5
			c-3.4-1.8-4.8-6-3-9.4c1.8-3.5,6-4.8,9.4-3.2c1.2,0.7,31.6,16.2,31.6,48c0,17.7-13.2,26.5-24,33.7
			C249.3,100.4,242.6,105.5,242.6,115z"/>
	</g>
	<g>
		<path d="M326.1,115c0,23.1,23.8,35.5,24,35.7c3.4,1.8,4.8,5.8,3,9.4c-1.2,2.5-3.5,3.9-6.2,3.9c-1.1,0-2.1-0.4-3-0.9
			c-1.4-0.5-31.8-16.1-31.8-48c0-17.5,13.2-26.5,24-33.6c10.9-7.4,17.8-12.4,17.8-22.1c0-23.1-23.8-35.5-24-35.5
			c-3.5-1.8-4.9-6-3.2-9.4c1.8-3.5,6-4.8,9.4-3.2c1.2,0.7,31.8,16.2,31.8,48c0,17.7-13.4,26.5-24,33.7
			C332.8,100.4,326.1,105.5,326.1,115z"/>
	</g>
</g>
</svg>
