<?xml version="1.0" encoding="utf-8"?>
<!-- Generator: Adobe Illustrator 23.0.0, SVG Export Plug-In . SVG Version: 6.00 Build 0)  -->
<svg version="1.1" id="Layer_1" xmlns="http://www.w3.org/2000/svg" xmlns:xlink="http://www.w3.org/1999/xlink" x="0px" y="0px"
	 viewBox="0 0 512 512" style="enable-background:new 0 0 512 512;" xml:space="preserve">
<g>
	<g>
		<path d="M182.2,195.5c-3.5,0-6.2-2.8-6.2-6.2V114c0-3.5,2.8-6.2,6.2-6.2c3.5,0,6.2,2.8,6.2,6.2v75.2
			C188.5,192.7,185.7,195.5,182.2,195.5z"/>
	</g>
	<g>
		<path d="M257.4,195.5c-3.5,0-6.2-2.8-6.2-6.2V57.6c0-3.5,2.8-6.2,6.2-6.2c3.5,0,6.2,2.8,6.2,6.2v131.6
			C263.7,192.7,260.9,195.5,257.4,195.5z"/>
	</g>
	<g>
		<path d="M332.6,195.5c-3.5,0-6.2-2.8-6.2-6.2v-94c0-3.5,2.8-6.2,6.2-6.2s6.2,2.8,6.2,6.2v94C338.9,192.7,336.1,195.5,332.6,195.5z
			"/>
	</g>
	<path d="M507.8,220.6l-0.5,6.6C497.4,357,387.7,458.6,257.4,458.6S17.5,357,7.7,227.3l-0.5-6.6H507.8z"/>
</g>
</svg>
