<?xml version="1.0" encoding="utf-8"?>
<!-- Generator: Adobe Illustrator 23.0.0, SVG Export Plug-In . SVG Version: 6.00 Build 0)  -->
<svg version="1.1" id="Layer_1" xmlns="http://www.w3.org/2000/svg" xmlns:xlink="http://www.w3.org/1999/xlink" x="0px" y="0px"
	 viewBox="0 0 512 512" style="enable-background:new 0 0 512 512;" xml:space="preserve">
<g>
	<g>
		<path d="M182.2,248.9c-3.5,0-6.2-2.8-6.2-6.2v-75.2c0-3.5,2.8-6.2,6.2-6.2c3.5,0,6.2,2.8,6.2,6.2v75.2
			C188.5,246.1,185.7,248.9,182.2,248.9z"/>
	</g>
	<g>
		<path d="M257.4,248.9c-3.5,0-6.2-2.8-6.2-6.2V111c0-3.5,2.8-6.2,6.2-6.2c3.5,0,6.2,2.8,6.2,6.2v131.6
			C263.7,246.1,260.9,248.9,257.4,248.9z"/>
	</g>
	<g>
		<path d="M332.6,248.9c-3.5,0-6.2-2.8-6.2-6.2v-94c0-3.5,2.8-6.2,6.2-6.2s6.2,2.8,6.2,6.2v94C338.9,246.1,336.1,248.9,332.6,248.9z
			"/>
	</g>
	<path d="M507.8,274l-0.5,6.6C497.4,410.4,387.7,512,257.4,512S17.5,410.4,7.7,280.6L7.2,274H507.8z"/>
</g>
</svg>
