<?xml version="1.0" encoding="utf-8"?>
<!-- Generator: Adobe Illustrator 23.0.0, SVG Export Plug-In . SVG Version: 6.00 Build 0)  -->
<svg version="1.1" id="Layer_1" xmlns="http://www.w3.org/2000/svg" xmlns:xlink="http://www.w3.org/1999/xlink" x="0px" y="0px"
	 viewBox="0 0 512 512" style="enable-background:new 0 0 512 512;" xml:space="preserve">
<path d="M492.1,178.8c-37.9-51-129.9-84-234.6-84c-108.1,0-203.9,36-238.4,89.4c-8.8,13.6-13.3,27.9-13.3,42.5
	c0,5.2,0.6,10.4,1.7,15.4c-0.1,1.7-0.1,3.6-0.1,5.3c0,26.1,5.6,51.6,16.8,75.7l0.2,0.3c8,17.2,18.7,33.3,31.8,48.3l1,1
	c47.5,53.3,120.2,83.7,199.4,83.7c120,0,223-71.6,245-170.3v-0.2c2.7-12.3,4.2-25.1,4.3-37.8c2.1-7,3.2-14.2,3.2-21.4
	C509.1,210.2,503.3,194.1,492.1,178.8z M63.6,307.1c-0.5-0.3-1-0.7-1.5-1c-1.4-0.9-2.8-1.8-4.2-2.8c-0.9-0.6-1.7-1.3-2.7-1.9
	c-0.6-0.4-1.2-0.8-1.9-1.4c-1.9-1.5-3.8-2.9-5.6-4.5c-1-0.8-1.8-1.5-2.8-2.3c-0.7-0.6-1.4-1.2-1.9-1.7c-0.7-0.6-1.4-1.3-2-1.8
	c-1.2-1-2.2-2-3.3-3.1l-2.4-2.4c0.2-0.3,0.4-0.6,0.6-0.9c0.4-0.8,0.9-1.5,1.4-2.2c0.2-0.3,0.4-0.6,0.6-0.9c0.5-0.8,1-1.6,1.6-2.3
	c0.2-0.3,0.4-0.6,0.7-0.9c0.6-0.9,1.4-1.7,2-2.5c0.8-1,1.6-1.9,2.4-2.8c0.2-0.2,0.4-0.4,0.6-0.6c0.7-0.8,1.4-1.5,2.1-2.1
	c0.9-0.9,1.7-1.7,2.7-2.4c0.7-0.7,1.4-1.3,2.1-1.8c1.4-1.1,2.7-2.1,4.2-3.1c1.2-0.8,2.3-1.6,3.5-2.2c1.2-0.8,2.3-1.5,3.5-2
	c1.3-0.7,2.5-1.3,3.7-1.8c1.3-0.7,2.5-1.2,3.9-1.7c1.3-0.6,2.6-1.1,3.9-1.5c1.4-0.5,2.7-0.9,4.1-1.3c1.4-0.4,2.7-0.8,4.1-1.1
	c1.3-0.3,2.5-0.6,3.8-0.8c0.2,0,0.3,0,0.5-0.1c6.7-1.1,13.8-1.4,20.4-0.8c0.5,0.1,0.9,0.1,1.4,0.2c0.3,0,0.7,0.1,1,0.1
	c7.1,0.8,13.9,2.6,20.5,5.2c1.5,0.6,3,1.3,4.5,2c1.7,0.9,3.5,1.7,5.2,2.8h0.1c1.6,1,3.1,1.9,4.6,3c1.5,1,2.9,2,4.3,3.2
	c5.5,4.5,10.3,9.7,14.2,15.5c0.6,1,1.3,1.9,1.7,2.9c1.2,2,2.2,4.1,3.2,6.2c0.4,0.9,0.8,1.7,1.2,2.5v0.2c0,0.1-0.1,0.1-0.1,0.1
	c0,0.1,0,0.1,0,0.1c-0.1,0.3-0.1,0.5-0.1,0.7c-0.1,0-0.1,0.1-0.1,0.1c0,0.1,0,0.1,0,0.2v0.1c-0.6,2.3-1.1,4.8-1.4,7.1
	c-0.4,2.5-0.6,5.2-0.6,7.7c0,1.2,0.1,2.2,0.1,3.4c0.1,0.9,0.1,1.7,0.3,2.5c0.1,1.8,0.4,3.7,0.8,5.5c0.1,0.5,0.2,1,0.3,1.5
	c0.1,0.6,0.3,1.2,0.4,1.7c0.2,0.9,0.5,1.8,0.8,2.8c0.3,0.9,0.6,1.7,0.9,2.6c0,0.2,0.1,0.4,0.2,0.6c0.2,0.6,0.5,1.3,0.7,1.9
	c-0.5,1.9-1.2,3.9-1.9,5.9c-0.5,1.3-1,2.5-1.6,3.8c-0.3,0.7-0.7,1.3-1,1.9c-0.6,1.3-1.3,2.4-2,3.7c-2-0.5-4.2-0.9-6.2-1.4l-7.3-1.7
	c-8.6-2-16.8-4.4-24.6-6.9c-0.6-0.2-1.1-0.4-1.7-0.6c-0.5-0.1-1-0.3-1.6-0.5c-1.1-0.4-2.1-0.7-3.2-1.1l-5.8-2
	c-1.3-0.5-2.5-1-3.9-1.5l-1.9-0.8l-0.4-0.2c-1.7-0.6-3.3-1.3-5.1-1.9c-1.8-0.8-3.6-1.6-5.5-2.3c-1.2-0.6-2.4-1.2-3.6-1.7
	c-1.7-0.8-3.3-1.6-5-2.3c-1.7-0.8-3.4-1.6-5.1-2.4c-2-1.1-4.2-2.1-6.2-3.3c-1.8-1-3.7-2-5.5-3.1c-1-0.6-1.9-1.2-3-1.7
	c-0.1-0.1-0.3-0.2-0.4-0.3c-0.9-0.5-1.7-1-2.5-1.6C65.4,308.2,64.5,307.7,63.6,307.1z M476.5,212c0,0.6,0,1.2-0.1,1.7
	c0,1.1-0.2,2.1-0.4,3.1c-0.1,0.9-0.3,1.7-0.6,2.5v0.1c-0.3,0.9-0.6,1.8-1,2.8c-0.1,0.1-0.1,0.2-0.1,0.3c-0.2,0.2-0.3,0.5-0.4,0.8
	c0,0.1-0.1,0.2-0.2,0.3c-0.2,0.4-0.4,0.9-0.7,1.4c-0.2,0.4-0.4,0.9-0.8,1.3c-0.2,0.5-0.5,1-0.8,1.4c0,0.1-0.1,0.2-0.1,0.2
	c-0.2,0.4-0.4,0.7-0.7,1c-0.3,0.4-0.6,0.8-1,1.3c-0.3,0.4-0.7,0.9-1.1,1.3c-0.4,0.5-0.9,1.1-1.3,1.6c-0.7,0.7-1.5,1.4-2.1,2.1
	c-0.9,0.7-1.7,1.5-2.5,2.1c-0.9,0.7-1.7,1.4-2.5,1.9c-0.3,0.2-0.6,0.5-0.9,0.7c-0.7,0.4-1.4,0.9-2,1.3c-0.5,0.4-1.1,0.8-1.7,1.1
	c-1,0.6-1.8,1.1-2.8,1.6c-1,0.6-1.9,1.1-3,1.6c-1.3,0.6-2.5,1.2-3.8,1.7c-2.6,1.1-5.2,2-8.2,3h-0.1c-0.4-0.4-0.8-0.8-1.2-1.1
	c-0.5-0.4-1.1-0.8-1.6-1.2c-1.1-0.8-2.2-1.7-3.4-2.3c-0.2-0.2-0.3-0.3-0.5-0.4c-1.2-0.8-2.4-1.6-3.6-2.2c-1.4-0.8-2.7-1.5-4.1-2.1
	c-1.1-0.6-2.2-1.2-3.4-1.7c-0.4-0.2-0.8-0.3-1.2-0.5c-0.4-0.2-0.9-0.4-1.3-0.5c-0.7-0.4-1.4-0.7-2.1-0.9c-0.4-0.2-0.9-0.4-1.4-0.5
	c-1-0.4-2-0.8-3.1-1.1c-0.2-0.1-0.3-0.2-0.5-0.2c-0.8-0.2-1.7-0.5-2.4-0.7c1.3-3.6,2.1-7.3,2.6-11.1c0.1-0.9,0.2-1.8,0.3-2.7
	c0.1-0.7,0.1-1.3,0.1-1.8c0.1-1.3,0.2-2.4,0.2-3.7c0-1.2-0.1-2.2-0.1-3.3c-0.1-1.9-0.3-4-0.7-5.9c0-0.4-0.1-0.7-0.2-1.1v-0.3
	c-0.1-0.6-0.2-1.2-0.3-1.7c-0.2-1-0.5-1.9-0.7-2.9c-0.3-1-0.6-1.9-0.9-2.9c-0.4-1.3-0.9-2.6-1.4-3.8c-0.3-0.9-0.7-1.8-1.1-2.6
	c-0.7-1.7-1.6-3.3-2.4-5c-1-1.7-2-3.6-3.2-5.3c-0.9-1.3-1.7-2.4-2.7-3.6c-0.7-1-1.5-1.8-2.2-2.8c-1-1.2-2-2.3-3.2-3.4v-0.1h0.4
	c0.1,0,0.1,0,0.2,0c1-0.1,1.9-0.3,2.9-0.3c1-0.1,2.1-0.2,3.2-0.3c2.4-0.2,5-0.2,7.4-0.2c10.3,0,20.1,1.3,29.3,3.8
	C460.5,180.4,476.5,195.6,476.5,212z M271.1,223.1c-0.1-0.9-0.2-1.7-0.4-2.6c-0.1-0.9-0.2-1.7-0.4-2.5c-0.1-0.8-0.3-1.6-0.5-2.3
	c-0.2-0.8-0.4-1.5-0.5-2.1c-0.2-0.7-0.4-1.4-0.7-2c-0.2-0.7-0.4-1.4-0.7-2.1c-0.3-0.9-0.6-1.8-1-2.7c-0.4-1-0.8-1.8-1.3-2.7
	c-0.3-0.7-0.6-1.4-1-1.9c-0.3-0.7-0.6-1.4-1-1.9c-0.7-1.3-1.5-2.5-2.2-3.8c0.3-0.8,0.6-1.7,1-2.4c0.3-0.8,0.6-1.7,1-2.4
	c0.4-0.9,0.8-1.7,1.3-2.5c0-0.1,0.1-0.2,0.1-0.2c0-0.1,0-0.1,0.1-0.1c0.2-0.7,0.6-1.3,1-1.8c0.4-0.9,0.9-1.6,1.4-2.3
	c0.4-0.8,0.9-1.5,1.4-2.2c0.5-0.7,1-1.5,1.6-2.1c0.5-0.7,1-1.4,1.6-1.9c0.1-0.2,0.3-0.4,0.5-0.6c0.4-0.5,0.8-1.1,1.3-1.6
	c0.7-0.8,1.4-1.6,2-2.2c0.5-0.6,1.1-1.1,1.7-1.7s1.3-1.3,1.9-1.8c0.7-0.6,1.4-1.3,2-1.7l2-1.7c0.8-0.5,1.5-1.1,2.2-1.6
	c0.7-0.6,1.5-1.1,2.2-1.6c0.8-0.6,1.6-1.1,2.3-1.5c0.8-0.5,1.6-1,2.3-1.5c1.6-0.9,3.2-1.7,5-2.5c0.8-0.4,1.7-0.8,2.5-1.2
	c0.9-0.4,1.7-0.8,2.6-1.1c0.9-0.4,1.7-0.7,2.6-1c1.8-0.6,3.7-1.2,5.5-1.7c0.9-0.3,1.8-0.5,2.8-0.8c0.9-0.2,1.8-0.4,2.8-0.6
	c1.9-0.4,3.8-0.8,5.7-1c1.1-0.1,2-0.2,3-0.3c0.7-0.1,1.4-0.2,2-0.2h0.2c0.9-0.1,1.7-0.1,2.5-0.1v-0.1h1.2l2.2-0.1
	c20.6,0,40.4,7.5,54.5,20.5c13.1,12.1,20.4,28,20.4,44.7c0,1.7-0.1,3.5-0.2,5.2c-0.1,0.9-0.2,1.7-0.3,2.4c-0.2,1.6-0.5,3.1-0.9,4.7
	c-0.1,0.6-0.2,1.2-0.4,1.7c-0.2,0.9-0.4,1.7-0.7,2.4c-0.2,0.7-0.4,1.3-0.6,1.8c0,0.1,0,0.2-0.1,0.3c-0.1-0.1-0.2-0.1-0.4-0.1
	c-0.6-0.2-1.3-0.3-1.8-0.4c-0.8-0.2-1.5-0.3-2.2-0.5c-1.5-0.2-3-0.5-4.5-0.7c-1.3-0.1-2.5-0.3-3.8-0.4c-1.3-0.1-2.5-0.1-3.8-0.2
	c-1.1,0-2.1-0.1-3.2-0.1c-12.1,0-23.7,2.4-34.4,7.2c-3.1,1.4-6.2,2.9-9,4.7c-0.9,0.6-1.7,1.1-2.6,1.7c-1,0.6-1.8,1.3-2.8,1.9
	c-0.6,0.4-1.2,0.9-1.8,1.4c-0.8,0.6-1.7,1.3-2.4,1.9c-1.6,1.3-3,2.6-4.5,4c-0.4,0.4-0.8,0.8-1.2,1.3c-0.8,0.9-1.6,1.7-2.3,2.5
	c-0.1,0.1-0.2,0.1-0.2,0.2c-0.5,0.6-1,1.1-1.5,1.7c-0.9,1.1-1.7,2.1-2.5,3.3c-0.9,1.1-1.7,2.2-2.3,3.4c-0.6,0.9-1.1,1.7-1.6,2.4
	c-0.2-0.2-0.4-0.5-0.7-0.8c-0.7-0.9-1.4-1.7-2.1-2.6c0-0.1-0.1-0.1-0.1-0.1c-0.6-0.7-1.3-1.4-1.9-2c-0.1-0.2-0.3-0.4-0.5-0.5
	c-0.4-0.5-0.9-1-1.4-1.4c-1.1-1.2-2.2-2.1-3.4-3.2c-0.8-0.7-1.6-1.3-2.4-1.9c-0.6-0.4-1.1-0.9-1.7-1.4c-0.2-0.1-0.4-0.2-0.5-0.3
	c-0.8-0.6-1.5-1.1-2.1-1.6c-1.9-1.3-3.9-2.5-5.9-3.7c-0.9-0.5-1.7-1-2.5-1.4c-0.1-0.1-0.2-0.1-0.3-0.2c-0.5-0.2-1-0.5-1.6-0.7
	c-1.6-0.8-3.1-1.6-4.7-2.1c-0.7-0.3-1.4-0.6-2-0.9c-1.7-0.7-3.5-1.3-5.3-1.8c-1.1-0.4-2.1-0.7-3.2-1c-0.9-0.3-1.7-0.5-2.5-0.7
	c-0.5-0.1-0.9-0.2-1.3-0.3c0.1-0.5,0.2-1,0.3-1.5c0.2-1.1,0.4-2.1,0.5-3.1c0.4-2.4,0.6-5.1,0.6-7.7v-2.6
	C271.2,224.9,271.2,224,271.1,223.1z M150.1,261.6c-0.8-0.7-1.7-1.4-2.5-1.9c-0.6-0.5-1.1-0.9-1.7-1.2c-0.6-0.5-1.3-0.9-1.9-1.3
	c-1-0.6-1.9-1.2-2.8-1.7c-0.1-0.1-0.3-0.2-0.4-0.2c-1.5-0.9-3-1.7-4.6-2.4c-1.6-0.8-3.1-1.5-4.8-2.1c-1.6-0.7-3.2-1.3-5-1.8
	c-0.7-0.2-1.4-0.5-2.1-0.7c-1.7-0.6-3.6-1.1-5.4-1.5c-0.8-0.2-1.7-0.4-2.5-0.5c-0.9-0.2-1.7-0.4-2.6-0.5c-0.8-0.1-1.7-0.3-2.4-0.4
	c-0.1,0-0.1,0-0.1,0c-0.2-0.4-0.3-0.8-0.4-1.3c-0.3-0.7-0.5-1.5-0.7-2.1c-0.4-1.7-0.8-3.3-1.1-5c-0.1-0.8-0.2-1.5-0.3-2.1
	c-0.3-2.1-0.4-4.4-0.4-6.5c0-30.6,26.4-57.2,62.8-63.7c0.2-0.1,0.5-0.1,0.7-0.1c3.6-0.6,7.1-1,10.5-1.2c0.5-0.1,0.9-0.1,1.4-0.1
	c1.5-0.1,3-0.2,4.5-0.2c27.2,0,52.3,11.3,66.9,29.6c1.2,1.5,2.2,3,3.3,4.6c2.1,3.3,4,6.7,5.4,10.2c2.8,6.7,4.3,13.7,4.3,20.8
	c0,2.5-0.2,5-0.6,7.3c-0.1,1.4-0.4,2.8-0.7,4.3c-1.4-0.3-2.7-0.5-4.1-0.7c-4.7-0.8-9.4-1.2-14.2-1.2c-1.4,0-2.6,0.1-4,0.2
	c-1.9,0-4,0.2-6,0.4c-0.6,0-1.1,0.1-1.7,0.2c-1.5,0.2-2.9,0.4-4.4,0.7c-1.2,0.2-2.4,0.4-3.7,0.7c-0.4,0.1-0.8,0.1-1.2,0.2
	c-0.2,0.1-0.5,0.1-0.7,0.2c-0.8,0.2-1.5,0.4-2.2,0.6c-0.4,0-0.8,0.1-1.1,0.3c-1.4,0.3-2.6,0.7-4,1.2c-0.9,0.3-1.8,0.6-2.7,0.9
	c-1.4,0.5-2.6,1.1-4,1.6c-0.7,0.3-1.5,0.6-2.1,1c-1,0.4-1.9,0.9-2.8,1.4c-1.1,0.4-2,0.9-2.9,1.5c-0.9,0.4-1.7,0.9-2.4,1.4
	c-1.6,0.9-3,1.8-4.5,2.8c-0.9,0.6-1.7,1.2-2.6,1.8c-0.6,0.4-1.2,0.9-1.7,1.4c-1.1,0.8-2.1,1.7-3.1,2.5c-1.4,1.2-2.7,2.4-4,3.7
	c-0.5,0.4-0.9,0.9-1.3,1.3c-0.6,0.6-1.2,1.2-1.7,1.7c-0.9,1-1.7,2-2.5,3c-0.1,0.1-0.1,0.2-0.1,0.2c-0.9,1-1.6,2-2.3,3
	c-0.5,0.7-0.9,1.4-1.3,1.9c-0.7,1.1-1.4,2.1-1.9,3.2c-0.5,0.7-0.9,1.4-1.3,2.1c-0.4,0.9-0.9,1.7-1.3,2.5c-0.4,0.8-0.7,1.5-1,2.2
	c-0.2,0.4-0.4,0.9-0.6,1.4c-0.3,0.6-0.5,1.3-0.7,1.8c-0.1,0.1-0.1,0.3-0.2,0.4c-0.4-0.9-0.8-1.7-1.3-2.6c-0.5-1.1-1.1-2-1.7-3
	c-1.3-2.2-2.7-4.4-4.3-6.5c-0.6-0.8-1.3-1.7-2-2.5c-0.9-1.2-1.8-2.2-2.8-3.3c-0.6-0.6-1.2-1.3-1.8-1.8c-0.7-0.8-1.4-1.5-2.1-2
	c-0.8-0.8-1.6-1.5-2.3-2v-0.1C151.5,262.8,150.8,262.2,150.1,261.6z M105.3,232.6c0.1,0.7,0.1,1.4,0.2,2l0.4,2.3
	c0,0.6,0.1,1.2,0.2,1.7c0.3,1.3,0.6,2.6,1,4c0.1,0.7,0.3,1.3,0.5,1.9c0,0.1,0.1,0.2,0.1,0.3c-1.1-0.1-2.1-0.2-3.2-0.2
	c-2.6-0.2-5.2-0.2-8,0c-1.1,0-2,0.1-3,0.2c-2.2,0.2-4.4,0.4-6.5,0.8h-0.1c-3-1.1-5.8-2.2-8.6-3.5c-0.7-0.3-1.5-0.7-2.1-1.1
	c-0.8-0.4-1.6-0.8-2.2-1.2c-1.3-0.7-2.4-1.4-3.6-2.1c-0.7-0.4-1.5-0.9-2.1-1.4c-1.2-0.8-2.2-1.6-3.3-2.4c-1.1-0.8-2.1-1.7-3.1-2.5
	c-0.6-0.5-1.1-1.1-1.7-1.6c-2.4-2.2-4.5-4.8-6.2-7.3c-0.4-0.5-0.8-1-1.1-1.6c-3.1-4.8-5.2-9.9-5.9-15.4c-0.1-1.1-0.3-2.2-0.3-3.4
	c-0.1-0.6-0.1-1.2-0.1-1.7c0-4.1,0.8-8.2,2.1-12c6.4-18.2,26.7-32.3,52.9-37c5.9-1,12.1-1.6,18.3-1.6c2.2,0,4.4,0.1,6.5,0.2
	c0.4,0.1,0.8,0.1,1.2,0.1c1,0.1,1.9,0.2,2.9,0.3c0.8,0.1,1.7,0.1,2.4,0.2c0.8,0.1,1.6,0.2,2.3,0.4c0.4,0,0.9,0.1,1.3,0.2
	c0.9,0.1,1.7,0.2,2.6,0.5c1,0.1,2,0.4,3,0.6c1.1,0.2,2,0.5,3,0.7c1.1,0.3,2,0.6,3,0.9c1,0.2,1.9,0.5,2.9,0.9c1.9,0.6,3.8,1.3,5.6,2
	c1.8,0.7,3.7,1.6,5.4,2.4c1.6,0.7,3.1,1.6,4.6,2.4c0.2,0,0.4,0.1,0.5,0.3c-1,0.2-1.8,0.4-2.8,0.7c-1.3,0.3-2.5,0.7-3.8,1
	c-3.2,1-6.4,2-9.4,3.3l-0.1,0.1c-1.1,0.4-2.1,0.9-3.1,1.4c-1.1,0.4-2,1-3,1.5c-2,1-4,2.1-5.8,3.2c-1,0.6-1.9,1.2-2.8,1.8
	c-1,0.6-1.8,1.3-2.7,1.9c-0.9,0.6-1.7,1.2-2.5,1.8c-0.8,0.6-1.7,1.3-2.4,1.9c-1.7,1.5-3.4,3-5,4.7c-0.6,0.6-1.3,1.3-1.8,1.9
	c-0.7,0.8-1.4,1.6-2,2.3c-0.8,0.9-1.5,1.8-2.2,2.8c-0.4,0.6-0.8,1.1-1.2,1.7c-1.8,2.6-3.5,5.3-4.9,8.2c-0.5,0.9-0.9,1.7-1.3,2.6
	c0,0.1,0,0.2-0.1,0.2c-0.2,0.6-0.5,1.3-0.8,1.8c-0.5,1.2-0.9,2.4-1.3,3.7c-0.4,0.9-0.6,1.8-0.9,2.8c-0.3,0.9-0.5,1.8-0.7,2.8
	c-0.2,1-0.4,1.9-0.6,3c-0.2,1-0.3,1.9-0.4,2.9c-0.2,1.9-0.3,4-0.3,6v2.4C105.2,231.4,105.3,232,105.3,232.6z M315.5,127.7
	c0.8,0.9,1.7,1.7,2.3,2.5c0.8,0.9,1.5,1.7,2.1,2.5c0.3,0.4,0.7,0.9,1,1.3c0.5,0.7,0.9,1.3,1.3,1.8c0.7,0.9,1.3,1.7,1.8,2.7
	c0.5,0.7,0.9,1.4,1.3,2.1c0.1,0.2,0.2,0.4,0.3,0.6c0.5,0.7,0.9,1.5,1.2,2.1c0.4,0.6,0.7,1.3,0.9,1.8c0.2,0.3,0.3,0.6,0.4,0.9
	c0.2,0.3,0.3,0.7,0.5,1h-0.1c-0.6,0-1.2,0-1.7,0.1h-0.2c-1.4,0.1-2.8,0.2-4.2,0.4c-0.9,0.1-1.7,0.2-2.5,0.4c-1,0.1-1.9,0.3-2.9,0.5
	c-1,0.1-1.8,0.3-2.8,0.5c-1.6,0.4-3.1,0.8-4.6,1.2c-0.9,0.2-1.7,0.5-2.6,0.8c-0.4,0.1-0.7,0.2-1.1,0.3c-0.9,0.3-1.7,0.7-2.6,1
	c-0.9,0.3-1.7,0.7-2.6,1c-1.2,0.5-2.1,0.9-3.2,1.4c-0.1,0-0.2,0.1-0.2,0.1c-0.2,0.1-0.3,0.1-0.4,0.2c-1.1,0.5-2.1,1-3.2,1.6
	c-1.1,0.5-2.1,1.1-3.2,1.7h-0.1c-1.1,0.7-2.1,1.3-3.2,1.9c-1.1,0.7-2,1.4-3.1,2.1c-0.7,0.5-1.5,1.1-2.2,1.7c-1,0.7-1.8,1.5-2.8,2.2
	c-1.2,1-2.3,2-3.4,3.1c-0.7,0.6-1.3,1.3-1.9,1.8c-1,1.1-1.9,2.1-3,3.3c-0.5,0.7-1.1,1.3-1.6,1.9c-1.6,1.9-2.9,4-4.3,6
	c0,0,0,0.1-0.1,0.1c-0.3,0.6-0.7,1.1-1,1.7c-0.4,0.8-0.8,1.5-1.2,2.1c-0.3,0.7-0.7,1.3-1,1.9c-0.8,1.6-1.6,3.2-2.1,4.9
	c-1.3-1.7-2.5-3.3-4-4.9c-1.2-1.4-2.4-2.7-3.8-4c-0.4-0.4-0.8-0.8-1.2-1.2c-1.1-1-2-1.9-3.2-2.8c-1.1-0.9-2-1.7-3.1-2.5
	c-2.2-1.6-4.5-3.1-6.9-4.6c-0.6-0.4-1.3-0.8-1.9-1.1c-1.5-0.9-3-1.7-4.7-2.4c-0.8-0.4-1.6-0.8-2.3-1.2c-0.8-0.4-1.7-0.7-2.4-1.1
	c-1.6-0.7-3.2-1.3-4.8-1.8c-1.7-0.6-3.6-1.2-5.3-1.7c-0.9-0.3-1.7-0.5-2.6-0.8c-0.9-0.2-1.8-0.5-2.7-0.7c-0.9-0.2-1.7-0.4-2.6-0.5
	c-0.7-0.2-1.4-0.3-2-0.4c-1.4-0.3-2.6-0.5-4-0.7c-0.9-0.1-1.7-0.2-2.6-0.3c-1.7-0.2-3.5-0.3-5.2-0.4c-0.9-0.1-1.7-0.1-2.5-0.1
	c-1.1-0.1-2.1-0.1-3.2-0.1c-1.3,0-2.6,0-4,0.1c0-0.2,0-0.4,0.1-0.6c0-0.3,0.1-0.6,0.1-0.8c0.2-0.7,0.3-1.4,0.5-1.9
	c0.2-0.9,0.4-1.7,0.6-2.4c0.2-0.7,0.4-1.4,0.7-2V152c0.3-0.8,0.6-1.5,0.8-2.2c0.3-0.7,0.5-1.3,0.8-1.9c0.3-0.6,0.5-1.1,0.7-1.7
	c0.3-0.6,0.6-1.2,0.9-1.7c0.4-0.8,0.8-1.6,1.3-2.3c0.9-1.8,1.9-3.6,3.2-5.3c0.3-0.6,0.7-1.1,1.1-1.7c0.5-0.7,1-1.3,1.6-1.9
	c0.6-0.8,1.2-1.6,1.8-2.3c0.5-0.5,1-1.1,1.5-1.7c2.1-2.4,4.7-4.7,7.2-6.9l0.5-0.3c14-11.3,32.1-17.4,50.9-17.4
	c20.6,0,39.8,7.2,54.2,20.2C313.5,125.7,314.5,126.7,315.5,127.7z M238.5,355.1c-1.6-0.1-3.2-0.2-4.8-0.3c-1.9-0.1-3.9-0.2-5.8-0.3
	c-1.7-0.1-3.3-0.2-5-0.3l-1.3-0.1c-0.7-0.1-1.5-0.1-2.2-0.2c-2.2-0.2-4.4-0.4-6.6-0.6h-0.1c-2.6-0.3-5.2-0.6-7.8-0.9
	c-3.1-0.3-6.2-0.7-9.3-1.1c-1.3-0.2-2.4-0.3-3.7-0.6c-0.9-0.1-1.8-0.2-2.7-0.3c-0.5-0.1-1-0.2-1.5-0.3c-1.4-1.4-2.6-2.9-3.9-4.4
	c-0.6-0.8-1.3-1.7-1.8-2.4c-1.7-2.2-3.1-4.6-4.4-6.9c-0.5-0.9-1-1.7-1.4-2.6c-0.6-1.1-1.1-2.2-1.5-3.3l-0.3-0.6
	c-2.8-7-4.3-14.4-4.3-21.9c0-1,0-1.8,0.1-2.7v-0.9c0.1-1.1,0.2-2.1,0.3-3.3v-0.1c0.1-0.3,0.1-0.6,0.2-1c0.1-0.9,0.2-1.7,0.4-2.6
	c0-0.2,0.1-0.3,0.1-0.5c0.1-0.3,0.1-0.6,0.2-0.8c0-0.3,0.1-0.6,0.2-0.9c0.1-0.6,0.2-1.1,0.4-1.6l0.1-0.6c0.1-0.2,0.1-0.4,0.2-0.6
	c0-0.1,0-0.1,0-0.2l0.1-0.3c0-0.1,0.1-0.2,0.1-0.3c0.2-0.9,0.5-1.7,0.8-2.4c0.3-0.7,0.5-1.5,0.8-2.1c0-0.1,0.1-0.3,0.2-0.4
	c0.2-0.6,0.5-1.3,0.8-1.8c0.4-1.1,0.9-2,1.4-3c0.5-1.2,1.2-2.3,1.7-3.4c0.5-0.9,1.1-1.7,1.6-2.5s1.1-1.6,1.6-2.4
	c0.6-0.8,1.2-1.6,1.7-2.3c0.4-0.6,0.9-1.2,1.4-1.7c0.5-0.5,0.9-1,1.3-1.5c0.5-0.5,1-1,1.5-1.6c0.4-0.5,0.9-1,1.5-1.6
	c0.7-0.8,1.5-1.5,2.3-2.2c0.5-0.5,1-0.9,1.5-1.3c1-1,1.9-1.7,3-2.6c1.1-0.8,2.1-1.6,3.2-2.3c0.3-0.2,0.6-0.4,0.8-0.6
	c1.2-0.8,2.2-1.6,3.4-2.2c1.7-1,3.4-1.9,5.2-2.8c0.1-0.1,0.2-0.1,0.3-0.2c0.9-0.4,1.7-0.9,2.6-1.3c0.7-0.4,1.4-0.7,2-1
	c0.7-0.3,1.4-0.5,1.9-0.8c0.7-0.3,1.4-0.5,2-0.8c1.8-0.7,3.8-1.4,5.7-1.9c1-0.3,2-0.6,3.1-0.8c1.7-0.5,3.3-0.9,5.1-1.2
	c1.1-0.3,2.1-0.5,3.2-0.6c0.8-0.2,1.5-0.3,2.2-0.4c0.4,0,0.9-0.1,1.3-0.1c0.4-0.1,0.8-0.1,1.2-0.2c0.8-0.1,1.7-0.1,2.4-0.2
	c0.7-0.1,1.4-0.1,2-0.1c1.7-0.1,3.5-0.2,5.3-0.2c4.6,0,9.2,0.4,13.7,1.1c0.9,0.1,1.8,0.3,2.7,0.4c0.4,0.1,0.8,0.1,1.1,0.2
	c0.1,0,0.2,0.1,0.3,0.1c0.5,0.1,0.9,0.2,1.4,0.3c2.2,0.5,4.5,1.1,6.6,1.7c0.5,0.1,1,0.2,1.4,0.4c0.1,0,0.2,0.1,0.4,0.1
	c0.4,0.1,0.9,0.3,1.3,0.4c0.1,0.1,0.3,0.1,0.4,0.2c0.6,0.2,1.3,0.4,1.9,0.7c1.6,0.6,3.2,1.2,4.8,1.8c0.9,0.4,1.8,0.9,2.7,1.4
	c0.7,0.3,1.5,0.7,2.1,1c0.7,0.4,1.4,0.8,2,1.2c1,0.5,1.9,1.1,3,1.7c0.6,0.4,1.3,0.8,1.8,1.2c0.7,0.5,1.4,0.9,1.9,1.4
	c0.6,0.4,1.3,0.9,1.9,1.4c0.3,0.2,0.6,0.5,0.9,0.7c0.6,0.5,1.1,0.9,1.7,1.4c0.5,0.4,1.1,0.8,1.6,1.4c0,0,0,0,0.1,0l0.4,0.4
	c1.1,1,2.1,1.8,3.1,2.9c0.8,0.8,1.6,1.6,2.3,2.4c0.8,0.8,1.6,1.7,2.2,2.5c0.4,0.4,0.7,0.8,1,1.3c0.4,0.4,0.8,0.9,1.1,1.4
	c0.3,0.3,0.5,0.6,0.7,0.9c2.1,3,4,6,5.4,9l0.4,0.7c3.9,8.1,5.8,16.6,5.8,25.4c0,10.2-2.6,19.9-7.7,29c-0.7,1.2-1.4,2.3-2.2,3.5
	c-0.4,0.7-0.9,1.4-1.4,2c-0.4,0.6-0.8,1.2-1.3,1.7c-0.4,0.6-0.9,1.2-1.4,1.7c-0.3,0.4-0.6,0.8-1,1.2c-0.7,0.8-1.3,1.6-1.9,2.2
	c-0.6,0.7-1.3,1.3-1.8,1.8c-0.5,0.6-1,1-1.5,1.5h-0.1c-5,0.6-10,1.1-15,1.4c-5,0.4-9.9,0.6-14.9,0.8c-1.8,0.1-3.8,0.2-6,0.2
	c-2.1,0.1-4.3,0.2-6.4,0.2h-6.7c-3.1,0-6.1,0-9.1-0.1c-2.5,0-5.1-0.1-7.6-0.2H238.5z M436.1,316c-2.2,1.2-4.5,2.3-6.8,3.5
	c-1.1,0.6-2.1,1.1-3.3,1.7c-1.7,0.8-3.3,1.6-5,2.3c-2.5,1.2-5.2,2.3-7.8,3.4c-2.6,1.1-5.3,2.1-8,3.2c-5.4,2-11,4-16.5,5.7l-0.5,0.2
	c-1.7,0.6-3.5,1.2-5.3,1.7c-1.3,0.5-2.6,0.9-3.9,1.2c-2.4,0.8-4.8,1.5-7.3,2l-2.1,0.6c-0.5,0.2-1,0.3-1.6,0.5
	c-2.3,0.6-4.7,1.2-7.3,1.7l-0.3,0.1c-2.5,0.6-5.2,1.2-7.9,1.7c-0.8,0.2-1.6,0.4-2.3,0.5l-0.8,0.2c-2.6,0.5-5.2,1.1-7.8,1.6
	c-1.3,0.2-2.5,0.5-3.8,0.7l-5.1,0.9c-1-0.9-1.9-1.7-2.9-2.7l-2.3-2.3c-0.4-0.5-0.9-0.9-1.2-1.4c-1.4-1.5-2.5-2.9-3.7-4.5
	c-0.2-0.2-0.3-0.5-0.5-0.7c0.5-0.9,1-1.8,1.4-2.7c0.5-0.9,0.9-1.7,1.3-2.6c0.6-1.4,1.1-2.7,1.6-4c0.1-0.5,0.3-0.9,0.4-1.3
	c0.7-1.9,1.2-3.9,1.7-5.9c0.2-0.8,0.3-1.6,0.5-2.3c0-0.1,0.1-0.3,0-0.5c0.2-0.7,0.3-1.4,0.4-2c0-0.2,0.1-0.4,0.1-0.6
	c0.1-0.6,0.1-1.1,0.1-1.6c0.1-0.4,0.1-0.8,0.1-1.2c0.1-0.5,0.1-0.9,0.1-1.4c0.1-1.2,0.2-2.3,0.2-3.6c0-9.5-2.2-18.9-6.5-27.5
	l-0.5-0.9c-1.4-2.6-2.9-5.2-4.8-7.8v-0.1c0.6-1.1,1.3-2.2,2-3.3c0.4-0.7,0.8-1.3,1.3-1.9c0.8-1.2,1.7-2.2,2.5-3.4
	c0.6-0.7,1.2-1.5,1.8-2.2c0.6-0.8,1.3-1.5,1.9-2.1c0.7-0.8,1.4-1.5,2-2.1c0.8-0.8,1.7-1.6,2.5-2.3c1.4-1.3,2.9-2.4,4.4-3.6
	c0.6-0.5,1.2-0.9,1.7-1.4c0.3-0.2,0.6-0.4,1-0.6c0.3-0.3,0.6-0.5,0.9-0.7c0.6-0.4,1.2-0.7,1.7-1.1c0.5-0.3,1-0.6,1.5-0.9
	c0.5-0.4,1-0.6,1.6-0.9c1.1-0.7,2.2-1.3,3.4-1.8c0.5-0.3,1.1-0.6,1.7-0.9c0.7-0.3,1.3-0.6,1.9-0.9c10.3-4.6,21.5-6.9,33.1-6.9
	c1.4,0,2.6,0,4,0.1c1.3,0.1,2.5,0.1,3.9,0.3c1,0.1,2,0.2,3.1,0.3c1.2,0.2,2.3,0.4,3.5,0.6c0.6,0.1,1.2,0.2,1.7,0.3
	c0.6,0.1,1.2,0.2,1.7,0.4c0.3,0,0.6,0,0.8,0.1l0.3,0.1l1.5,0.4c11.5,2.8,22.2,8.3,30.9,15.6l0.6,0.6c0.5,0.4,0.9,0.7,1.4,1.1
	l1.2,1.2c0.1,0.1,0.2,0.1,0.2,0.2c0.7,0.6,1.4,1.3,1.9,1.8l0.3,0.3c0.6,0.7,1.3,1.4,1.9,2.1c0.9,1,1.7,1.9,2.4,2.9
	c0.7,0.9,1.5,1.8,2,2.7c0.6,0.8,1.1,1.5,1.5,2.2c0.4,0.5,0.7,1,1,1.5c1.6,2.4,2.9,5.1,4.1,7.7c0.4,0.9,0.8,1.8,1.1,2.7
	c0.3,0.6,0.5,1.2,0.7,1.8c0.1,0,0.1,0.1,0.1,0.2c0.2,0.5,0.4,1.1,0.6,1.7c0.3,1.2,0.7,2.3,1,3.5c0.1,0.4,0.2,0.8,0.3,1.3
	c0,0.1,0.1,0.3,0.1,0.5c0.1,0.6,0.3,1.3,0.4,1.9c0.2,0.9,0.3,1.7,0.4,2.6c0.1,0.2,0.1,0.5,0.1,0.7c0.2,0.8,0.2,1.7,0.3,2.5v0.4
	c0.1,0.3,0.1,0.6,0.1,0.9c0.1,0.8,0.1,1.6,0.1,2.3v0.7c-0.8,0.5-1.5,1.1-2.2,1.7c-1,0.7-1.9,1.4-3,2c-1.2,0.8-2.2,1.6-3.5,2.2v0.1
	c-0.6,0.4-1.3,0.8-1.8,1.2l-0.8,0.5c-1.1,0.7-2.2,1.4-3.3,2c-1.7,1.1-3.6,2.1-5.3,3.1C438.8,314.6,437.5,315.3,436.1,316z"/>
</svg>
